Recursive Mono-Casual A Italic.ufo
<glyph name="parenleft" format="2">
	<unicode hex="0028"/>
	<advance width="600"/>
	<outline>
		<contour>
			<point x="536.2843437288" y="756" type="qcurve" smooth="yes"/>
			<point x="426.3006511267" y="668.0179491746"/>
			<point x="271.4673327197" y="436.8208955224"/>
			<point x="237.502647184" y="301" type="qcurve" smooth="yes"/>
			<point x="236.502368533" y="297" type="line" smooth="yes"/>
			<point x="202.5376829972" y="161.1791044776"/>
			<point x="241.6820303485" y="-69.9402985075"/>
			<point x="307.7206719882" y="-158" type="qcurve" smooth="yes"/>
			<point x="313.3171670424" y="-165.4626865672"/>
			<point x="325.010741486" y="-172"/>
			<point x="333.2196967099" y="-172" type="qcurve" smooth="yes"/>
			<point x="346.6525325308" y="-172"/>
			<point x="367.388061525" y="-165.4776119403"/>
			<point x="375.970463" y="-161" type="qcurve"/>
			<point x="376.9707416509" y="-157" type="line"/>
			<point x="298.8058061979" y="-60.7313432836"/>
			<point x="258.8440170563" y="166.4029850746"/>
			<point x="291.502368533" y="297" type="qcurve" smooth="yes"/>
			<point x="292.502647184" y="301" type="line" smooth="yes"/>
			<point x="324.9743795094" y="430.8507462687"/>
			<point x="478.5777896379" y="658.7300783791"/>
			<point x="605.0342740661" y="755" type="qcurve"/>
			<point x="606.034552717" y="759" type="line"/>
			<point x="599.6915810576" y="763.4776119403"/>
			<point x="582.218154828" y="770"/>
			<point x="568.7853190071" y="770" type="qcurve" smooth="yes"/>
			<point x="560.5763637832" y="770"/>
			<point x="545.6132218089" y="763.4626865672"/>
		</contour>
	</outline>
	<guideline x="-65.7683212995" y="0" angle="179.1517819709" identifier="XOdHXASqsO"/>
	<guideline x="-15.7683212995" y="0" angle="179.1517819709" identifier="2VyduSJcWa"/>
	<guideline x="34.2316787005" y="0" angle="179.1517819709" identifier="zLB2u6jFLk"/>
	<guideline x="84.2316787005" y="0" angle="179.1517819709" identifier="e6tpmLExns"/>
	<guideline x="134.2316787005" y="0" angle="179.1517819709" identifier="Abv44llkLD"/>
	<guideline x="184.2316787005" y="0" angle="179.1517819709" identifier="647JcqBYk7"/>
	<guideline x="234.2316787005" y="0" angle="179.1517819709" identifier="KJhSFnWKFj"/>
	<guideline x="284.2316787005" y="0" angle="179.1517819709" identifier="bhqgzOMKZk"/>
	<guideline x="334.2316787005" y="0" angle="179.1517819709" identifier="x1LX4kqmQw"/>
	<guideline x="384.2316787005" y="0" angle="179.1517819709" identifier="Orzk8zgvEm"/>
	<guideline x="434.2316787005" y="0" angle="179.1517819709" identifier="C9H1WkvFN5"/>
	<guideline x="484.2316787005" y="0" angle="179.1517819709" identifier="Tn1sO6HluI"/>
	<guideline x="534.2316787005" y="0" angle="179.1517819709" identifier="ptxy6kG1it"/>
	<guideline x="-128.2857369835" y="-250" angle="180" identifier="fNJGYxbFly"/>
	<guideline x="-115.7822538467" y="-200" angle="180" identifier="7NfozpfptG"/>
	<guideline x="-103.2787707099" y="-150" angle="180" identifier="mEW7jxo8ZH"/>
	<guideline x="-90.7752875731" y="-100" angle="180" identifier="rWSh3OgwrC"/>
	<guideline x="-78.2718044363" y="-50" angle="180" identifier="lx41C27eXa"/>
	<guideline x="-65.7683212995" y="0" angle="180" identifier="ob1MdjjXdO"/>
	<guideline x="-53.2648381627" y="50" angle="180" identifier="t9PRVvPvCz"/>
	<guideline x="-40.761355026" y="100" angle="180" identifier="1yg4DqT4Rm"/>
	<guideline x="-28.2578718892" y="150" angle="180" identifier="ecqeg0TMZ7"/>
	<guideline x="-15.7543887524" y="200" angle="180" identifier="lnC9ZS0wZn"/>
	<guideline x="-3.2509056156" y="250" angle="180" identifier="6PQkJNsZo4"/>
	<guideline x="9.2525775212" y="300" angle="180" identifier="9q4mvpdNh4"/>
	<guideline x="21.756060658" y="350" angle="180" identifier="yo4695x1mi"/>
	<guideline x="34.2595437948" y="400" angle="180" identifier="LRO3Qq5Yvv"/>
	<guideline x="46.7630269316" y="450" angle="180" identifier="zi4GEvjlgW"/>
	<guideline x="59.2665100684" y="500" angle="180" identifier="2AusQaGp5X"/>
	<guideline x="71.7699932052" y="550" angle="180" identifier="o3wpQk85xX"/>
	<guideline x="84.273476342" y="600" angle="180" identifier="d8ht9dMQT4"/>
	<guideline x="96.7769594788" y="650" angle="180" identifier="AVWWVvitcw"/>
	<guideline x="109.2804426156" y="700" angle="180" identifier="BfsOsOAkoj"/>
</glyph>
<glyph name="plus" format="2">
	<unicode hex="002B"/>
	<advance width="600"/>
	<outline>
		<contour>
			<point x="75.5043190896" y="325" type="line"/>
			<point x="74.9444616357" y="322.7611940299"/>
			<point x="73.5634799162" y="317.2388059701"/>
			<point x="73.0036224623" y="315" type="qcurve" smooth="yes"/>
			<point x="70.0177160415" y="303.0597014925"/>
			<point x="70.7739882231" y="285.9701492537"/>
			<point x="75.2511842665" y="280" type="qcurve" smooth="yes"/>
			<point x="76.9301327828" y="277.7611940299"/>
			<point x="82.2694926692" y="275"/>
			<point x="86.0008359528" y="275" type="qcurve" smooth="yes"/>
			<point x="543.0008359528" y="275" type="line"/>
			<point x="543.5606934067" y="277.2388059701"/>
			<point x="544.9416751263" y="282.7611940299"/>
			<point x="545.5015325802" y="285" type="qcurve" smooth="yes"/>
			<point x="549.6071539087" y="301.4179104478"/>
			<point x="545.9371549105" y="325"/>
			<point x="532.5043190896" y="325" type="qcurve" smooth="yes"/>
		</contour>
		<contour>
			<point x="274.2358584646" y="60" type="qcurve"/>
			<point x="376.0142111981" y="467" type="line" smooth="yes"/>
			<point x="381.0529282831" y="487.1492537313"/>
			<point x="383.9842546901" y="519.0447761194"/>
			<point x="377.268460625" y="528" type="qcurve" smooth="yes"/>
			<point x="371.6719655708" y="535.4626865672"/>
			<point x="356.731983145" y="540"/>
			<point x="349.2692965778" y="540" type="qcurve" smooth="yes"/>
			<point x="345.5379532943" y="540"/>
			<point x="336.6236691758" y="538.4925373134"/>
			<point x="332.5190875896" y="537" type="qcurve"/>
			<point x="334.1967884151" y="516.8507462687"/>
			<point x="330.5341270425" y="485.0746268657"/>
			<point x="321.7630269316" y="450" type="qcurve" smooth="yes"/>
			<point x="229.9874607075" y="83" type="line" smooth="yes"/>
			<point x="226.6283159842" y="69.5671641791"/>
			<point x="247.8179480169" y="60"/>
			<point x="264.2358584646" y="60" type="qcurve" smooth="yes"/>
			<point x="266.4746644348" y="60"/>
			<point x="271.9970524945" y="60"/>
		</contour>
	</outline>
	<guideline x="-65.7683212995" y="0" angle="179.1517819709" identifier="01IDjeokrv"/>
	<guideline x="-15.7683212995" y="0" angle="179.1517819709" identifier="YHWa0GuZrl"/>
	<guideline x="34.2316787005" y="0" angle="179.1517819709" identifier="YT8sy5Jpiz"/>
	<guideline x="84.2316787005" y="0" angle="179.1517819709" identifier="iG4svGG5Ya"/>
	<guideline x="134.2316787005" y="0" angle="179.1517819709" identifier="5AHlOxn9et"/>
	<guideline x="184.2316787005" y="0" angle="179.1517819709" identifier="RmnFfPXj3K"/>
	<guideline x="234.2316787005" y="0" angle="179.1517819709" identifier="OjOPlgqWkS"/>
	<guideline x="284.2316787005" y="0" angle="179.1517819709" identifier="JfPgp0hoJQ"/>
	<guideline x="334.2316787005" y="0" angle="179.1517819709" identifier="2tn83ox3r7"/>
	<guideline x="384.2316787005" y="0" angle="179.1517819709" identifier="0e8sini397"/>
	<guideline x="434.2316787005" y="0" angle="179.1517819709" identifier="JZfwPTdmMM"/>
	<guideline x="484.2316787005" y="0" angle="179.1517819709" identifier="s0op6KAhyE"/>
	<guideline x="534.2316787005" y="0" angle="179.1517819709" identifier="AxaHstNlj4"/>
	<guideline x="-128.2857369835" y="-250" angle="180" identifier="GpYKvNJvKG"/>
	<guideline x="-115.7822538467" y="-200" angle="180" identifier="MkoxyP9fqs"/>
	<guideline x="-103.2787707099" y="-150" angle="180" identifier="P8vW0c7rrv"/>
	<guideline x="-90.7752875731" y="-100" angle="180" identifier="IqR4Q9G3Gn"/>
	<guideline x="-78.2718044363" y="-50" angle="180" identifier="nBgwS66Mcf"/>
	<guideline x="-65.7683212995" y="0" angle="180" identifier="BX8iD0Ohyv"/>
	<guideline x="-53.2648381627" y="50" angle="180" identifier="0m97q9a6pl"/>
	<guideline x="-40.761355026" y="100" angle="180" identifier="ksMXHaTl5A"/>
	<guideline x="-28.2578718892" y="150" angle="180" identifier="AAIw68gxBV"/>
	<guideline x="-15.7543887524" y="200" angle="180" identifier="ja14fHXJKh"/>
	<guideline x="-3.2509056156" y="250" angle="180" identifier="eVyCecPePX"/>
	<guideline x="9.2525775212" y="300" angle="180" identifier="u9yeBiNEPz"/>
	<guideline x="21.756060658" y="350" angle="180" identifier="Yv4D5JZqur"/>
	<guideline x="34.2595437948" y="400" angle="180" identifier="bigt8ZVCdg"/>
	<guideline x="46.7630269316" y="450" angle="180" identifier="5G4yvDFa7c"/>
	<guideline x="59.2665100684" y="500" angle="180" identifier="cY1xHy46Wq"/>
	<guideline x="71.7699932052" y="550" angle="180" identifier="bhZnEPPYGe"/>
	<guideline x="84.273476342" y="600" angle="180" identifier="B6bsZho90K"/>
	<guideline x="96.7769594788" y="650" angle="180" identifier="gtGTedsQkd"/>
	<guideline x="109.2804426156" y="700" angle="180" identifier="HQ9s9o08kG"/>
</glyph>
<glyph name="period" format="2">
	<unicode hex="002E"/>
	<advance width="600"/>
	<outline>
		<contour>
			<point x="298.4823056651" y="9" type="qcurve"/>
			<point x="313.736555092" y="70" type="line" smooth="yes"/>
			<point x="320.081606236" y="95.3731343284"/>
			<point x="291.8038193783" y="125"/>
			<point x="254.4903865424" y="125" type="qcurve" smooth="yes"/>
			<point x="238.0724760947" y="125"/>
			<point x="211.3704761631" y="117.7164179104"/>
			<point x="199.9894112641" y="111" type="qcurve"/>
			<point x="184.7351618373" y="50" type="line" smooth="yes"/>
			<point x="178.3901106932" y="24.6268656716"/>
			<point x="206.667897551" y="-5"/>
			<point x="243.9813303868" y="-5" type="qcurve" smooth="yes"/>
			<point x="260.3992408345" y="-5"/>
			<point x="287.1012407661" y="2.2835820896"/>
		</contour>
	</outline>
	<guideline x="-65.7683212995" y="0" angle="179.1517819709" identifier="qIAA2X0tph"/>
	<guideline x="-15.7683212995" y="0" angle="179.1517819709" identifier="wRddwUnXR1"/>
	<guideline x="34.2316787005" y="0" angle="179.1517819709" identifier="2mAkZzNiPb"/>
	<guideline x="84.2316787005" y="0" angle="179.1517819709" identifier="3HfEGGnRIE"/>
	<guideline x="134.2316787005" y="0" angle="179.1517819709" identifier="qf9BTfROYx"/>
	<guideline x="184.2316787005" y="0" angle="179.1517819709" identifier="1wkMSAqG2U"/>
	<guideline x="234.2316787005" y="0" angle="179.1517819709" identifier="hyYoDucxKd"/>
	<guideline x="284.2316787005" y="0" angle="179.1517819709" identifier="duSWDwhDd1"/>
	<guideline x="334.2316787005" y="0" angle="179.1517819709" identifier="gvfVVIzXm8"/>
	<guideline x="384.2316787005" y="0" angle="179.1517819709" identifier="MY7IRaWAud"/>
	<guideline x="434.2316787005" y="0" angle="179.1517819709" identifier="1xXyeRma3L"/>
	<guideline x="484.2316787005" y="0" angle="179.1517819709" identifier="d4RoQCXtFi"/>
	<guideline x="534.2316787005" y="0" angle="179.1517819709" identifier="Jq4ylf4A3M"/>
	<guideline x="-128.2857369835" y="-250" angle="180" identifier="2wq0WO66IL"/>
	<guideline x="-115.7822538467" y="-200" angle="180" identifier="JnEk1pyqFF"/>
	<guideline x="-103.2787707099" y="-150" angle="180" identifier="J9Kcv8MQUr"/>
	<guideline x="-90.7752875731" y="-100" angle="180" identifier="ID0j52kiSg"/>
	<guideline x="-78.2718044363" y="-50" angle="180" identifier="kXql4zykQF"/>
	<guideline x="-65.7683212995" y="0" angle="180" identifier="FP7oxXQNMX"/>
	<guideline x="-53.2648381627" y="50" angle="180" identifier="kKIMboQJWn"/>
	<guideline x="-40.761355026" y="100" angle="180" identifier="5hanESy4lM"/>
	<guideline x="-28.2578718892" y="150" angle="180" identifier="pcND8CFZQi"/>
	<guideline x="-15.7543887524" y="200" angle="180" identifier="4oa3OiBSQ5"/>
	<guideline x="-3.2509056156" y="250" angle="180" identifier="jA26HsNLFL"/>
	<guideline x="9.2525775212" y="300" angle="180" identifier="p4pDTaPSzK"/>
	<guideline x="21.756060658" y="350" angle="180" identifier="l0g0JqLgF3"/>
	<guideline x="34.2595437948" y="400" angle="180" identifier="Fi7pNq9CP1"/>
	<guideline x="46.7630269316" y="450" angle="180" identifier="FEPYQ9ZcEM"/>
	<guideline x="59.2665100684" y="500" angle="180" identifier="hZ4TbBaNvs"/>
	<guideline x="71.7699932052" y="550" angle="180" identifier="vkHRUXt12E"/>
	<guideline x="84.273476342" y="600" angle="180" identifier="2jADtNsCmg"/>
	<guideline x="96.7769594788" y="650" angle="180" identifier="7MEKmh2HZW"/>
	<guideline x="109.2804426156" y="700" angle="180" identifier="UTyaumLk04"/>
</glyph>
<glyph name="slash" format="2">
	<unicode hex="002F"/>
	<advance width="600"/>
	<outline>
		<contour>
			<point x="642.7839257524" y="750" type="qcurve"/>
			<point x="638.3065217606" y="752.9850746269"/>
			<point x="627.4932989527" y="756"/>
			<point x="619.2843437288" y="756" type="qcurve" smooth="yes"/>
			<point x="609.5828511915" y="756"/>
			<point x="586.0599183068" y="748.1791044776"/>
			<point x="578.7828111486" y="734" type="qcurve" smooth="yes"/>
			<point x="469.6259958272" y="518.328358209"/>
			<point x="211.7547618919" y="117.1044776119"/>
			<point x="64.7273596108" y="-62" type="qcurve" smooth="yes"/>
			<point x="45.5093300998" y="-85.1343283582"/>
			<point x="14.8839010601" y="-118.0746268657"/>
			<point x="-3.0275864434" y="-133" type="qcurve"/>
			<point x="2.9423548618" y="-135.9850746269"/>
			<point x="16.5167716996" y="-139"/>
			<point x="25.4719955802" y="-139" type="qcurve" smooth="yes"/>
			<point x="41.1436373712" y="-139"/>
			<point x="67.0361302421" y="-128.9253731343"/>
			<point x="79.7237371486" y="-114" type="qcurve" smooth="yes"/>
			<point x="238.3188234799" y="72.5671641791"/>
			<point x="521.498321236" y="506.7164179104"/>
		</contour>
	</outline>
</glyph>
<glyph name="eight" format="2">
	<unicode hex="0038"/>
	<advance width="600"/>
	<outline>
		<contour>
			<point x="375" y="315" type="qcurve" smooth="yes"/>
			<point x="299" y="345" type="line" smooth="yes"/>
			<point x="221.3880597015" y="376.3432835821"/>
			<point x="185.3134328358" y="481"/>
			<point x="198" y="531" type="qcurve" smooth="yes"/>
			<point x="200.9850746269" y="544.4328358209"/>
			<point x="207.776119403" y="570.8507462687"/>
			<point x="213" y="591" type="qcurve"/>
			<point x="195.8358208955" y="583.5373134328"/>
			<point x="154.4626865672" y="552.3582089552"/>
			<point x="147" y="524" type="qcurve" smooth="yes"/>
			<point x="132.0746268657" y="462.8059701493"/>
			<point x="188.9402985075" y="341.5671641791"/>
			<point x="277" y="305" type="qcurve" smooth="yes"/>
			<point x="354" y="273" type="line" smooth="yes"/>
			<point x="422.6567164179" y="244.6417910448"/>
			<point x="459.671641791" y="167.447761194"/>
			<point x="444" y="107" type="qcurve" smooth="yes"/>
			<point x="443.2537313433" y="103.2686567164"/>
			<point x="440.7462686567" y="92.7313432836"/>
			<point x="440" y="89" type="qcurve"/>
			<point x="452.6865671642" y="92.7313432836"/>
			<point x="492.2686567164" y="129.8208955224"/>
			<point x="496" y="144" type="qcurve"/>
			<point x="508.6865671642" y="194.7462686567"/>
			<point x="450.3731343284" y="284.4029850746"/>
		</contour>
		<contour>
			<point x="248" y="-20" type="qcurve" smooth="yes"/>
			<point x="356.9552238806" y="-20"/>
			<point x="474.5970149254" y="58.3880597015"/>
			<point x="494" y="136" type="qcurve" smooth="yes"/>
			<point x="496" y="144" type="line" smooth="yes"/>
			<point x="499.7313432836" y="158.9253731343"/>
			<point x="473.6865671642" y="202.5074626866"/>
			<point x="461" y="204" type="qcurve"/>
			<point x="460.2537313433" y="195.7910447761"/>
			<point x="457.9850746269" y="181.6865671642"/>
			<point x="455" y="169" type="qcurve" smooth="yes"/>
			<point x="438.5820895522" y="98.1044776119"/>
			<point x="349.7611940299" y="28"/>
			<point x="252" y="28" type="qcurve" smooth="yes"/>
			<point x="180.3582089552" y="28"/>
			<point x="109.5820895522" y="68.6865671642"/>
			<point x="76" y="106" type="qcurve"/>
			<point x="64.0597014925" y="70.9253731343"/>
			<point x="170.3880597015" y="-20"/>
		</contour>
		<contour>
			<point x="414" y="720" type="qcurve" smooth="yes"/>
			<point x="313.2537313433" y="720"/>
			<point x="167.4029850746" y="624.5223880597"/>
			<point x="148" y="529" type="qcurve" smooth="yes"/>
			<point x="147" y="524" type="line" smooth="yes"/>
			<point x="142.5223880597" y="500.8656716418"/>
			<point x="172.2985074627" y="473.4776119403"/>
			<point x="182" y="469" type="qcurve"/>
			<point x="186.4776119403" y="485.4179104478"/>
			<point x="193.5223880597" y="514.5820895522"/>
			<point x="198" y="531" type="qcurve" smooth="yes"/>
			<point x="218.1492537313" y="612.3432835821"/>
			<point x="343.2985074627" y="670"/>
			<point x="403" y="670" type="qcurve" smooth="yes"/>
			<point x="446.2835820896" y="670"/>
			<point x="532.1044776119" y="633.0895522388"/>
			<point x="553" y="601" type="qcurve"/>
			<point x="581.3582089552" y="636.0746268657"/>
			<point x="456.5373134328" y="720"/>
		</contour>
		<contour>
			<point x="343" y="305" type="qcurve" smooth="yes"/>
			<point x="405.6865671642" y="305"/>
			<point x="564.8656716418" y="416.9552238806"/>
			<point x="588" y="508" type="qcurve" smooth="yes"/>
			<point x="590" y="516" type="line" smooth="yes"/>
			<point x="612.3880597015" y="604.8059701493"/>
			<point x="511.7611940299" y="720"/>
			<point x="414" y="720" type="qcurve" smooth="yes"/>
			<point x="406.5373134328" y="720"/>
			<point x="380.223880597" y="707.4029850746"/>
			<point x="375" y="688" type="qcurve"/>
			<point x="467.5373134328" y="688"/>
			<point x="559.1492537313" y="594.8507462687"/>
			<point x="539" y="515" type="qcurve" smooth="yes"/>
			<point x="537" y="507" type="line" smooth="yes"/>
			<point x="519.0895522388" y="436.1044776119"/>
			<point x="398.0149253731" y="351.3731343284"/>
			<point x="301" y="326" type="qcurve"/>
			<point x="312.9402985075" y="315.552238806"/>
			<point x="330.3134328358" y="305"/>
		</contour>
		<contour>
			<point x="278" y="14" type="qcurve"/>
			<point x="176.5074626866" y="14"/>
			<point x="81.3134328358" y="100.7611940299"/>
			<point x="94" y="153" type="qcurve" smooth="yes"/>
			<point x="96" y="161" type="line" smooth="yes"/>
			<point x="110.1791044776" y="216.9701492537"/>
			<point x="213.4925373134" y="280.3432835821"/>
			<point x="312" y="299" type="qcurve"/>
			<point x="300.8059701493" y="310.1940298507"/>
			<point x="286.4626865672" y="324"/>
			<point x="279" y="324" type="qcurve" smooth="yes"/>
			<point x="204.3731343284" y="324"/>
			<point x="68.1641791045" y="241.1492537313"/>
			<point x="51" y="171" type="qcurve" smooth="yes"/>
			<point x="49" y="163" type="line" smooth="yes"/>
			<point x="32.5820895522" y="98.0746268657"/>
			<point x="120.3880597015" y="-20"/>
			<point x="248" y="-20" type="qcurve" smooth="yes"/>
			<point x="256.9552238806" y="-20"/>
			<point x="273.5223880597" y="-3.1641791045"/>
		</contour>
	</outline>
	<guideline x="-66" y="0" angle="75.96" identifier="YS64FKlIuo"/>
	<guideline x="-16" y="0" angle="75.96" identifier="eTskYqGqOI"/>
	<guideline x="34" y="0" angle="75.96" identifier="Hay0Oe2GA5"/>
	<guideline x="84" y="0" angle="75.96" identifier="4AFSBZ9KTB"/>
	<guideline x="134" y="0" angle="75.96" identifier="hGnIOB6v9y"/>
	<guideline x="184" y="0" angle="75.96" identifier="HfVYea1pce"/>
	<guideline x="234" y="0" angle="75.96" identifier="VwZFVfzENe"/>
	<guideline x="284" y="0" angle="75.96" identifier="9n6gynjXC1"/>
	<guideline x="334" y="0" angle="75.96" identifier="BcSz0at2Md"/>
	<guideline x="384" y="0" angle="75.96" identifier="cWT7ZBMVJl"/>
	<guideline x="434" y="0" angle="75.96" identifier="gCGHjrNCAT"/>
	<guideline x="484" y="0" angle="75.96" identifier="J2KTVWIqAI"/>
	<guideline x="534" y="0" angle="75.96" identifier="QfTbs7kz1T"/>
	<guideline x="-66" y="-250" angle="0" identifier="3xSKdYdFjB"/>
	<guideline x="-66" y="-200" angle="0" identifier="Kihp1ljHdU"/>
	<guideline x="-66" y="-150" angle="0" identifier="BlQgTi3088"/>
	<guideline x="-66" y="-100" angle="0" identifier="uchgZ6j1sE"/>
	<guideline x="-66" y="-50" angle="0" identifier="6CY6TdjdNu"/>
	<guideline x="-66" y="0" angle="0" identifier="pkc9Dxhgj5"/>
	<guideline x="-66" y="50" angle="0" identifier="YQ5RTms11h"/>
	<guideline x="-66" y="100" angle="0" identifier="o5JDFNFOiZ"/>
	<guideline x="-66" y="150" angle="0" identifier="kjaH13BZNv"/>
	<guideline x="-66" y="200" angle="0" identifier="onNivzd7xA"/>
	<guideline x="-66" y="250" angle="0" identifier="DMZFt81Wu3"/>
	<guideline x="-66" y="300" angle="0" identifier="dzsINpT8av"/>
	<guideline x="-66" y="350" angle="0" identifier="mHJVPxrKrq"/>
	<guideline x="-66" y="400" angle="0" identifier="3gnoxC6j7w"/>
	<guideline x="-66" y="450" angle="0" identifier="nzEh4EQlwa"/>
	<guideline x="-66" y="500" angle="0" identifier="UfUfnWBbI8"/>
	<guideline x="-66" y="550" angle="0" identifier="z82zEkY9fi"/>
	<guideline x="-66" y="600" angle="0" identifier="MI6ZxXW7Sq"/>
	<guideline x="-66" y="650" angle="0" identifier="1CAHyTQklx"/>
	<guideline x="-66" y="700" angle="0" identifier="oEhNsVvQ8R"/>
</glyph>
<glyph name="colon" format="2">
	<unicode hex="003A"/>
	<advance width="600"/>
	<outline>
		<contour>
			<point x="400.2606583986" y="416" type="qcurve"/>
			<point x="415.5149078255" y="477" type="line" smooth="yes"/>
			<point x="421.8599589695" y="502.3731343284"/>
			<point x="393.5821721118" y="532"/>
			<point x="356.268739276" y="532" type="qcurve" smooth="yes"/>
			<point x="339.8508288282" y="532"/>
			<point x="313.1488288966" y="524.7164179104"/>
			<point x="301.7677639977" y="518" type="qcurve"/>
			<point x="286.5135145708" y="457" type="line" smooth="yes"/>
			<point x="280.1684634267" y="431.6268656716"/>
			<point x="308.4462502845" y="402"/>
			<point x="345.7596831203" y="402" type="qcurve" smooth="yes"/>
			<point x="362.1775935681" y="402"/>
			<point x="388.8795934996" y="409.2835820896"/>
		</contour>
		<contour>
			<point x="298.4823056651" y="9" type="qcurve"/>
			<point x="313.736555092" y="70" type="line" smooth="yes"/>
			<point x="320.081606236" y="95.3731343284"/>
			<point x="291.8038193783" y="125"/>
			<point x="254.4903865424" y="125" type="qcurve" smooth="yes"/>
			<point x="238.0724760947" y="125"/>
			<point x="211.3704761631" y="117.7164179104"/>
			<point x="199.9894112641" y="111" type="qcurve"/>
			<point x="184.7351618373" y="50" type="line" smooth="yes"/>
			<point x="178.3901106932" y="24.6268656716"/>
			<point x="206.667897551" y="-5"/>
			<point x="243.9813303868" y="-5" type="qcurve" smooth="yes"/>
			<point x="260.3992408345" y="-5"/>
			<point x="287.1012407661" y="2.2835820896"/>
		</contour>
	</outline>
</glyph>
<glyph name="semicolon" format="2">
	<unicode hex="003B"/>
	<advance width="600"/>
	<outline>
		<contour>
			<point x="400.0105887359" y="415" type="qcurve"/>
			<point x="415.2648381627" y="476" type="line" smooth="yes"/>
			<point x="421.6098893068" y="501.3731343284"/>
			<point x="393.332102449" y="531"/>
			<point x="356.0186696132" y="531" type="qcurve" smooth="yes"/>
			<point x="339.6007591655" y="531"/>
			<point x="312.8987592339" y="523.7164179104"/>
			<point x="301.5176943349" y="517" type="qcurve"/>
			<point x="286.263444908" y="456" type="line" smooth="yes"/>
			<point x="279.918393764" y="430.6268656716"/>
			<point x="308.1961806217" y="401"/>
			<point x="345.5096134576" y="401" type="qcurve" smooth="yes"/>
			<point x="361.9275239053" y="401"/>
			<point x="388.6295238369" y="408.2835820896"/>
		</contour>
		<contour>
			<point x="127.7184427806" y="-190" type="qcurve" smooth="yes"/>
			<point x="135.9273980045" y="-190"/>
			<point x="146.1216732345" y="-186.4776119403"/>
			<point x="151.7190000825" y="-182" type="qcurve" smooth="yes"/>
			<point x="198.0128291556" y="-145.5618755986"/>
			<point x="293.3583010724" y="-3.4925373134"/>
			<point x="318.7385056486" y="98" type="qcurve" smooth="yes"/>
			<point x="323.7772227336" y="118.1492537313"/>
			<point x="297.8218977704" y="133"/>
			<point x="282.4909438443" y="133" type="qcurve" smooth="yes"/>
			<point x="271.1960668778" y="133"/>
			<point x="253.7342160938" y="129.3009721394"/>
			<point x="245.4903865424" y="125" type="qcurve"/>
			<point x="217.3108946968" y="12.3134328358"/>
			<point x="155.4539286884" y="-107.5602915993"/>
			<point x="92.4692090707" y="-179" type="qcurve"/>
			<point x="100.6777483977" y="-184.9701492537"/>
			<point x="115.7781442732" y="-190"/>
		</contour>
	</outline>
</glyph>
<glyph name="at" format="2">
	<unicode hex="0040"/>
	<advance width="600"/>
	<outline>
		<contour>
			<point x="553.0172763585" y="511" type="qcurve" smooth="yes"/>
			<point x="544.6225337772" y="522.1940298507"/>
			<point x="500.836182106" y="536"/>
			<point x="464.2690179269" y="536" type="qcurve" smooth="yes"/>
			<point x="439.6421522553" y="536"/>
			<point x="391.2230689782" y="519.1641791045"/>
			<point x="369.7666493939" y="502" type="qcurve" smooth="yes"/>
			<point x="357.6391078897" y="492.2985074627"/>
			<point x="348.3570913602" y="461.2089552239"/>
			<point x="354.5132359198" y="453" type="qcurve"/>
			<point x="383.0593117171" y="471.6567164179"/>
			<point x="429.14260945" y="489"/>
			<point x="454.5157437783" y="489" type="qcurve" smooth="yes"/>
			<point x="487.3515646738" y="489"/>
			<point x="522.5336113303" y="477.671641791"/>
			<point x="538.7638628844" y="462" type="qcurve"/>
			<point x="553.1310421526" y="483.6417910448"/>
			<point x="556.375173391" y="506.5223880597"/>
		</contour>
		<contour>
			<point x="465.4917797972" y="145" type="qcurve"/>
			<point x="424.0708540967" y="101.7164179104"/>
			<point x="340.3403360766" y="60"/>
			<point x="311.2358584646" y="60" type="qcurve" smooth="yes"/>
			<point x="276.1612315989" y="60"/>
			<point x="250.3843791939" y="112.5794316091"/>
			<point x="268.7446359693" y="186" type="qcurve" smooth="yes"/>
			<point x="269.7449146203" y="190" type="line" smooth="yes"/>
			<point x="303.5229810048" y="325.0746268657"/>
			<point x="358.874378736" y="441.552238806"/>
			<point x="418.7666493939" y="502" type="qcurve"/>
			<point x="405.1476103186" y="507.223880597"/>
			<point x="373.4982006259" y="504.9850746269"/>
			<point x="369.7666493939" y="502" type="qcurve" smooth="yes"/>
			<point x="322.1893711853" y="463.9402985075"/>
			<point x="248.104118153" y="311.4029850746"/>
			<point x="218.2450539458" y="192" type="qcurve" smooth="yes"/>
			<point x="216.9947056321" y="187" type="line" smooth="yes"/>
			<point x="195.3648828832" y="100.5048109705"/>
			<point x="235.2846141338" y="10"/>
			<point x="295.7323753278" y="10" type="qcurve" smooth="yes"/>
			<point x="322.5980469696" y="10"/>
			<point x="391.1782132905" y="35.9552238806"/>
			<point x="442.4870427311" y="77" type="qcurve" smooth="yes"/>
			<point x="453.6816964273" y="85.9552238806"/>
			<point x="466.9828614713" y="124.1044776119"/>
		</contour>
		<contour>
			<point x="476.482862967" y="17" type="line"/>
			<point x="474.6187509387" y="39.3880597015"/>
			<point x="478.4678235141" y="68.9253731343"/>
			<point x="487.238923625" y="104" type="qcurve" smooth="yes"/>
			<point x="590.2676246722" y="516" type="line" smooth="yes"/>
			<point x="622.1794995437" y="643.6119402985"/>
			<point x="562.8219358126" y="760"/>
			<point x="470.2846223797" y="760" type="qcurve" smooth="yes"/>
			<point x="455.3592492454" y="760"/>
			<point x="445.8316107789" y="738.1940298507"/>
			<point x="443.0323235095" y="727" type="qcurve"/>
			<point x="536.3150738051" y="715.0597014925"/>
			<point x="566.748882241" y="621.8955223881"/>
			<point x="536.5165797311" y="501" type="qcurve" smooth="yes"/>
			<point x="427.2361371156" y="64" type="line" smooth="yes"/>
			<point x="420.8910859715" y="38.6268656716"/>
			<point x="446.602265952" y="17"/>
			<point x="470.482862967" y="17" type="qcurve"/>
		</contour>
		<contour>
			<point x="44.7451932712" y="194" type="qcurve" smooth="yes"/>
			<point x="43.2447752948" y="188" type="line" smooth="yes"/>
			<point x="16.3716175083" y="80.5373134328"/>
			<point x="11.0243532087" y="-83.7313432836"/>
			<point x="45.7226225448" y="-130" type="qcurve" smooth="yes"/>
			<point x="60.8331591912" y="-150.1492537313"/>
			<point x="93.1133208204" y="-145.6865671642"/>
			<point x="108.9724135566" y="-133" type="qcurve"/>
			<point x="61.4028294412" y="-60.6119402985"/>
			<point x="62.2585314137" y="64.0895522388"/>
			<point x="91.7443573184" y="182" type="qcurve" smooth="yes"/>
			<point x="93.994984283" y="191" type="line" smooth="yes"/>
			<point x="157.8187340261" y="446.223880597"/>
			<point x="358.2587511832" y="710"/>
			<point x="453.7811392429" y="710" type="qcurve" smooth="yes"/>
			<point x="491.0945720788" y="710"/>
			<point x="543.3916779688" y="689.8805970149"/>
			<point x="565.7780740826" y="666" type="qcurve"/>
			<point x="572.4949078899" y="671.9701492537"/>
			<point x="578.723202941" y="681.776119403"/>
			<point x="580.029537" y="687" type="qcurve" smooth="yes"/>
			<point x="585.6281115389" y="709.3880597015"/>
			<point x="514.314473126" y="760"/>
			<point x="470.2846223797" y="760" type="qcurve" smooth="yes"/>
			<point x="332.2249208872" y="760"/>
			<point x="108.9421813169" y="450.7164179104"/>
		</contour>
		<contour>
			<point x="212.7184427806" y="-190" type="qcurve" smooth="yes"/>
			<point x="258.9870994971" y="-190"/>
			<point x="341.5441187463" y="-174.9402985075"/>
			<point x="356.4703236745" y="-163" type="qcurve" smooth="yes"/>
			<point x="365.7992017546" y="-155.5373134328"/>
			<point x="379.0507936001" y="-132.6865671642"/>
			<point x="382.2233191722" y="-120" type="qcurve" smooth="yes"/>
			<point x="384.223876474" y="-112" type="line"/>
			<point x="380.223876474" y="-112" type="line"/>
			<point x="341.7898969366" y="-128.4179104478"/>
			<point x="270.505508007" y="-140"/>
			<point x="227.2219259174" y="-140" type="qcurve" smooth="yes"/>
			<point x="167.5204333801" y="-140"/>
			<point x="79.4670220367" y="-103.2686567164"/>
			<point x="52.9777079245" y="-57" type="qcurve"/>
			<point x="42.9019373423" y="-73.4179104478"/>
			<point x="36.7682304581" y="-118.0597014925"/>
			<point x="45.7226225448" y="-130" type="qcurve"/>
			<point x="69.2279017725" y="-161.3432835821"/>
			<point x="151.5244129299" y="-190"/>
		</contour>
	</outline>
</glyph>
<glyph name="E" format="2">
	<unicode hex="0045"/>
	<advance width="600"/>
	<outline>
		<contour>
			<point x="159" y="700" type="line"/>
			<point x="158.2537313433" y="697.7611940299"/>
			<point x="157" y="692.2388059701"/>
			<point x="157" y="690" type="qcurve" smooth="yes"/>
			<point x="154.0149253731" y="678.8059701493"/>
			<point x="154.5223880597" y="662.9701492537"/>
			<point x="159" y="657" type="qcurve" smooth="yes"/>
			<point x="161.2388059701" y="654.7611940299"/>
			<point x="166.2686567164" y="652"/>
			<point x="170" y="652" type="qcurve" smooth="yes"/>
			<point x="624" y="652" type="line"/>
			<point x="626.2388059701" y="655.7313432836"/>
			<point x="630.2537313433" y="664.5223880597"/>
			<point x="631" y="669" type="qcurve" smooth="yes"/>
			<point x="632.4925373134" y="674.9701492537"/>
			<point x="632.4776119403" y="689.0298507463"/>
			<point x="628" y="695" type="qcurve" smooth="yes"/>
			<point x="626.5074626866" y="697.2388059701"/>
			<point x="620.7313432836" y="700"/>
			<point x="617" y="700" type="qcurve" smooth="yes"/>
		</contour>
		<contour>
			<point x="90" y="25" type="qcurve"/>
			<point x="235" y="604" type="line" smooth="yes"/>
			<point x="243.9552238806" y="640.5671641791"/>
			<point x="230.6119402985" y="677"/>
			<point x="203" y="677" type="qcurve"/>
			<point x="47" y="48" type="line"/>
			<point x="43.2686567164" y="34.5671641791"/>
			<point x="66.1194029851" y="25"/>
		</contour>
		<contour>
			<point x="47" y="48" type="line"/>
			<point x="44" y="36" type="line" smooth="yes"/>
			<point x="41.0149253731" y="22.5671641791"/>
			<point x="52.0597014925" y="0"/>
			<point x="64" y="0" type="qcurve" smooth="yes"/>
			<point x="463" y="0" type="line"/>
			<point x="463.7462686567" y="1.4925373134"/>
			<point x="465.2537313433" y="5.0149253731"/>
			<point x="466" y="8" type="qcurve"/>
			<point x="471.223880597" y="28.1492537313"/>
			<point x="464.1940298507" y="48"/>
			<point x="453" y="48" type="qcurve"/>
		</contour>
		<contour>
			<point x="142" y="350" type="line"/>
			<point x="135.2835820896" y="323.8805970149"/>
			<point x="139.5671641791" y="302"/>
			<point x="153" y="302" type="qcurve" smooth="yes"/>
			<point x="460" y="302" type="line"/>
			<point x="460" y="304.2388059701"/>
			<point x="461.2537313433" y="309.7611940299"/>
			<point x="462" y="312" type="qcurve" smooth="yes"/>
			<point x="464.9850746269" y="323.1940298507"/>
			<point x="463.4776119403" y="339.0298507463"/>
			<point x="459" y="345" type="qcurve" smooth="yes"/>
			<point x="457.5074626866" y="347.2388059701"/>
			<point x="452.7313432836" y="350"/>
			<point x="449" y="350" type="qcurve" smooth="yes"/>
		</contour>
	</outline>
	<anchor name="top" x="411.7995302052" y="711"/>
	<anchor name="ogonek" x="463.7499303373" y="-1"/>
	<anchor name="bottom" x="258.7499303373" y="-1"/>
	<guideline x="0" y="0" angle="90" identifier="boeZ9yYgNN"/>
	<guideline x="50" y="0" angle="90" identifier="hi7hOifDj1"/>
	<guideline x="100" y="0" angle="90" identifier="hQopaEv1Eo"/>
	<guideline x="150" y="0" angle="90" identifier="mhN6EmDIj0"/>
	<guideline x="200" y="0" angle="90" identifier="4sBelNdB9V"/>
	<guideline x="250" y="0" angle="90" identifier="DGaWYASlvh"/>
	<guideline x="300" y="0" angle="90" identifier="sRxu60f3Nu"/>
	<guideline x="350" y="0" angle="90" identifier="G8ne9UbxQO"/>
	<guideline x="400" y="0" angle="90" identifier="bQZkmEGxch"/>
	<guideline x="450" y="0" angle="90" identifier="yL1pTme2Fv"/>
	<guideline x="500" y="0" angle="90" identifier="berv8xKDMZ"/>
	<guideline x="550" y="0" angle="90" identifier="cn2neKfSFj"/>
	<guideline x="600" y="0" angle="90" identifier="klaqrEu4MJ"/>
	<guideline x="0" y="-250" angle="0" identifier="QydQb8HN5B"/>
	<guideline x="0" y="-200" angle="0" identifier="2AFcGhsMMa"/>
	<guideline x="0" y="-150" angle="0" identifier="FyoT8XaIQe"/>
	<guideline x="0" y="-100" angle="0" identifier="9x4sLXp6xZ"/>
	<guideline x="0" y="-50" angle="0" identifier="8so5v4y1mM"/>
	<guideline x="0" y="0" angle="0" identifier="sEDXDKtK0d"/>
	<guideline x="0" y="50" angle="0" identifier="KGrriJvDCR"/>
	<guideline x="0" y="100" angle="0" identifier="zJwlxjucis"/>
	<guideline x="0" y="150" angle="0" identifier="dFzUVYSiy1"/>
	<guideline x="0" y="200" angle="0" identifier="tjFvti9TzN"/>
	<guideline x="0" y="250" angle="0" identifier="SymEYvmY6V"/>
	<guideline x="0" y="300" angle="0" identifier="SGJ7OTKa44"/>
	<guideline x="0" y="350" angle="0" identifier="5w3xPFzF4D"/>
	<guideline x="0" y="400" angle="0" identifier="4cupu4c1ZT"/>
	<guideline x="0" y="450" angle="0" identifier="9ZbYi2lpFL"/>
	<guideline x="0" y="500" angle="0" identifier="1fAlkZOCWj"/>
	<guideline x="0" y="550" angle="0" identifier="f7zpN5fl1g"/>
	<guideline x="0" y="600" angle="0" identifier="UgpgnGdlAK"/>
	<guideline x="0" y="650" angle="0" identifier="2Va7qe5Uli"/>
	<guideline x="0" y="700" angle="0" identifier="d76Gu1wEwB"/>
</glyph>
<glyph name="G" format="2">
	<unicode hex="0047"/>
	<advance width="600"/>
	<outline>
		<contour>
			<point x="465" y="672" type="qcurve" smooth="yes"/>
			<point x="531.4179104478" y="672"/>
			<point x="573.9402985075" y="618.7611940299"/>
			<point x="562" y="571" type="qcurve"/>
			<point x="576.1791044776" y="571"/>
			<point x="589.7611940299" y="581.7910447761"/>
			<point x="592" y="590" type="qcurve" smooth="yes"/>
			<point x="599.4626865672" y="620.5970149254"/>
			<point x="592.9402985075" y="663.5820895522"/>
			<point x="581" y="680" type="qcurve" smooth="yes"/>
			<point x="565.328358209" y="700.1492537313"/>
			<point x="517.2835820896" y="720"/>
			<point x="474" y="720" type="qcurve" smooth="yes"/>
			<point x="347.1343283582" y="720"/>
			<point x="132.4776119403" y="500.4626865672"/>
			<point x="78" y="293" type="qcurve" smooth="yes"/>
			<point x="73" y="274" type="line" smooth="yes"/>
			<point x="62.552238806" y="234.447761194"/>
			<point x="81.6119402985" y="133.4328358209"/>
			<point x="104" y="120" type="qcurve"/>
			<point x="101.7611940299" y="153.5820895522"/>
			<point x="113.552238806" y="227.9552238806"/>
			<point x="124" y="269" type="qcurve" smooth="yes"/>
			<point x="128" y="285" type="line" smooth="yes"/>
			<point x="173.5223880597" y="467.0895522388"/>
			<point x="361.2686567164" y="672"/>
		</contour>
		<contour>
			<point x="257" y="28" type="qcurve" smooth="yes"/>
			<point x="163.7164179104" y="28"/>
			<point x="85.6865671642" y="162.447761194"/>
			<point x="123" y="302" type="qcurve"/>
			<point x="105.0895522388" y="302"/>
			<point x="77.4776119403" y="291.1641791045"/>
			<point x="73" y="274" type="qcurve" smooth="yes"/>
			<point x="37.9253731343" y="135.9402985075"/>
			<point x="134.5970149254" y="-20"/>
			<point x="254" y="-20" type="qcurve" smooth="yes"/>
			<point x="345.0447761194" y="-20"/>
			<point x="482.3731343284" y="86.2388059701"/>
			<point x="507" y="184" type="qcurve" smooth="yes"/>
			<point x="509" y="192" type="line" smooth="yes"/>
			<point x="519.447761194" y="233.0447761194"/>
			<point x="503.0895522388" y="277"/>
			<point x="471" y="277" type="qcurve"/>
			<point x="471.7462686567" y="260.5820895522"/>
			<point x="465.9701492537" y="219.8805970149"/>
			<point x="460" y="196" type="qcurve" smooth="yes"/>
			<point x="441.3432835821" y="122.1194029851"/>
			<point x="332.3731343284" y="28"/>
		</contour>
		<contour>
			<point x="296" y="298" type="line"/>
			<point x="293.7611940299" y="295.7611940299"/>
			<point x="289.7462686567" y="287.4776119403"/>
			<point x="289" y="283" type="qcurve" smooth="yes"/>
			<point x="286.7611940299" y="274.7910447761"/>
			<point x="288.2686567164" y="261.223880597"/>
			<point x="292" y="256" type="qcurve" smooth="yes"/>
			<point x="294.2388059701" y="253.0149253731"/>
			<point x="302.2686567164" y="250"/>
			<point x="306" y="250" type="qcurve" smooth="yes"/>
			<point x="561" y="250" type="line"/>
			<point x="563" y="260" type="line" smooth="yes"/>
			<point x="567.4776119403" y="279.4029850746"/>
			<point x="561.1940298507" y="298"/>
			<point x="550" y="298" type="qcurve" smooth="yes"/>
		</contour>
		<contour>
			<point x="564" y="479" type="qcurve"/>
			<point x="592" y="590" type="line" smooth="yes"/>
			<point x="602.447761194" y="631.7910447761"/>
			<point x="566.0895522388" y="688.447761194"/>
			<point x="534" y="678" type="qcurve"/>
			<point x="545.9402985075" y="649.6417910448"/>
			<point x="547.4776119403" y="612.1641791045"/>
			<point x="543" y="595" type="qcurve" smooth="yes"/>
			<point x="520" y="504" type="line" smooth="yes"/>
			<point x="516.2686567164" y="489.8208955224"/>
			<point x="529.5970149254" y="477"/>
			<point x="549" y="477" type="qcurve" smooth="yes"/>
			<point x="552.7313432836" y="477"/>
			<point x="561.0149253731" y="478.2537313433"/>
		</contour>
	</outline>
	<anchor name="top" x="428.7995302052" y="711"/>
	<anchor name="bottom" x="250.7499303373" y="-1"/>
</glyph>
<glyph name="J" format="2">
	<unicode hex="004A"/>
	<advance width="600"/>
	<outline>
		<contour>
			<point x="259" y="700" type="line"/>
			<point x="258.2537313433" y="697.7611940299"/>
			<point x="257" y="692.2388059701"/>
			<point x="257" y="690" type="qcurve" smooth="yes"/>
			<point x="254.0149253731" y="678.8059701493"/>
			<point x="254.5223880597" y="662.9701492537"/>
			<point x="259" y="657" type="qcurve" smooth="yes"/>
			<point x="261.2388059701" y="654.7611940299"/>
			<point x="266.2686567164" y="652"/>
			<point x="270" y="652" type="qcurve"/>
			<point x="568" y="652" type="line"/>
			<point x="574.7164179104" y="678.1194029851"/>
			<point x="570.4328358209" y="700"/>
			<point x="557" y="700" type="qcurve"/>
		</contour>
		<contour>
			<point x="484" y="217" type="qcurve" smooth="yes"/>
			<point x="598" y="677" type="line" smooth="yes"/>
			<point x="600.9850746269" y="688.1940298507"/>
			<point x="584.1492537313" y="700"/>
			<point x="564" y="700" type="qcurve"/>
			<point x="554" y="700" type="line"/>
			<point x="437" y="230" type="line" smooth="yes"/>
			<point x="416.8507462687" y="150.1492537313"/>
			<point x="364.1791044776" y="74.0298507463"/>
			<point x="300" y="30" type="qcurve"/>
			<point x="334.328358209" y="17.3134328358"/>
			<point x="455.6417910448" y="105.0597014925"/>
		</contour>
		<contour>
			<point x="221" y="28" type="qcurve" smooth="yes"/>
			<point x="163.5373134328" y="28"/>
			<point x="94.8358208955" y="56.8656716418"/>
			<point x="62" y="80" type="qcurve"/>
			<point x="58" y="80" type="line"/>
			<point x="55.0149253731" y="76.2686567164"/>
			<point x="51.4925373134" y="68.223880597"/>
			<point x="50" y="63" type="qcurve"/>
			<point x="47.0149253731" y="51.8059701493"/>
			<point x="48.5223880597" y="31.9701492537"/>
			<point x="53" y="26" type="qcurve" smooth="yes"/>
			<point x="70.1641791045" y="3.6119402985"/>
			<point x="158.2686567164" y="-20"/>
			<point x="212" y="-20" type="qcurve" smooth="yes"/>
			<point x="219" y="-20" type="line" smooth="yes"/>
			<point x="330.1940298507" y="-20"/>
			<point x="452.6567164179" y="92.3731343284"/>
			<point x="484" y="217" type="qcurve" smooth="yes"/>
			<point x="485.4925373134" y="225.9552238806"/>
			<point x="477.4029850746" y="250"/>
			<point x="458" y="250" type="qcurve"/>
			<point x="428.8955223881" y="136.5671641791"/>
			<point x="307.5671641791" y="28"/>
		</contour>
	</outline>
	<anchor name="top" x="408.7995302052" y="711"/>
</glyph>
<glyph name="M" format="2">
	<unicode hex="004D"/>
	<advance width="600"/>
	<outline>
		<contour>
			<point x="61" y="-10" type="qcurve"/>
			<point x="74.4328358209" y="41.4925373134"/>
			<point x="100.3134328358" y="145.5074626866"/>
			<point x="113" y="197" type="qcurve" smooth="yes"/>
			<point x="145.8358208955" y="326.1044776119"/>
			<point x="216.8507462687" y="611.6567164179"/>
			<point x="237" y="693" type="qcurve" smooth="yes"/>
			<point x="238.4925373134" y="696.7313432836"/>
			<point x="237.2388059701" y="702.7611940299"/>
			<point x="235" y="705" type="qcurve" smooth="yes"/>
			<point x="233.5074626866" y="707.2388059701"/>
			<point x="230.4776119403" y="710"/>
			<point x="226" y="710" type="qcurve"/>
			<point x="217.7910447761" y="710"/>
			<point x="195.6865671642" y="707.9850746269"/>
			<point x="183" y="705" type="qcurve"/>
			<point x="180.7611940299" y="678.8805970149"/>
			<point x="170.7164179104" y="626.8656716418"/>
			<point x="164" y="600" type="qcurve" smooth="yes"/>
			<point x="17" y="13" type="line" smooth="yes"/>
			<point x="16.2537313433" y="9.2686567164"/>
			<point x="17.5074626866" y="3.2388059701"/>
			<point x="19" y="1" type="qcurve" smooth="yes"/>
			<point x="23.4776119403" y="-4.9701492537"/>
			<point x="39.0597014925" y="-10"/>
			<point x="51" y="-10" type="qcurve" smooth="yes"/>
			<point x="53.2388059701" y="-10"/>
			<point x="58.7611940299" y="-10"/>
		</contour>
		<contour>
			<point x="461" y="-7" type="qcurve"/>
			<point x="463.2388059701" y="19.1194029851"/>
			<point x="472.2835820896" y="72.3880597015"/>
			<point x="479" y="100" type="qcurve" smooth="yes"/>
			<point x="626" y="687" type="line"/>
			<point x="626.7462686567" y="690.7313432836"/>
			<point x="626.2388059701" y="696.7611940299"/>
			<point x="624" y="699" type="qcurve" smooth="yes"/>
			<point x="618.776119403" y="704.223880597"/>
			<point x="591.1343283582" y="710"/>
			<point x="568" y="710" type="qcurve" smooth="yes"/>
			<point x="565" y="710" type="line"/>
			<point x="574.7014925373" y="704.0298507463"/>
			<point x="576.4776119403" y="688.6567164179"/>
			<point x="572" y="670" type="qcurve" smooth="yes"/>
			<point x="547.3731343284" y="573.7313432836"/>
			<point x="467.9104477612" y="255.1492537313"/>
			<point x="450" y="185" type="qcurve" smooth="yes"/>
			<point x="441.0447761194" y="146.9402985075"/>
			<point x="421.7014925373" y="71.0597014925"/>
			<point x="412" y="33" type="qcurve" smooth="yes"/>
			<point x="409.0149253731" y="20.3134328358"/>
			<point x="409.0149253731" y="5.4776119403"/>
			<point x="412" y="1" type="qcurve" smooth="yes"/>
			<point x="416.4776119403" y="-4.9701492537"/>
			<point x="429.0597014925" y="-10"/>
			<point x="441" y="-10" type="qcurve" smooth="yes"/>
			<point x="445.4776119403" y="-10"/>
			<point x="456.5223880597" y="-8.4925373134"/>
		</contour>
		<contour>
			<point x="226" y="710" type="line"/>
			<point x="205.8507462687" y="518.2089552239"/>
			<point x="228.4328358209" y="248.5074626866"/>
			<point x="265" y="200" type="qcurve" smooth="yes"/>
			<point x="267.2388059701" y="197.0149253731"/>
			<point x="277.2686567164" y="193"/>
			<point x="281" y="193" type="qcurve"/>
			<point x="287.7164179104" y="193"/>
			<point x="300.7462686567" y="220.0746268657"/>
			<point x="300" y="235" type="qcurve"/>
			<point x="266.4179104478" y="299.9253731343"/>
			<point x="256.3134328358" y="561.8656716418"/>
			<point x="269" y="685" type="qcurve"/>
			<point x="269.7462686567" y="696.9402985075"/>
			<point x="248.4029850746" y="710"/>
			<point x="229" y="710" type="qcurve"/>
		</contour>
		<contour>
			<point x="585.2089552239" y="694.6268656716"/>
			<point x="582.1641791045" y="710"/>
			<point x="565" y="710" type="qcurve"/>
			<point x="559.776119403" y="710"/>
			<point x="548.4776119403" y="708.4925373134"/>
			<point x="544" y="707" type="qcurve"/>
			<point x="487.2835820896" y="548.0447761194"/>
			<point x="344.6567164179" y="310.4029850746"/>
			<point x="276" y="241" type="qcurve" smooth="yes"/>
			<point x="273.0149253731" y="238.0149253731"/>
			<point x="276.5223880597" y="193"/>
			<point x="281" y="193" type="qcurve"/>
			<point x="290" y="193" type="line"/>
			<point x="361.6417910448" y="251.9552238806"/>
			<point x="533.7164179104" y="531.9402985075"/>
			<point x="577" y="670" type="qcurve" smooth="yes"/>
		</contour>
	</outline>
	<guideline x="0" y="0" angle="75.96" identifier="IMjXAm5v1n"/>
	<guideline x="50" y="0" angle="75.96" identifier="FuhTVMEf4j"/>
	<guideline x="100" y="0" angle="75.96" identifier="U4SY04vIfe"/>
	<guideline x="150" y="0" angle="75.96" identifier="JUiFSKZHNS"/>
	<guideline x="200" y="0" angle="75.96" identifier="cYq0LwSijn"/>
	<guideline x="250" y="0" angle="75.96" identifier="9fk6GrDrZN"/>
	<guideline x="300" y="0" angle="75.96" identifier="HXF8xT4RhW"/>
	<guideline x="350" y="0" angle="75.96" identifier="qCmkWtPtwe"/>
	<guideline x="400" y="0" angle="75.96" identifier="e9QjpD3baB"/>
	<guideline x="450" y="0" angle="75.96" identifier="rldIgmgZ8H"/>
	<guideline x="500" y="0" angle="75.96" identifier="PbDqnHPkYj"/>
	<guideline x="550" y="0" angle="75.96" identifier="xYsxBz0ih7"/>
	<guideline x="600" y="0" angle="75.96" identifier="qeN6Y9s3YI"/>
	<guideline x="0" y="-250" angle="0" identifier="PaK3XIHyNv"/>
	<guideline x="0" y="-200" angle="0" identifier="QUiC7Lbaod"/>
	<guideline x="0" y="-150" angle="0" identifier="VUpdqNDUcK"/>
	<guideline x="0" y="-100" angle="0" identifier="F48qCiSonT"/>
	<guideline x="0" y="-50" angle="0" identifier="0SSU4nlJnS"/>
	<guideline x="0" y="0" angle="0" identifier="jF3oKu5Xc0"/>
	<guideline x="0" y="50" angle="0" identifier="eMgZ7hq0Yn"/>
	<guideline x="0" y="100" angle="0" identifier="VUpf81IMJA"/>
	<guideline x="0" y="150" angle="0" identifier="zqI7xwTR1x"/>
	<guideline x="0" y="200" angle="0" identifier="NcwvVzYVvi"/>
	<guideline x="0" y="250" angle="0" identifier="vBHB9YJ2KA"/>
	<guideline x="0" y="300" angle="0" identifier="YuwYWH4QX8"/>
	<guideline x="0" y="350" angle="0" identifier="bPL2xF3K7D"/>
	<guideline x="0" y="400" angle="0" identifier="ujVQqD9CbF"/>
	<guideline x="0" y="450" angle="0" identifier="xXsSlCKsrr"/>
	<guideline x="0" y="500" angle="0" identifier="o0OEZ8iojb"/>
	<guideline x="0" y="550" angle="0" identifier="PCGdO39mhY"/>
	<guideline x="0" y="600" angle="0" identifier="bZGcmt70b8"/>
	<guideline x="0" y="650" angle="0" identifier="odgV7rzAsF"/>
	<guideline x="0" y="700" angle="0" identifier="zYcCn9Tjl9"/>
</glyph>
<glyph name="N" format="2">
	<unicode hex="004E"/>
	<advance width="600"/>
	<outline>
		<contour>
			<point x="62" y="-8" type="qcurve"/>
			<point x="184" y="478" type="line" smooth="yes"/>
			<point x="201.1641791045" y="548.1492537313"/>
			<point x="231.7313432836" y="701.776119403"/>
			<point x="228" y="707" type="qcurve" smooth="yes"/>
			<point x="226.5074626866" y="708.4925373134"/>
			<point x="225.4925373134" y="710"/>
			<point x="224" y="710" type="qcurve" smooth="yes"/>
			<point x="215.7910447761" y="710"/>
			<point x="197.4328358209" y="709.2388059701"/>
			<point x="184" y="707" type="qcurve"/>
			<point x="181.7611940299" y="680.8805970149"/>
			<point x="168.4776119403" y="616.4179104478"/>
			<point x="164" y="600" type="qcurve" smooth="yes"/>
			<point x="17" y="13" type="line"/>
			<point x="14.0149253731" y="-0.4328358209"/>
			<point x="33.0597014925" y="-10"/>
			<point x="45" y="-10" type="qcurve" smooth="yes"/>
			<point x="49.4776119403" y="-10"/>
			<point x="59.0149253731" y="-8.7462686567"/>
		</contour>
		<contour>
			<point x="451" y="-10" type="line"/>
			<point x="626" y="687" type="line" smooth="yes"/>
			<point x="628.9850746269" y="700.4328358209"/>
			<point x="608.4179104478" y="710"/>
			<point x="592" y="710" type="qcurve"/>
			<point x="582" y="710" type="line"/>
			<point x="420" y="63" type="line"/>
			<point x="417.0149253731" y="51.0597014925"/>
			<point x="416.0149253731" y="0.7313432836"/>
			<point x="419" y="-3" type="qcurve" smooth="yes"/>
			<point x="421.9850746269" y="-6.7313432836"/>
			<point x="427.2835820896" y="-10"/>
			<point x="434" y="-10" type="qcurve"/>
		</contour>
		<contour>
			<point x="224" y="710" type="line"/>
			<point x="221.7611940299" y="696.5671641791"/>
			<point x="220.7462686567" y="669.4328358209"/>
			<point x="220" y="656" type="qcurve" smooth="yes"/>
			<point x="209.552238806" y="434.3582089552"/>
			<point x="346.8059701493" y="79.0895522388"/>
			<point x="408" y="-3" type="qcurve" smooth="yes"/>
			<point x="410.9850746269" y="-6.7313432836"/>
			<point x="422.0597014925" y="-10"/>
			<point x="434" y="-10" type="qcurve"/>
			<point x="436.9850746269" y="-10"/>
			<point x="437.0149253731" y="-10"/>
			<point x="440" y="-10" type="qcurve" smooth="yes"/>
			<point x="441.4925373134" y="-10"/>
			<point x="444.7611940299" y="8.552238806"/>
			<point x="447" y="19" type="qcurve"/>
			<point x="348.4925373134" y="183.9253731343"/>
			<point x="261.2686567164" y="484.4776119403"/>
			<point x="265" y="680" type="qcurve"/>
			<point x="265" y="690.447761194"/>
			<point x="246.4029850746" y="710"/>
			<point x="227" y="710" type="qcurve"/>
		</contour>
	</outline>
	<anchor name="top" x="411.7995302052" y="711"/>
	<anchor name="bottom" x="229.7499303373" y="-1"/>
</glyph>
<glyph name="Q" format="2">
	<unicode hex="0051"/>
	<advance width="600"/>
	<outline>
		<contour>
			<point x="407" y="720" type="qcurve" smooth="yes"/>
			<point x="291.328358209" y="720"/>
			<point x="129.776119403" y="518.8656716418"/>
			<point x="85" y="342" type="qcurve" smooth="yes"/>
			<point x="77" y="309" type="line" smooth="yes"/>
			<point x="38.9402985075" y="158.2537313433"/>
			<point x="129.1044776119" y="-20"/>
			<point x="250" y="-20" type="qcurve" smooth="yes"/>
			<point x="258.2089552239" y="-20"/>
			<point x="272.0149253731" y="-4.6865671642"/>
			<point x="275" y="8" type="qcurve"/>
			<point x="163.0597014925" y="13.223880597"/>
			<point x="93.671641791" y="176.4328358209"/>
			<point x="128" y="313" type="qcurve" smooth="yes"/>
			<point x="134" y="337" type="line" smooth="yes"/>
			<point x="172.8059701493" y="492.9701492537"/>
			<point x="307.2388059701" y="672"/>
			<point x="405" y="672" type="qcurve" smooth="yes"/>
			<point x="432.6119402985" y="672"/>
			<point x="484.6417910448" y="658.1791044776"/>
			<point x="513" y="644" type="qcurve"/>
			<point x="526.4328358209" y="667.8805970149"/>
			<point x="462.223880597" y="720"/>
		</contour>
		<contour>
			<point x="250" y="-20" type="qcurve" smooth="yes"/>
			<point x="365.671641791" y="-20"/>
			<point x="512.1940298507" y="155.776119403"/>
			<point x="551" y="311" type="qcurve" smooth="yes"/>
			<point x="559" y="343" type="line" smooth="yes"/>
			<point x="600.7910447761" y="508.671641791"/>
			<point x="527.8955223881" y="720"/>
			<point x="407" y="720" type="qcurve" smooth="yes"/>
			<point x="398.7910447761" y="720"/>
			<point x="382.9850746269" y="704.6865671642"/>
			<point x="380" y="692" type="qcurve"/>
			<point x="490.447761194" y="686.776119403"/>
			<point x="545.0597014925" y="488.2388059701"/>
			<point x="507" y="336" type="qcurve" smooth="yes"/>
			<point x="501" y="312" type="line" smooth="yes"/>
			<point x="467.4179104478" y="177.671641791"/>
			<point x="343.7611940299" y="28"/>
			<point x="246" y="28" type="qcurve" smooth="yes"/>
			<point x="218.3880597015" y="28"/>
			<point x="168.8656716418" y="41.0746268657"/>
			<point x="142" y="56" type="qcurve"/>
			<point x="118.1194029851" y="36.5970149254"/>
			<point x="191.0447761194" y="-20"/>
		</contour>
		<contour>
			<point x="337" y="35" type="line"/>
			<point x="317.5970149254" y="23.0597014925"/>
			<point x="293.7611940299" y="-1.776119403"/>
			<point x="296" y="-7" type="qcurve" smooth="yes"/>
			<point x="330" y="-78" type="line" smooth="yes"/>
			<point x="350.1492537313" y="-119.0447761194"/>
			<point x="391.6417910448" y="-154"/>
			<point x="420" y="-154" type="qcurve" smooth="yes"/>
			<point x="423" y="-154" type="line" smooth="yes"/>
			<point x="450.6119402985" y="-154"/>
			<point x="482.776119403" y="-128.8955223881"/>
			<point x="488" y="-108" type="qcurve" smooth="yes"/>
			<point x="490.2388059701" y="-99.7910447761"/>
			<point x="492" y="-84.7164179104"/>
			<point x="492" y="-78" type="qcurve"/>
			<point x="488" y="-78" type="line"/>
			<point x="479.0447761194" y="-86.2089552239"/>
			<point x="453.9402985075" y="-96"/>
			<point x="442" y="-96" type="qcurve" smooth="yes"/>
			<point x="424.8358208955" y="-96"/>
			<point x="392.9402985075" y="-77.8805970149"/>
			<point x="381" y="-54" type="qcurve" smooth="yes"/>
		</contour>
	</outline>
</glyph>
<glyph name="W" format="2">
	<unicode hex="0057"/>
	<advance width="600"/>
	<outline>
		<contour>
			<point x="157" y="710" type="qcurve"/>
			<point x="64.4626865672" y="378.6567164179"/>
			<point x="44.2537313433" y="85.1044776119"/>
			<point x="95" y="6" type="qcurve" smooth="yes"/>
			<point x="100.9701492537" y="-2.2089552239"/>
			<point x="113.5373134328" y="-10"/>
			<point x="121" y="-10" type="qcurve"/>
			<point x="130" y="-10" type="line" smooth="yes"/>
			<point x="135.223880597" y="-10"/>
			<point x="138.2537313433" y="16.5223880597"/>
			<point x="139" y="21" type="qcurve"/>
			<point x="91.9850746269" y="107.5671641791"/>
			<point x="110.9402985075" y="339.0149253731"/>
			<point x="199" y="692" type="qcurve" smooth="yes"/>
			<point x="199.7462686567" y="694.9850746269"/>
			<point x="199.2388059701" y="699.7611940299"/>
			<point x="197" y="702" type="qcurve" smooth="yes"/>
			<point x="194.0149253731" y="704.9850746269"/>
			<point x="177.447761194" y="710"/>
			<point x="167" y="710" type="qcurve" smooth="yes"/>
			<point x="164.7611940299" y="710"/>
			<point x="159.2388059701" y="710"/>
		</contour>
		<contour>
			<point x="616" y="710" type="qcurve"/>
			<point x="542.8656716418" y="365.223880597"/>
			<point x="429.8208955224" y="123.0298507463"/>
			<point x="344" y="29" type="qcurve"/>
			<point x="338.776119403" y="2.8805970149"/>
			<point x="341.5074626866" y="-10"/>
			<point x="343" y="-10" type="qcurve" smooth="yes"/>
			<point x="373" y="-10" type="line"/>
			<point x="479.7164179104" y="107.1641791045"/>
			<point x="588.3731343284" y="361.6268656716"/>
			<point x="663" y="687" type="qcurve" smooth="yes"/>
			<point x="664.4925373134" y="693.7164179104"/>
			<point x="664.2388059701" y="700.7611940299"/>
			<point x="662" y="703" type="qcurve" smooth="yes"/>
			<point x="659.0149253731" y="705.9850746269"/>
			<point x="643.9104477612" y="710"/>
			<point x="626" y="710" type="qcurve" smooth="yes"/>
			<point x="623.7611940299" y="710"/>
			<point x="618.2388059701" y="710"/>
		</contour>
		<contour>
			<point x="401.4776119403" y="585.1641791045"/>
			<point x="390.1641791045" y="600"/>
			<point x="373" y="600" type="qcurve" smooth="yes"/>
			<point x="357" y="600" type="line"/>
			<point x="304.7611940299" y="391.0447761194"/>
			<point x="206.5223880597" y="129.1791044776"/>
			<point x="111" y="15" type="qcurve"/>
			<point x="109.5074626866" y="9.0298507463"/>
			<point x="115.776119403" y="-10"/>
			<point x="121" y="-10" type="qcurve" smooth="yes"/>
			<point x="142" y="-10" type="line"/>
			<point x="247.223880597" y="98.2089552239"/>
			<point x="357.447761194" y="408.2985074627"/>
			<point x="397" y="568" type="qcurve" smooth="yes"/>
		</contour>
		<contour>
			<point x="409.2388059701" y="586.9552238806"/>
			<point x="395.3880597015" y="600"/>
			<point x="373" y="600" type="qcurve" smooth="yes"/>
			<point x="364" y="600" type="line"/>
			<point x="296.8358208955" y="345.5223880597"/>
			<point x="282.9253731343" y="64.671641791"/>
			<point x="318" y="-1" type="qcurve" smooth="yes"/>
			<point x="320.2388059701" y="-5.4776119403"/>
			<point x="328.776119403" y="-10"/>
			<point x="334" y="-10" type="qcurve" smooth="yes"/>
			<point x="354" y="-10" type="line" smooth="yes"/>
			<point x="356.9850746269" y="-10"/>
			<point x="361.2686567164" y="8.5671641791"/>
			<point x="365" y="22" type="qcurve"/>
			<point x="320.9701492537" y="78.7164179104"/>
			<point x="357.7462686567" y="380.9850746269"/>
			<point x="407" y="578" type="qcurve" smooth="yes"/>
		</contour>
	</outline>
	<anchor name="top" x="410.7995302052" y="711"/>
</glyph>
<glyph name="bracketleft" format="2">
	<unicode hex="005B"/>
	<advance width="600"/>
	<outline>
		<contour>
			<point x="300.7769594788" y="650" type="qcurve" smooth="yes"/>
			<point x="110.4739461368" y="-111" type="line" smooth="yes"/>
			<point x="108.6077546238" y="-118.4626865672"/>
			<point x="139.0664634288" y="-122"/>
			<point x="157.7231798467" y="-122" type="qcurve"/>
			<point x="368.2818358703" y="720" type="line" smooth="yes"/>
			<point x="371.8275997449" y="734.1791044776"/>
			<point x="366.9413387977" y="760"/>
			<point x="348.2846223797" y="760" type="qcurve" smooth="yes"/>
			<point x="340.8219358126" y="760"/>
			<point x="327.5606190931" y="758.2388059701"/>
			<point x="320.2843437288" y="756" type="qcurve"/>
			<point x="318.2302853738" y="729.8805970149"/>
			<point x="307.6818680767" y="677.6119402985"/>
		</contour>
		<contour>
			<point x="618.7811392429" y="710" type="line"/>
			<point x="621.2067723129" y="713.7313432836"/>
			<point x="624.9126086017" y="722.5223880597"/>
			<point x="626.0323235095" y="727" type="qcurve" smooth="yes"/>
			<point x="627.7118958711" y="733.7164179104"/>
			<point x="627.5114701094" y="749.0298507463"/>
			<point x="623.0342740661" y="755" type="qcurve" smooth="yes"/>
			<point x="621.3553255498" y="757.2388059701"/>
			<point x="616.0159656633" y="760"/>
			<point x="612.2846223797" y="760" type="qcurve" smooth="yes"/>
			<point x="348.2846223797" y="760" type="line"/>
			<point x="343.6191435974" y="741.3432835821"/>
			<point x="355.4975571534" y="710"/>
			<point x="398.7811392429" y="710" type="qcurve" smooth="yes"/>
		</contour>
		<contour>
			<point x="403.970463" y="-161" type="line"/>
			<point x="404.5303204539" y="-158.7611940299"/>
			<point x="405.9113021735" y="-153.2388059701"/>
			<point x="406.4711596273" y="-151" type="qcurve" smooth="yes"/>
			<point x="411.5098767123" y="-130.8507462687"/>
			<point x="404.6679759875" y="-111"/>
			<point x="393.4739461368" y="-111" type="qcurve"/>
			<point x="110.4739461368" y="-111" type="line"/>
			<point x="107.9732495094" y="-121" type="line" smooth="yes"/>
			<point x="104.4274856348" y="-135.1791044776"/>
			<point x="116.0301644925" y="-161"/>
			<point x="127.970463" y="-161" type="qcurve" smooth="yes"/>
		</contour>
	</outline>
	<guideline x="-65.7683212995" y="0" angle="179.1517819709" identifier="8BDbRh1XPP"/>
	<guideline x="-15.7683212995" y="0" angle="179.1517819709" identifier="1kB3nkbI2y"/>
	<guideline x="34.2316787005" y="0" angle="179.1517819709" identifier="b19FbnkWEJ"/>
	<guideline x="84.2316787005" y="0" angle="179.1517819709" identifier="CpzNWn9D34"/>
	<guideline x="134.2316787005" y="0" angle="179.1517819709" identifier="vflIHDvFnI"/>
	<guideline x="184.2316787005" y="0" angle="179.1517819709" identifier="1v3JI2ER8D"/>
	<guideline x="234.2316787005" y="0" angle="179.1517819709" identifier="hrVkTonBBO"/>
	<guideline x="284.2316787005" y="0" angle="179.1517819709" identifier="mtMHKT03YW"/>
	<guideline x="334.2316787005" y="0" angle="179.1517819709" identifier="zq5kGoJgBs"/>
	<guideline x="384.2316787005" y="0" angle="179.1517819709" identifier="qHxBWJb9wK"/>
	<guideline x="434.2316787005" y="0" angle="179.1517819709" identifier="o4wNJPU9VV"/>
	<guideline x="484.2316787005" y="0" angle="179.1517819709" identifier="BGbwCLx9eG"/>
	<guideline x="534.2316787005" y="0" angle="179.1517819709" identifier="q7ot846YYP"/>
	<guideline x="-128.2857369835" y="-250" angle="180" identifier="7KPqdhOYUb"/>
	<guideline x="-115.7822538467" y="-200" angle="180" identifier="SMOiPRGjZs"/>
	<guideline x="-103.2787707099" y="-150" angle="180" identifier="g5BvO7VjUO"/>
	<guideline x="-90.7752875731" y="-100" angle="180" identifier="6mqJNm92ma"/>
	<guideline x="-78.2718044363" y="-50" angle="180" identifier="rrdnTbhOQw"/>
	<guideline x="-65.7683212995" y="0" angle="180" identifier="2BhsUR21ap"/>
	<guideline x="-53.2648381627" y="50" angle="180" identifier="DzmetyBRbs"/>
	<guideline x="-40.761355026" y="100" angle="180" identifier="qGfG0C0ZXI"/>
	<guideline x="-28.2578718892" y="150" angle="180" identifier="PEHaMXpuXB"/>
	<guideline x="-15.7543887524" y="200" angle="180" identifier="hftfnthd6t"/>
	<guideline x="-3.2509056156" y="250" angle="180" identifier="vARZtzuFLR"/>
	<guideline x="9.2525775212" y="300" angle="180" identifier="88BUfeEMr9"/>
	<guideline x="21.756060658" y="350" angle="180" identifier="OL4IKUf01t"/>
	<guideline x="34.2595437948" y="400" angle="180" identifier="55mY65CUp5"/>
	<guideline x="46.7630269316" y="450" angle="180" identifier="tARZvIX43q"/>
	<guideline x="59.2665100684" y="500" angle="180" identifier="vXp2wz3mH6"/>
	<guideline x="71.7699932052" y="550" angle="180" identifier="3KNZelb8yI"/>
	<guideline x="84.273476342" y="600" angle="180" identifier="Z0Hg9iDFy6"/>
	<guideline x="96.7769594788" y="650" angle="180" identifier="AdeELinNoF"/>
	<guideline x="109.2804426156" y="700" angle="180" identifier="NCQ24PM5pV"/>
</glyph>
<glyph name="bracketright" format="2">
	<unicode hex="005D"/>
	<advance width="600"/>
	<outline>
		<contour>
			<point x="317.4781259009" y="-51" type="qcurve" smooth="yes"/>
			<point x="507.7811392429" y="710" type="line" smooth="yes"/>
			<point x="509.6473307559" y="717.4626865672"/>
			<point x="479.188621951" y="721"/>
			<point x="460.531905533" y="721" type="qcurve"/>
			<point x="249.9732495094" y="-121" type="line" smooth="yes"/>
			<point x="246.4274856348" y="-135.1791044776"/>
			<point x="251.3137465821" y="-161"/>
			<point x="269.970463" y="-161" type="qcurve" smooth="yes"/>
			<point x="277.4331495671" y="-161"/>
			<point x="290.6944662866" y="-159.2388059701"/>
			<point x="297.9707416509" y="-157" type="qcurve"/>
			<point x="300.024800006" y="-130.8805970149"/>
			<point x="310.573217303" y="-78.6119402985"/>
		</contour>
		<contour>
			<point x="-0.5260538632" y="-111" type="line"/>
			<point x="-2.9516869331" y="-114.7313432836"/>
			<point x="-6.657523222" y="-123.5223880597"/>
			<point x="-7.7772381297" y="-128" type="qcurve" smooth="yes"/>
			<point x="-9.4568104914" y="-134.7164179104"/>
			<point x="-9.2563847297" y="-150.0298507463"/>
			<point x="-4.7791886863" y="-156" type="qcurve" smooth="yes"/>
			<point x="-3.1002401701" y="-158.2388059701"/>
			<point x="2.2391197164" y="-161"/>
			<point x="5.970463" y="-161" type="qcurve" smooth="yes"/>
			<point x="269.970463" y="-161" type="line"/>
			<point x="274.6359417824" y="-142.3432835821"/>
			<point x="262.7575282263" y="-111"/>
			<point x="219.4739461368" y="-111" type="qcurve" smooth="yes"/>
		</contour>
		<contour>
			<point x="214.2846223797" y="760" type="line"/>
			<point x="213.7247649259" y="757.7611940299"/>
			<point x="212.3437832063" y="752.2388059701"/>
			<point x="211.7839257524" y="750" type="qcurve" smooth="yes"/>
			<point x="206.7452086674" y="729.8507462687"/>
			<point x="213.5871093922" y="710"/>
			<point x="224.7811392429" y="710" type="qcurve"/>
			<point x="507.7811392429" y="710" type="line"/>
			<point x="510.2818358703" y="720" type="line" smooth="yes"/>
			<point x="513.8275997449" y="734.1791044776"/>
			<point x="502.2249208872" y="760"/>
			<point x="490.2846223797" y="760" type="qcurve" smooth="yes"/>
		</contour>
	</outline>
</glyph>
<glyph name="asciicircum" format="2">
	<unicode hex="005E"/>
	<advance width="600"/>
	<outline>
		<contour>
			<point x="146.2578718892" y="376" type="line"/>
			<point x="211.7520442614" y="506.5970149254"/>
			<point x="329.8852318583" y="650.9104477612"/>
			<point x="426.5327414859" y="733" type="qcurve" smooth="yes"/>
			<point x="434.928731758" y="739.7164179104"/>
			<point x="431.2394303634" y="754.0298507463"/>
			<point x="422.2846223797" y="760" type="qcurve"/>
			<point x="396.2846223797" y="760" type="line"/>
			<point x="322.5866934953" y="704.0298507463"/>
			<point x="204.6072780579" y="571.0149253731"/>
			<point x="146.7646988373" y="474" type="qcurve" smooth="yes"/>
			<point x="129.5984402481" y="444.1492537313"/>
			<point x="109.0620061454" y="403.2089552239"/>
			<point x="107.0091954811" y="395" type="qcurve" smooth="yes"/>
			<point x="105.1430039682" y="387.5373134328"/>
			<point x="118.6011554712" y="376"/>
			<point x="137.2578718892" y="376" type="qcurve" smooth="yes"/>
		</contour>
		<contour>
			<point x="545.7580112146" y="378" type="qcurve"/>
			<point x="548.9394785707" y="519.0447761194"/>
			<point x="502.8156890407" y="670.328358209"/>
			<point x="460.2829504741" y="736" type="qcurve" smooth="yes"/>
			<point x="452.8210957008" y="747.9402985075"/>
			<point x="437.4786522305" y="760"/>
			<point x="426.2846223797" y="760" type="qcurve" smooth="yes"/>
			<point x="418.2846223797" y="760" type="line" smooth="yes"/>
			<point x="407.090592529" y="760"/>
			<point x="387.4216849683" y="745.6865671642"/>
			<point x="377.5327414859" y="733" type="qcurve"/>
			<point x="381.2640847695" y="733"/>
			<point x="386.7864728292" y="733"/>
			<point x="387.5327414859" y="733" type="qcurve" smooth="yes"/>
			<point x="391.2640847695" y="733"/>
			<point x="398.6704861454" y="728.4776119403"/>
			<point x="401.2821145212" y="724" type="qcurve" smooth="yes"/>
			<point x="456.5005884582" y="646.3880597015"/>
			<point x="493.5363770449" y="517.3731343284"/>
			<point x="497.2589864929" y="392" type="qcurve" smooth="yes"/>
			<point x="497.4449817988" y="383.7910447761"/>
			<point x="516.571304725" y="376"/>
			<point x="529.2578718892" y="376" type="qcurve" smooth="yes"/>
			<point x="533.7354838295" y="376"/>
			<point x="541.8400487798" y="377.2537313433"/>
		</contour>
	</outline>
</glyph>
<glyph name="grave" format="2">
	<unicode hex="0060"/>
	<advance width="600"/>
	<outline>
		<contour>
			<point x="432.2601010967" y="408" type="qcurve"/>
			<point x="405.3994202181" y="479.6417910448"/>
			<point x="383.6255264475" y="618.7164179104"/>
			<point x="391.2812785684" y="712" type="qcurve"/>
			<point x="384.938306909" y="716.4776119403"/>
			<point x="369.4758657211" y="720"/>
			<point x="358.2818358703" y="720" type="qcurve" smooth="yes"/>
			<point x="342.6101940793" y="720"/>
			<point x="309.5681147595" y="705.1492537313"/>
			<point x="304.5293976745" y="685" type="qcurve" smooth="yes"/>
			<point x="290.7195804787" y="629.776119403"/>
			<point x="341.3407976862" y="441.5671641791"/>
			<point x="369.5098921085" y="405" type="qcurve" smooth="yes"/>
			<point x="372.867789141" y="400.5223880597"/>
			<point x="381.3003795827" y="397"/>
			<point x="389.5093348066" y="397" type="qcurve" smooth="yes"/>
			<point x="401.4496333141" y="397"/>
			<point x="421.065655349" y="402.0298507463"/>
		</contour>
	</outline>
</glyph>
<glyph name="v" format="2">
	<unicode hex="0076"/>
	<advance width="600"/>
	<outline>
		<contour>
			<point x="547" y="530" type="qcurve" smooth="yes"/>
			<point x="537" y="530" type="line"/>
			<point x="466.8507462687" y="302.3880597015"/>
			<point x="332.1791044776" y="97.8805970149"/>
			<point x="218" y="24" type="qcurve"/>
			<point x="204.5671641791" y="15.0447761194"/>
			<point x="218.552238806" y="-10"/>
			<point x="229" y="-10" type="qcurve"/>
			<point x="257" y="-10" type="line"/>
			<point x="368.1940298507" y="62.3880597015"/>
			<point x="508.6119402985" y="275.6268656716"/>
			<point x="581" y="501" type="qcurve"/>
			<point x="583.9850746269" y="512.1940298507"/>
			<point x="566.4029850746" y="530"/>
		</contour>
		<contour>
			<point x="154" y="530" type="qcurve" smooth="yes"/>
			<point x="143" y="530" type="line"/>
			<point x="107.1791044776" y="324.776119403"/>
			<point x="126.2835820896" y="90.1194029851"/>
			<point x="183" y="14" type="qcurve"/>
			<point x="191.9552238806" y="2.0597014925"/>
			<point x="212.5671641791" y="-10"/>
			<point x="226" y="-10" type="qcurve" smooth="yes"/>
			<point x="232" y="-10" type="line" smooth="yes"/>
			<point x="246.1791044776" y="-10"/>
			<point x="261.0597014925" y="2.8208955224"/>
			<point x="273" y="17" type="qcurve"/>
			<point x="265.5373134328" y="17"/>
			<point x="255.2388059701" y="17"/>
			<point x="253" y="17" type="qcurve" smooth="yes"/>
			<point x="249.2686567164" y="17"/>
			<point x="242.2388059701" y="19.7611940299"/>
			<point x="240" y="22" type="qcurve"/>
			<point x="173.5820895522" y="102.5970149254"/>
			<point x="156.9104477612" y="322.1641791045"/>
			<point x="189" y="505" type="qcurve"/>
			<point x="192.7313432836" y="519.1791044776"/>
			<point x="173.4029850746" y="530"/>
		</contour>
	</outline>
</glyph>
<glyph name="braceleft" format="2">
	<unicode hex="007B"/>
	<advance width="600"/>
	<outline>
		<contour>
			<point x="561.531905533" y="721" type="qcurve" smooth="yes"/>
			<point x="578.3863127423" y="721"/>
			<point x="602.5728503768" y="717.7858850008"/>
			<point x="616.5313482312" y="713" type="qcurve"/>
			<point x="620.5313482312" y="713" type="line"/>
			<point x="622.2107126443" y="716.7313432836"/>
			<point x="625.2895792873" y="724.0298507463"/>
			<point x="626.7825324977" y="730" type="qcurve" smooth="yes"/>
			<point x="630.8881538262" y="746.4179104478"/>
			<point x="614.6007871211" y="770"/>
			<point x="586.7853190071" y="770" type="qcurve" smooth="yes"/>
			<point x="581.7853190071" y="770" type="line" smooth="yes"/>
			<point x="489.2480055743" y="770"/>
			<point x="353.9605722791" y="714.7164179104"/>
			<point x="339.7775167807" y="658" type="qcurve" smooth="yes"/>
			<point x="338.7772381297" y="654" type="line" smooth="yes"/>
			<point x="336.9377064955" y="646.6439232409"/>
			<point x="353.3390687226" y="631"/>
			<point x="366.0256358868" y="631" type="qcurve"/>
			<point x="388.699925339" y="682.0091560334"/>
			<point x="491.3826518017" y="721"/>
		</contour>
		<contour>
			<point x="402.7646988373" y="474" type="qcurve" smooth="yes"/>
			<point x="418.1703619648" y="535.6054860831"/>
			<point x="382.909932013" y="630.5373134328"/>
			<point x="389.7775167807" y="658" type="qcurve" smooth="yes"/>
			<point x="392.9966971405" y="670.8731343284"/>
			<point x="405.937261245" y="691.0718007402"/>
			<point x="416.2807212665" y="704" type="qcurve"/>
			<point x="393.892661565" y="704"/>
			<point x="347.2889376203" y="688.0373134328"/>
			<point x="339.7775167807" y="658" type="qcurve" smooth="yes"/>
			<point x="338.7772381297" y="654" type="line" smooth="yes"/>
			<point x="327.2683953631" y="607.9774531597"/>
			<point x="366.2355838894" y="527.868529692"/>
			<point x="351.0142111981" y="467" type="qcurve" smooth="yes"/>
			<point x="336.5433416565" y="409.132646626"/>
			<point x="229.7915628597" y="324"/>
			<point x="137.2542494269" y="324" type="qcurve" smooth="yes"/>
			<point x="132.2542494269" y="324" type="line" smooth="yes"/>
			<point x="129.7535527995" y="314" type="line" smooth="yes"/>
			<point x="126.0211697736" y="299.0746268657"/>
			<point x="130.0239206399" y="285"/>
			<point x="134.5015325802" y="285" type="qcurve"/>
			<point x="140.5015325802" y="285" type="line" smooth="yes"/>
			<point x="232.2925773563" y="285"/>
			<point x="379.1256112365" y="379.4699904732"/>
		</contour>
		<contour>
			<point x="315.2403168797" y="124" type="qcurve" smooth="yes"/>
			<point x="338.7543299429" y="218.0298507463"/>
			<point x="240.0447369011" y="316"/>
			<point x="148.253692125" y="316" type="qcurve"/>
			<point x="143.7760801847" y="316"/>
			<point x="134.7313040653" y="316"/>
			<point x="130.253692125" y="316" type="qcurve"/>
			<point x="128.2531348231" y="308" type="line" smooth="yes"/>
			<point x="124.8939900998" y="294.5671641791"/>
			<point x="128.8104677826" y="274"/>
			<point x="140.7507662901" y="274" type="qcurve" smooth="yes"/>
			<point x="142.7507662901" y="274" type="line" smooth="yes"/>
			<point x="221.1089752453" y="274"/>
			<point x="281.1738600173" y="187.7164179104"/>
			<point x="266.9908045189" y="131" type="qcurve" smooth="yes"/>
			<point x="251.6880341126" y="69.8059701493"/>
			<point x="171.5478166539" y="-14.7313432836"/>
			<point x="159.9774292736" y="-61" type="qcurve" smooth="yes"/>
			<point x="159.4772899481" y="-63" type="line" smooth="yes"/>
			<point x="150.3329515346" y="-99.5671641791"/>
			<point x="195.5781450978" y="-115"/>
			<point x="216.4736674858" y="-115" type="qcurve"/>
			<point x="207.146245045" y="-101.5671641791"/>
			<point x="206.0584270964" y="-76.671641791"/>
			<point x="209.9774292736" y="-61" type="qcurve" smooth="yes"/>
			<point x="216.8823378715" y="-33.3880597015"/>
			<point x="299.7509273222" y="62.0597014925"/>
		</contour>
		<contour>
			<point x="356.7231798467" y="-122" type="qcurve" smooth="yes"/>
			<point x="264.9321350706" y="-122"/>
			<point x="192.4273923499" y="-82.9552238806"/>
			<point x="195.2300067948" y="-24" type="qcurve"/>
			<point x="182.7298508334" y="-26.2388059701"/>
			<point x="163.1499548456" y="-48.3134328358"/>
			<point x="159.9774292736" y="-61" type="qcurve" smooth="yes"/>
			<point x="159.4772899481" y="-63" type="line" smooth="yes"/>
			<point x="143.4280429367" y="-127.1791044776"/>
			<point x="259.9510399935" y="-172"/>
			<point x="356.2196967099" y="-172" type="qcurve" smooth="yes"/>
			<point x="362.2196967099" y="-172" type="line" smooth="yes"/>
			<point x="383.1152190979" y="-172"/>
			<point x="408.1246053078" y="-144.3880597015"/>
			<point x="413.7231798467" y="-122" type="qcurve"/>
			<point x="415.7237371486" y="-114" type="line"/>
			<point x="411.7237371486" y="-114" type="line"/>
			<point x="398.8503428846" y="-117.7313432836"/>
			<point x="373.1410902944" y="-122"/>
		</contour>
	</outline>
	<guideline x="-65.7683212995" y="0" angle="179.1517819709" identifier="GiO2VPOV2j"/>
	<guideline x="-15.7683212995" y="0" angle="179.1517819709" identifier="UsTQri1dx9"/>
	<guideline x="34.2316787005" y="0" angle="179.1517819709" identifier="whhlVr0Zqp"/>
	<guideline x="84.2316787005" y="0" angle="179.1517819709" identifier="gQ2wNjOQcS"/>
	<guideline x="134.2316787005" y="0" angle="179.1517819709" identifier="igQpMaVDZv"/>
	<guideline x="184.2316787005" y="0" angle="179.1517819709" identifier="SWNC9r8b8j"/>
	<guideline x="234.2316787005" y="0" angle="179.1517819709" identifier="80FeIoyljs"/>
	<guideline x="284.2316787005" y="0" angle="179.1517819709" identifier="6EMnzgqHho"/>
	<guideline x="334.2316787005" y="0" angle="179.1517819709" identifier="FLBbsS4nvi"/>
	<guideline x="384.2316787005" y="0" angle="179.1517819709" identifier="ixFZr6zywa"/>
	<guideline x="434.2316787005" y="0" angle="179.1517819709" identifier="2R5QhDhzxW"/>
	<guideline x="484.2316787005" y="0" angle="179.1517819709" identifier="EItPtx3drk"/>
	<guideline x="534.2316787005" y="0" angle="179.1517819709" identifier="j6pI9DQWSt"/>
	<guideline x="-128.2857369835" y="-250" angle="180" identifier="WoDUmfwVd8"/>
	<guideline x="-115.7822538467" y="-200" angle="180" identifier="X3hT443A22"/>
	<guideline x="-103.2787707099" y="-150" angle="180" identifier="bDyPPBcsPc"/>
	<guideline x="-90.7752875731" y="-100" angle="180" identifier="In6lsGEUBd"/>
	<guideline x="-78.2718044363" y="-50" angle="180" identifier="7lWeK6UwOG"/>
	<guideline x="-65.7683212995" y="0" angle="180" identifier="Zk0fZB2Ffb"/>
	<guideline x="-53.2648381627" y="50" angle="180" identifier="46B96e2vco"/>
	<guideline x="-40.761355026" y="100" angle="180" identifier="Rz642vVNTO"/>
	<guideline x="-28.2578718892" y="150" angle="180" identifier="xR758ijmMc"/>
	<guideline x="-15.7543887524" y="200" angle="180" identifier="OY9Dyfmp9v"/>
	<guideline x="-3.2509056156" y="250" angle="180" identifier="4QKO97MEYs"/>
	<guideline x="9.2525775212" y="300" angle="180" identifier="xdRDaBpdLf"/>
	<guideline x="21.756060658" y="350" angle="180" identifier="ijT5uAv6cP"/>
	<guideline x="34.2595437948" y="400" angle="180" identifier="WerPSaJYr1"/>
	<guideline x="46.7630269316" y="450" angle="180" identifier="SSzvalf3MC"/>
	<guideline x="59.2665100684" y="500" angle="180" identifier="QnyXZqtdL2"/>
	<guideline x="71.7699932052" y="550" angle="180" identifier="D9T2cMuYfn"/>
	<guideline x="84.273476342" y="600" angle="180" identifier="k3HbyZXx1d"/>
	<guideline x="96.7769594788" y="650" angle="180" identifier="pFIEWipTgd"/>
	<guideline x="109.2804426156" y="700" angle="180" identifier="m69BE62w61"/>
</glyph>
<glyph name="bar" format="2">
	<unicode hex="007C"/>
	<advance width="600"/>
	<outline>
		<contour>
			<point x="392.2846223797" y="760" type="qcurve"/>
			<point x="390.2305640247" y="733.8805970149"/>
			<point x="379.4320770649" y="680.6119402985"/>
			<point x="372.527168467" y="653" type="qcurve" smooth="yes"/>
			<point x="174.9721349056" y="-137" type="line" smooth="yes"/>
			<point x="171.6129901823" y="-150.4328358209"/>
			<point x="192.802622215" y="-160"/>
			<point x="209.2205326627" y="-160" type="qcurve" smooth="yes"/>
			<point x="211.4593386329" y="-160"/>
			<point x="216.9817266926" y="-160"/>
			<point x="219.2205326627" y="-160" type="qcurve"/>
			<point x="435.0306516038" y="703" type="line" smooth="yes"/>
			<point x="439.1362729323" y="719.4179104478"/>
			<point x="440.7500681311" y="746.0447761194"/>
			<point x="434.0342740661" y="755" type="qcurve" smooth="yes"/>
			<point x="431.236026539" y="758.7313432836"/>
			<point x="420.482592562" y="763"/>
			<point x="410.034831368" y="763" type="qcurve" smooth="yes"/>
			<point x="405.5572194277" y="763"/>
			<point x="397.1354726226" y="761.4925373134"/>
		</contour>
	</outline>
</glyph>
<glyph name="asciitilde" format="2">
	<unicode hex="007E"/>
	<advance width="600"/>
	<outline>
		<contour>
			<point x="432.0008359528" y="275" type="qcurve"/>
			<point x="364.0903881916" y="275"/>
			<point x="265.6645186443" y="375"/>
			<point x="197.0078022264" y="375" type="qcurve" smooth="yes"/>
			<point x="157.4555634205" y="375"/>
			<point x="97.7968548562" y="346.4029850746"/>
			<point x="81.0044584151" y="327" type="qcurve" smooth="yes"/>
			<point x="74.6606549618" y="319.5373134328"/>
			<point x="67.6783478371" y="305.7014925373"/>
			<point x="65.2522988703" y="296" type="qcurve" smooth="yes"/>
			<point x="63.3861073573" y="288.5373134328"/>
			<point x="63.1351975828" y="275.4776119403"/>
			<point x="65.0005573019" y="271" type="qcurve"/>
			<point x="69.0005573019" y="271" type="line"/>
			<point x="99.5994437634" y="297.8656716418"/>
			<point x="155.9073041643" y="325"/>
			<point x="186.5043190896" y="325" type="qcurve" smooth="yes"/>
			<point x="254.4147668508" y="325"/>
			<point x="352.8406363981" y="225"/>
			<point x="421.497352816" y="225" type="qcurve" smooth="yes"/>
			<point x="461.049591622" y="225"/>
			<point x="520.7083001862" y="253.5970149254"/>
			<point x="537.5006966274" y="273" type="qcurve" smooth="yes"/>
			<point x="543.8445000806" y="280.4626865672"/>
			<point x="550.8268072053" y="294.2985074627"/>
			<point x="553.2528561722" y="304" type="qcurve" smooth="yes"/>
			<point x="555.1190476851" y="311.4626865672"/>
			<point x="555.3699574597" y="324.5223880597"/>
			<point x="553.5045977406" y="329" type="qcurve"/>
			<point x="549.5045977406" y="329" type="line"/>
			<point x="518.905711279" y="302.1343283582"/>
			<point x="462.5978508782" y="275"/>
		</contour>
	</outline>
	<guideline x="-65.7683212995" y="0" angle="179.1517819709" identifier="6wKzvdALoX"/>
	<guideline x="-15.7683212995" y="0" angle="179.1517819709" identifier="aWgA4tqdRl"/>
	<guideline x="34.2316787005" y="0" angle="179.1517819709" identifier="LyPYtSCMsY"/>
	<guideline x="84.2316787005" y="0" angle="179.1517819709" identifier="dWbHNBSTuH"/>
	<guideline x="134.2316787005" y="0" angle="179.1517819709" identifier="JFu6AtcxFR"/>
	<guideline x="184.2316787005" y="0" angle="179.1517819709" identifier="pum7ilnp3f"/>
	<guideline x="234.2316787005" y="0" angle="179.1517819709" identifier="LifEjfWVxp"/>
	<guideline x="284.2316787005" y="0" angle="179.1517819709" identifier="DJRo4p6bpw"/>
	<guideline x="334.2316787005" y="0" angle="179.1517819709" identifier="a80odY47rh"/>
	<guideline x="384.2316787005" y="0" angle="179.1517819709" identifier="xrL4dr9QMy"/>
	<guideline x="434.2316787005" y="0" angle="179.1517819709" identifier="UCg1KmncSJ"/>
	<guideline x="484.2316787005" y="0" angle="179.1517819709" identifier="FUWt2AXDqE"/>
	<guideline x="534.2316787005" y="0" angle="179.1517819709" identifier="VsvVoz9P6L"/>
	<guideline x="-128.2857369835" y="-250" angle="180" identifier="bt3ellZmRE"/>
	<guideline x="-115.7822538467" y="-200" angle="180" identifier="puDl67U0Sl"/>
	<guideline x="-103.2787707099" y="-150" angle="180" identifier="Q5Rasui5jg"/>
	<guideline x="-90.7752875731" y="-100" angle="180" identifier="08xcwX3xpb"/>
	<guideline x="-78.2718044363" y="-50" angle="180" identifier="fKTxyGSI4i"/>
	<guideline x="-65.7683212995" y="0" angle="180" identifier="ukfbrTFUvs"/>
	<guideline x="-53.2648381627" y="50" angle="180" identifier="EL1uoiKI2W"/>
	<guideline x="-40.761355026" y="100" angle="180" identifier="7gzumwOf7O"/>
	<guideline x="-28.2578718892" y="150" angle="180" identifier="ctXRKVqB4c"/>
	<guideline x="-15.7543887524" y="200" angle="180" identifier="OsBgUtIECv"/>
	<guideline x="-3.2509056156" y="250" angle="180" identifier="PCANQ7qRdG"/>
	<guideline x="9.2525775212" y="300" angle="180" identifier="fKwy8oyD9D"/>
	<guideline x="21.756060658" y="350" angle="180" identifier="XsgCv4gRAi"/>
	<guideline x="34.2595437948" y="400" angle="180" identifier="0QsJe5A4fI"/>
	<guideline x="46.7630269316" y="450" angle="180" identifier="N13nMtOUpC"/>
	<guideline x="59.2665100684" y="500" angle="180" identifier="2ZKP0ovIcG"/>
	<guideline x="71.7699932052" y="550" angle="180" identifier="ZqONi0xX88"/>
	<guideline x="84.273476342" y="600" angle="180" identifier="RiylTGBS2Z"/>
	<guideline x="96.7769594788" y="650" angle="180" identifier="jaIYPNJv8b"/>
	<guideline x="109.2804426156" y="700" angle="180" identifier="1bCUxvFWIh"/>
</glyph>
<glyph name="sterling" format="2">
	<unicode hex="00A3"/>
	<advance width="600"/>
	<outline>
		<contour>
			<point x="402.5282830708" y="669" type="qcurve" smooth="yes"/>
			<point x="475.662611429" y="669"/>
			<point x="559.6253892015" y="616.7462686567"/>
			<point x="579.771107809" y="566" type="qcurve"/>
			<point x="583.771107809" y="566" type="line"/>
			<point x="589.9285000594" y="575.7014925373"/>
			<point x="596.4110172121" y="592.552238806"/>
			<point x="599.0236853302" y="603" type="qcurve" smooth="yes"/>
			<point x="602.5694492048" y="617.1791044776"/>
			<point x="600.6929891792" y="640.7777704719"/>
			<point x="590.0273077925" y="655" type="qcurve" smooth="yes"/>
			<point x="571.3105723874" y="679.9579653937"/>
			<point x="481.7024450713" y="719"/>
			<point x="415.0317662076" y="719" type="qcurve" smooth="yes"/>
			<point x="318.0168408344" y="719"/>
			<point x="177.178106289" y="623.6119402985"/>
			<point x="157.7697145543" y="546" type="qcurve" smooth="yes"/>
			<point x="156.2692965778" y="540" type="line" smooth="yes"/>
			<point x="149.4658114317" y="512.7936404932"/>
			<point x="171.3499897796" y="497"/>
			<point x="184.5163010802" y="497" type="qcurve"/>
			<point x="204.6924973231" y="577.6823027719"/>
			<point x="310.6548016407" y="669"/>
		</contour>
		<contour>
			<point x="156.2692965778" y="540" type="qcurve" smooth="yes"/>
			<point x="130.1426153965" y="435.5223880597"/>
			<point x="199.8053587808" y="254.223880597"/>
			<point x="173.4920584481" y="149" type="qcurve" smooth="yes"/>
			<point x="159.1223837984" y="91.5373134328"/>
			<point x="96.5104452874" y="38"/>
			<point x="51.7343258844" y="38" type="qcurve" smooth="yes"/>
			<point x="34.5701467799" y="38"/>
			<point x="11.1264506865" y="42.7910447761"/>
			<point x="1.9852315" y="51" type="qcurve"/>
			<point x="-2.0147685" y="51" type="line"/>
			<point x="-5.5599085292" y="45.776119403"/>
			<point x="-9.2096883702" y="38.223880597"/>
			<point x="-10.5160224293" y="33" type="qcurve" smooth="yes"/>
			<point x="-15.9279778168" y="11.3582089552"/>
			<point x="6.1412905088" y="-12"/>
			<point x="38.2308427476" y="-12" type="qcurve" smooth="yes"/>
			<point x="43.2308427476" y="-12" type="line" smooth="yes"/>
			<point x="117.1114397626" y="-12"/>
			<point x="204.2596460175" y="80.0895522388"/>
			<point x="221.2419887854" y="148" type="qcurve" smooth="yes"/>
			<point x="249.6080997823" y="261.4328358209"/>
			<point x="179.524154418" y="449.0447761194"/>
			<point x="206.7705505071" y="558" type="qcurve" smooth="yes"/>
			<point x="210.6895526843" y="573.671641791"/>
			<point x="222.1319868225" y="604.328358209"/>
			<point x="231.2748695967" y="620" type="qcurve"/>
			<point x="195.4539740743" y="620"/>
			<point x="163.920681781" y="570.5970149254"/>
		</contour>
		<contour>
			<point x="156.4870427311" y="77" type="qcurve"/>
			<point x="211.7080120496" y="35.2089552239"/>
			<point x="314.7681561805" y="-12"/>
			<point x="372.2308427476" y="-12" type="qcurve" smooth="yes"/>
			<point x="383.2308427476" y="-12" type="line" smooth="yes"/>
			<point x="433.9771114043" y="-12"/>
			<point x="494.7041881693" y="33.8805970149"/>
			<point x="501.2358584646" y="60" type="qcurve" smooth="yes"/>
			<point x="504.4083840366" y="72.6865671642"/>
			<point x="501.8464037208" y="93.5373134328"/>
			<point x="498.4887146368" y="101" type="qcurve"/>
			<point x="494.4887146368" y="101" type="line"/>
			<point x="474.7102038264" y="66.671641791"/>
			<point x="427.794027377" y="38"/>
			<point x="389.7343258844" y="38" type="qcurve" smooth="yes"/>
			<point x="336.0029826008" y="38"/>
			<point x="237.4276157306" y="80.9402985075"/>
			<point x="187.989968566" y="119" type="qcurve" smooth="yes"/>
			<point x="182.9529150688" y="122.7313432836"/>
			<point x="161.5257598161" y="97.1492537313"/>
		</contour>
		<contour>
			<point x="71.756060658" y="350" type="line"/>
			<point x="71.1962032041" y="347.7611940299"/>
			<point x="69.8152214846" y="342.2388059701"/>
			<point x="69.2553640307" y="340" type="qcurve" smooth="yes"/>
			<point x="66.2694576099" y="328.0597014925"/>
			<point x="67.0257297915" y="310.9701492537"/>
			<point x="71.5029258349" y="305" type="qcurve" smooth="yes"/>
			<point x="73.1818743512" y="302.7611940299"/>
			<point x="78.5212342376" y="300"/>
			<point x="82.2525775212" y="300" type="qcurve" smooth="yes"/>
			<point x="449.2525775212" y="300" type="line"/>
			<point x="449.8124349751" y="302.2388059701"/>
			<point x="451.1934166947" y="307.7611940299"/>
			<point x="451.7532741486" y="310" type="qcurve" smooth="yes"/>
			<point x="455.8588954771" y="326.4179104478"/>
			<point x="452.1888964789" y="350"/>
			<point x="438.756060658" y="350" type="qcurve" smooth="yes"/>
		</contour>
	</outline>
	<guideline x="-65.7683212995" y="0" angle="179.1517819709" identifier="cNvvBHz17E"/>
	<guideline x="-15.7683212995" y="0" angle="179.1517819709" identifier="GuYlCAwvCC"/>
	<guideline x="34.2316787005" y="0" angle="179.1517819709" identifier="48UPr3Z0Ml"/>
	<guideline x="84.2316787005" y="0" angle="179.1517819709" identifier="umNfwmPg7k"/>
	<guideline x="134.2316787005" y="0" angle="179.1517819709" identifier="7zsXulRinc"/>
	<guideline x="184.2316787005" y="0" angle="179.1517819709" identifier="LOoEtCGtFu"/>
	<guideline x="234.2316787005" y="0" angle="179.1517819709" identifier="cHTklnF0qj"/>
	<guideline x="284.2316787005" y="0" angle="179.1517819709" identifier="X19tERhd2e"/>
	<guideline x="334.2316787005" y="0" angle="179.1517819709" identifier="z6eOQ6YXbh"/>
	<guideline x="384.2316787005" y="0" angle="179.1517819709" identifier="z0BwUREVhi"/>
	<guideline x="434.2316787005" y="0" angle="179.1517819709" identifier="fJjqi9LKKt"/>
	<guideline x="484.2316787005" y="0" angle="179.1517819709" identifier="opemI5uJX1"/>
	<guideline x="534.2316787005" y="0" angle="179.1517819709" identifier="KTQ3XMIdjW"/>
	<guideline x="-128.2857369835" y="-250" angle="180" identifier="ij1bYBWaMw"/>
	<guideline x="-115.7822538467" y="-200" angle="180" identifier="VVNyJKewu5"/>
	<guideline x="-103.2787707099" y="-150" angle="180" identifier="fILjHjr3P0"/>
	<guideline x="-90.7752875731" y="-100" angle="180" identifier="pHuBReNYIi"/>
	<guideline x="-78.2718044363" y="-50" angle="180" identifier="HVWau8yj76"/>
	<guideline x="-65.7683212995" y="0" angle="180" identifier="mQHvyEYIyX"/>
	<guideline x="-53.2648381627" y="50" angle="180" identifier="37LBN3FvVh"/>
	<guideline x="-40.761355026" y="100" angle="180" identifier="97A0AJT0i4"/>
	<guideline x="-28.2578718892" y="150" angle="180" identifier="hu7gxtamk4"/>
	<guideline x="-15.7543887524" y="200" angle="180" identifier="oNyA1mXX1c"/>
	<guideline x="-3.2509056156" y="250" angle="180" identifier="93EicwTbB8"/>
	<guideline x="9.2525775212" y="300" angle="180" identifier="rb7Nd8QV6u"/>
	<guideline x="21.756060658" y="350" angle="180" identifier="Ru1oGqQsXO"/>
	<guideline x="34.2595437948" y="400" angle="180" identifier="DWkssvTqcy"/>
	<guideline x="46.7630269316" y="450" angle="180" identifier="vZgxS7Ejme"/>
	<guideline x="59.2665100684" y="500" angle="180" identifier="Vq75JeJoCV"/>
	<guideline x="71.7699932052" y="550" angle="180" identifier="Tahf1x7ADG"/>
	<guideline x="84.273476342" y="600" angle="180" identifier="LSfKzICCfc"/>
	<guideline x="96.7769594788" y="650" angle="180" identifier="4jC4PCl1V0"/>
	<guideline x="109.2804426156" y="700" angle="180" identifier="R1pp2PKeKm"/>
</glyph>
<glyph name="yen" format="2">
	<unicode hex="00A5"/>
	<advance width="600"/>
	<outline>
		<contour>
			<point x="69.2581505401" y="380" type="line"/>
			<point x="68.6982930862" y="377.7611940299"/>
			<point x="67.3173113666" y="372.2388059701"/>
			<point x="66.7574539127" y="370" type="qcurve" smooth="yes"/>
			<point x="63.771547492" y="358.0597014925"/>
			<point x="64.5278196736" y="340.9701492537"/>
			<point x="69.005015717" y="335" type="qcurve" smooth="yes"/>
			<point x="70.6839642332" y="332.7611940299"/>
			<point x="76.0233241197" y="330"/>
			<point x="79.7546674033" y="330" type="qcurve" smooth="yes"/>
			<point x="216.7546674033" y="330" type="line"/>
			<point x="217.3145248572" y="332.2388059701"/>
			<point x="218.6955065768" y="337.7611940299"/>
			<point x="219.2553640307" y="340" type="qcurve" smooth="yes"/>
			<point x="223.3609853592" y="356.4179104478"/>
			<point x="219.690986361" y="380"/>
			<point x="206.2581505401" y="380" type="qcurve" smooth="yes"/>
		</contour>
		<contour>
			<point x="429.2581505401" y="380" type="line"/>
			<point x="423.2875853894" y="374.0298507463"/>
			<point x="414.5590803105" y="361.2089552239"/>
			<point x="412.5062696462" y="353" type="qcurve" smooth="yes"/>
			<point x="410.6400781333" y="345.5373134328"/>
			<point x="413.3218315824" y="330"/>
			<point x="426.7546674033" y="330" type="qcurve" smooth="yes"/>
			<point x="576.7546674033" y="330" type="line"/>
			<point x="577.3145248572" y="332.2388059701"/>
			<point x="578.6955065768" y="337.7611940299"/>
			<point x="579.2553640307" y="340" type="qcurve" smooth="yes"/>
			<point x="583.3609853592" y="356.4179104478"/>
			<point x="579.690986361" y="380"/>
			<point x="566.2581505401" y="380" type="qcurve" smooth="yes"/>
		</contour>
		<contour>
			<point x="526.7407348561" y="130" type="line"/>
			<point x="527.30059231" y="132.2388059701"/>
			<point x="528.6815740296" y="137.7611940299"/>
			<point x="529.2414314835" y="140" type="qcurve" smooth="yes"/>
			<point x="532.2273379042" y="151.9402985075"/>
			<point x="531.4710657226" y="169.0298507463"/>
			<point x="526.9938696792" y="175" type="qcurve" smooth="yes"/>
			<point x="525.314921163" y="177.2388059701"/>
			<point x="519.9755612765" y="180"/>
			<point x="516.2442179929" y="180" type="qcurve" smooth="yes"/>
			<point x="19.2442179929" y="180" type="line"/>
			<point x="18.684360539" y="177.7611940299"/>
			<point x="17.3033788194" y="172.2388059701"/>
			<point x="16.7435213656" y="170" type="qcurve" smooth="yes"/>
			<point x="12.6379000371" y="153.5820895522"/>
			<point x="16.3078990352" y="130"/>
			<point x="29.7407348561" y="130" type="qcurve" smooth="yes"/>
		</contour>
		<contour>
			<point x="152.7811392429" y="710" type="line"/>
			<point x="138.0321948546" y="510.7968110257"/>
			<point x="195.915596652" y="327.1184933569"/>
			<point x="267.2478404552" y="232" type="qcurve" smooth="yes"/>
			<point x="269.0422132728" y="229.6072806654"/>
			<point x="279.0187060829" y="228"/>
			<point x="283.2475618042" y="228" type="qcurve"/>
			<point x="290.7102483714" y="228"/>
			<point x="306.7079674687" y="248.8208955224"/>
			<point x="311" y="263" type="qcurve"/>
			<point x="243.2824098441" y="353.2985074627"/>
			<point x="186.5847108706" y="514.8805970149"/>
			<point x="200.029815651" y="691" type="qcurve" smooth="yes"/>
			<point x="200.9633273044" y="700.7014925373"/>
			<point x="182.1841243176" y="710"/>
			<point x="162.7811392429" y="710" type="qcurve" smooth="yes"/>
		</contour>
		<contour>
			<point x="618.7811392429" y="710" type="line"/>
			<point x="553.470882692" y="541.3432835821"/>
			<point x="406.4130931576" y="354.5373134328"/>
			<point x="287.7499303373" y="262" type="qcurve" smooth="yes"/>
			<point x="264.6143542883" y="244.0895522388"/>
			<point x="280.2624871774" y="228"/>
			<point x="283.2475618042" y="228" type="qcurve"/>
			<point x="313.2475618042" y="228" type="line"/>
			<point x="433.457686125" y="324.1627402889"/>
			<point x="596.3201742934" y="518.9360105007"/>
			<point x="660.0292583491" y="683" type="qcurve" smooth="yes"/>
			<point x="663.9478446294" y="692.7014925373"/>
			<point x="648.1841243176" y="710"/>
			<point x="628.7811392429" y="710" type="qcurve" smooth="yes"/>
		</contour>
		<contour>
			<point x="264.4811910613" y="-7" type="qcurve"/>
			<point x="266.5352494163" y="19.1194029851"/>
			<point x="277.3337363761" y="72.3880597015"/>
			<point x="284.238644974" y="100" type="qcurve" smooth="yes"/>
			<point x="319.7485370825" y="242" type="line" smooth="yes"/>
			<point x="323.4809201085" y="256.9253731343"/>
			<point x="294.1568557434" y="265"/>
			<point x="275.5001393255" y="265" type="qcurve"/>
			<point x="221.7351618373" y="50" type="line" smooth="yes"/>
			<point x="217.6295405088" y="33.5820895522"/>
			<point x="216.0157453099" y="6.9552238806"/>
			<point x="222.731539375" y="-2" type="qcurve" smooth="yes"/>
			<point x="225.5297869021" y="-5.7313432836"/>
			<point x="236.2832208791" y="-10"/>
			<point x="246.7309820731" y="-10" type="qcurve" smooth="yes"/>
			<point x="251.2085940134" y="-10"/>
			<point x="259.6303408184" y="-8.4925373134"/>
		</contour>
	</outline>
	<guideline x="-65.7683212995" y="0" angle="179.1517819709" identifier="QxGVaW37EE"/>
	<guideline x="-15.7683212995" y="0" angle="179.1517819709" identifier="tA02GLi4y5"/>
	<guideline x="34.2316787005" y="0" angle="179.1517819709" identifier="GLZY95SfOG"/>
	<guideline x="84.2316787005" y="0" angle="179.1517819709" identifier="wT7ITedPxU"/>
	<guideline x="134.2316787005" y="0" angle="179.1517819709" identifier="GgaEjPFpJy"/>
	<guideline x="184.2316787005" y="0" angle="179.1517819709" identifier="fr8pP03JLn"/>
	<guideline x="234.2316787005" y="0" angle="179.1517819709" identifier="K9QcK8ZuBt"/>
	<guideline x="284.2316787005" y="0" angle="179.1517819709" identifier="9xPvVBn2fD"/>
	<guideline x="334.2316787005" y="0" angle="179.1517819709" identifier="c87mID3TIO"/>
	<guideline x="384.2316787005" y="0" angle="179.1517819709" identifier="PSJQLMLhWL"/>
	<guideline x="434.2316787005" y="0" angle="179.1517819709" identifier="sUf1L0uYoS"/>
	<guideline x="484.2316787005" y="0" angle="179.1517819709" identifier="pLmDrvWIm4"/>
	<guideline x="534.2316787005" y="0" angle="179.1517819709" identifier="d2E5TTTbPi"/>
	<guideline x="-128.2857369835" y="-250" angle="180" identifier="JUnezm4mmv"/>
	<guideline x="-115.7822538467" y="-200" angle="180" identifier="kTdwC2SEEe"/>
	<guideline x="-103.2787707099" y="-150" angle="180" identifier="ZWWbCskfDn"/>
	<guideline x="-90.7752875731" y="-100" angle="180" identifier="MXuVX8Q92w"/>
	<guideline x="-78.2718044363" y="-50" angle="180" identifier="phykO7ZtLE"/>
	<guideline x="-65.7683212995" y="0" angle="180" identifier="chK8nmFkiv"/>
	<guideline x="-53.2648381627" y="50" angle="180" identifier="ojc1zmj7KA"/>
	<guideline x="-40.761355026" y="100" angle="180" identifier="ICuKsuLgNk"/>
	<guideline x="-28.2578718892" y="150" angle="180" identifier="v1hR0XySdy"/>
	<guideline x="-15.7543887524" y="200" angle="180" identifier="K5p9oqC0vh"/>
	<guideline x="-3.2509056156" y="250" angle="180" identifier="yJILXYoBOM"/>
	<guideline x="9.2525775212" y="300" angle="180" identifier="79PzQXyGfo"/>
	<guideline x="21.756060658" y="350" angle="180" identifier="CY3bzkgXlu"/>
	<guideline x="34.2595437948" y="400" angle="180" identifier="dDVFWPAgi2"/>
	<guideline x="46.7630269316" y="450" angle="180" identifier="Fengi8cC1y"/>
	<guideline x="59.2665100684" y="500" angle="180" identifier="MQ3lajDoHZ"/>
	<guideline x="71.7699932052" y="550" angle="180" identifier="vZk9Wy8iTB"/>
	<guideline x="84.273476342" y="600" angle="180" identifier="pE1DaA9mEO"/>
	<guideline x="96.7769594788" y="650" angle="180" identifier="QAwinN6bH9"/>
	<guideline x="109.2804426156" y="700" angle="180" identifier="WWS5sNtBph"/>
</glyph>
<glyph name="section" format="2">
	<unicode hex="00A7"/>
	<advance width="600"/>
	<outline>
		<contour>
			<point x="492.2818358703" y="720" type="qcurve" smooth="yes"/>
			<point x="387.0579552733" y="720"/>
			<point x="157.0895848907" y="531.2835820896"/>
			<point x="133.7621909788" y="438" type="qcurve" smooth="yes"/>
			<point x="131.2614943514" y="428" type="line" smooth="yes"/>
			<point x="125.8495389639" y="406.3582089552"/>
			<point x="158.6946813133" y="379.4776119403"/>
			<point x="171.0078022264" y="375" type="qcurve"/>
			<point x="172.8746175848" y="391.4179104478"/>
			<point x="179.4064999875" y="420.5820895522"/>
			<point x="183.512121316" y="437" type="qcurve" smooth="yes"/>
			<point x="202.9205130508" y="514.6119402985"/>
			<point x="397.6888004947" y="670"/>
			<point x="479.7783527335" y="670" type="qcurve" smooth="yes"/>
			<point x="532.0171587037" y="670"/>
			<point x="565.3983168875" y="624.4925373134"/>
			<point x="552.5215954481" y="573" type="qcurve"/>
			<point x="564.4618939556" y="573"/>
			<point x="581.5936253294" y="589.2835820896"/>
			<point x="583.2731976911" y="596" type="qcurve" smooth="yes"/>
			<point x="589.2450105325" y="619.8805970149"/>
			<point x="589.7111947929" y="670.0895522388"/>
			<point x="576.2796066628" y="688" type="qcurve"/>
			<point x="565.6462660598" y="702.1791044776"/>
			<point x="527.356462736" y="720"/>
		</contour>
		<contour>
			<point x="374.0016719057" y="287" type="qcurve" smooth="yes"/>
			<point x="296.7538314505" y="318" type="line" smooth="yes"/>
			<point x="206.4578193694" y="353.8208955224"/>
			<point x="176.0473552642" y="407.1492537313"/>
			<point x="183.512121316" y="437" type="qcurve" smooth="yes"/>
			<point x="186.8712660394" y="450.4328358209"/>
			<point x="194.1753275136" y="476.5970149254"/>
			<point x="201.2662314175" y="496" type="qcurve"/>
			<point x="181.6762112946" y="489.2835820896"/>
			<point x="138.7262604032" y="457.8507462687"/>
			<point x="131.2614943514" y="428" type="qcurve" smooth="yes"/>
			<point x="118.5713920633" y="377.2537313433"/>
			<point x="181.8313755412" y="306.3134328358"/>
			<point x="272.5004179764" y="269" type="qcurve" smooth="yes"/>
			<point x="350.4981887689" y="237" type="line" smooth="yes"/>
			<point x="415.421690367" y="210.1343283582"/>
			<point x="447.8767725507" y="154.5373134328"/>
			<point x="437.2394809269" y="112" type="qcurve" smooth="yes"/>
			<point x="436.2392022759" y="108" type="line" smooth="yes"/>
			<point x="429.7075319806" y="81.8805970149"/>
			<point x="398.5063385971" y="32.6119402985"/>
			<point x="365.4820270141" y="5" type="qcurve"/>
			<point x="368.0936553899" y="0.5223880597"/>
			<point x="379.28349953" y="-6"/>
			<point x="389.731260724" y="-6" type="qcurve" smooth="yes"/>
			<point x="406.8954398285" y="-6"/>
			<point x="472.7394515222" y="58.0149253731"/>
			<point x="485.9894112641" y="111" type="qcurve" smooth="yes"/>
			<point x="488.4901078915" y="121" type="line" smooth="yes"/>
			<point x="503.2330208438" y="179.9552238806"/>
			<point x="444.5220844549" y="258.6417910448"/>
		</contour>
		<contour>
			<point x="314.4850921745" y="49" type="qcurve" smooth="yes"/>
			<point x="237.2372517193" y="80" type="line" smooth="yes"/>
			<point x="146.9412396382" y="115.8208955224"/>
			<point x="120.7819597996" y="186.1492537313"/>
			<point x="128.2467258514" y="216" type="qcurve" smooth="yes"/>
			<point x="130.2472831533" y="224" type="line" smooth="yes"/>
			<point x="137.1521917512" y="251.6119402985"/>
			<point x="174.9766223975" y="302.3582089552"/>
			<point x="207.2542494269" y="324" type="qcurve"/>
			<point x="206.5081887186" y="326.9850746269"/>
			<point x="194.2252346335" y="336"/>
			<point x="188.2550853797" y="336" type="qcurve" smooth="yes"/>
			<point x="162.1356823946" y="336"/>
			<point x="91.440699848" y="268.7611940299"/>
			<point x="79.4970741651" y="221" type="qcurve" smooth="yes"/>
			<point x="77.7465865259" y="214" type="line" smooth="yes"/>
			<point x="65.0564842379" y="163.2537313433"/>
			<point x="122.31479581" y="68.3134328358"/>
			<point x="212.9838382453" y="31" type="qcurve" smooth="yes"/>
			<point x="290.9816090377" y="-1" type="line" smooth="yes"/>
			<point x="355.9051106359" y="-27.8656716418"/>
			<point x="394.8563211111" y="-85.4776119403"/>
			<point x="383.4725528821" y="-131" type="qcurve" smooth="yes"/>
			<point x="382.5394571256" y="-134.7313432836"/>
			<point x="379.9043947093" y="-145.2686567164"/>
			<point x="378.9712989528" y="-149" type="qcurve"/>
			<point x="391.8446932167" y="-145.2686567164"/>
			<point x="431.5526048313" y="-106.6865671642"/>
			<point x="434.7251304033" y="-94" type="qcurve"/>
			<point x="446.1088986323" y="-48.4776119403"/>
			<point x="385.0055047238" y="20.6417910448"/>
		</contour>
		<contour>
			<point x="171.7142630165" y="-250" type="qcurve" smooth="yes"/>
			<point x="270.9679943598" y="-250"/>
			<point x="415.9325818678" y="-169.1492537313"/>
			<point x="433.4747820896" y="-99" type="qcurve" smooth="yes"/>
			<point x="434.7251304033" y="-94" type="line" smooth="yes"/>
			<point x="440.5103240934" y="-70.8656716418"/>
			<point x="418.7917334135" y="-48.4925373134"/>
			<point x="406.4784045519" y="-47" type="qcurve"/>
			<point x="405.7319279467" y="-49.9850746269"/>
			<point x="403.2163017872" y="-60.0447761194"/>
			<point x="400.9768719717" y="-69" type="qcurve" smooth="yes"/>
			<point x="385.3008632629" y="-131.6865671642"/>
			<point x="272.2774476458" y="-200"/>
			<point x="184.2177461533" y="-200" type="qcurve" smooth="yes"/>
			<point x="108.0983431682" y="-200"/>
			<point x="15.9183967912" y="-158.5223880597"/>
			<point x="-7.0261931887" y="-113" type="qcurve"/>
			<point x="-11.0261931887" y="-113" type="line"/>
			<point x="-16.2506976311" y="-121.9552238806"/>
			<point x="-23.4794834405" y="-138.8059701493"/>
			<point x="-26.2787707099" y="-150" type="qcurve" smooth="yes"/>
			<point x="-29.2646771307" y="-161.9402985075"/>
			<point x="-28.5570007898" y="-180.2985074627"/>
			<point x="-21.2815572194" y="-190" type="qcurve" smooth="yes"/>
			<point x="1.6640725029" y="-220.5970149254"/>
			<point x="103.0575465986" y="-250"/>
		</contour>
		<contour>
			<point x="547.5132359198" y="453" type="qcurve"/>
			<point x="583.2731976911" y="596" type="line" smooth="yes"/>
			<point x="599.6956830051" y="661.671641791"/>
			<point x="546.7535693994" y="689.1791044776"/>
			<point x="529.0287010472" y="675" type="qcurve"/>
			<point x="538.7289458937" y="657.0895522388"/>
			<point x="540.4244435687" y="624.5970149254"/>
			<point x="532.7730583656" y="594" type="qcurve" smooth="yes"/>
			<point x="507.766092092" y="494" type="line" smooth="yes"/>
			<point x="504.7801856713" y="482.0597014925"/>
			<point x="505.5364578529" y="464.9701492537"/>
			<point x="510.0136538962" y="459" type="qcurve" smooth="yes"/>
			<point x="513.3715509288" y="454.5223880597"/>
			<point x="525.3003403644" y="450"/>
			<point x="532.7630269316" y="450" type="qcurve" smooth="yes"/>
			<point x="537.2406388719" y="450"/>
			<point x="544.1549229904" y="451.5074626866"/>
		</contour>
	</outline>
</glyph>
<glyph name="dieresis" format="2">
	<unicode hex="00A8"/>
	<advance width="600"/>
	<outline>
		<contour>
			<point x="341.278213408" y="668" type="qcurve"/>
			<point x="354.2818358703" y="720" type="line" smooth="yes"/>
			<point x="358.3874571988" y="736.4179104478"/>
			<point x="336.914871081" y="755"/>
			<point x="313.0342740661" y="755" type="qcurve" smooth="yes"/>
			<point x="304.0790501855" y="755"/>
			<point x="288.6274526342" y="753.4925373134"/>
			<point x="282.2840650779" y="752" type="qcurve"/>
			<point x="269.2804426156" y="700" type="line" smooth="yes"/>
			<point x="265.1748212871" y="683.5820895522"/>
			<point x="287.3936760616" y="665"/>
			<point x="310.5280044198" y="665" type="qcurve" smooth="yes"/>
			<point x="319.4832283004" y="665"/>
			<point x="334.9348258517" y="666.5074626866"/>
		</contour>
		<contour>
			<point x="541.278213408" y="668" type="qcurve"/>
			<point x="554.2818358703" y="720" type="line" smooth="yes"/>
			<point x="558.3874571988" y="736.4179104478"/>
			<point x="536.914871081" y="755"/>
			<point x="513.0342740661" y="755" type="qcurve" smooth="yes"/>
			<point x="504.0790501855" y="755"/>
			<point x="488.6274526342" y="753.4925373134"/>
			<point x="482.2840650779" y="752" type="qcurve"/>
			<point x="469.2804426156" y="700" type="line" smooth="yes"/>
			<point x="465.1748212871" y="683.5820895522"/>
			<point x="487.3936760616" y="665"/>
			<point x="510.5280044198" y="665" type="qcurve" smooth="yes"/>
			<point x="519.4832283004" y="665"/>
			<point x="534.9348258517" y="666.5074626866"/>
		</contour>
	</outline>
</glyph>
<glyph name="copyright" format="2">
	<unicode hex="00A9"/>
	<advance width="600"/>
	<outline>
		<contour>
			<point x="413.0314875566" y="715" type="qcurve" smooth="yes"/>
			<point x="281.6882039745" y="715"/>
			<point x="89.1826158154" y="527.6567164179"/>
			<point x="47.0066876226" y="359" type="qcurve" smooth="yes"/>
			<point x="45.0061303208" y="351" type="line" smooth="yes"/>
			<point x="0.964010615" y="174.8805970149"/>
			<point x="96.8985442072" y="-15"/>
			<point x="230.4806337594" y="-15" type="qcurve" smooth="yes"/>
			<point x="250.6298874908" y="-15"/>
			<point x="271.3700555234" y="4.552238806"/>
			<point x="273.9827236415" y="15" type="qcurve"/>
			<point x="150.1021266266" y="15"/>
			<point x="48.8818981885" y="174.552238806"/>
			<point x="89.005015717" y="335" type="qcurve" smooth="yes"/>
			<point x="96.7571752618" y="366" type="line" smooth="yes"/>
			<point x="132.9612906131" y="510.776119403"/>
			<point x="292.3229895274" y="668"/>
			<point x="401.278213408" y="668" type="qcurve" smooth="yes"/>
			<point x="461.7259746021" y="668"/>
			<point x="547.1073490523" y="625.5970149254"/>
			<point x="576.0231280283" y="595" type="qcurve"/>
			<point x="620.0550582592" y="624.8507462687"/>
			<point x="480.9419353178" y="715"/>
		</contour>
		<contour>
			<point x="230.4806337594" y="-15" type="qcurve" smooth="yes"/>
			<point x="361.8239173415" y="-15"/>
			<point x="554.3295055006" y="172.3432835821"/>
			<point x="596.5054336934" y="341" type="qcurve" smooth="yes"/>
			<point x="598.5059909953" y="349" type="line" smooth="yes"/>
			<point x="642.548110701" y="525.1194029851"/>
			<point x="546.6135771089" y="715"/>
			<point x="413.0314875566" y="715" type="qcurve" smooth="yes"/>
			<point x="392.8822338253" y="715"/>
			<point x="372.1420657927" y="695.447761194"/>
			<point x="369.5293976745" y="685" type="qcurve"/>
			<point x="493.4099946895" y="685"/>
			<point x="594.6302231276" y="525.447761194"/>
			<point x="554.5071055991" y="365" type="qcurve" smooth="yes"/>
			<point x="546.7549460542" y="334" type="line" smooth="yes"/>
			<point x="510.5508307029" y="189.223880597"/>
			<point x="351.1891317886" y="32"/>
			<point x="242.233907908" y="32" type="qcurve" smooth="yes"/>
			<point x="181.786146714" y="32"/>
			<point x="96.4047722637" y="74.4029850746"/>
			<point x="67.4889932877" y="105" type="qcurve"/>
			<point x="22.7107944001" y="75.1492537313"/>
			<point x="162.5701859982" y="-15"/>
		</contour>
		<contour>
			<point x="371.7680426486" y="522" type="qcurve" smooth="yes"/>
			<point x="405.3501322008" y="522"/>
			<point x="435.0493830537" y="489.8208955224"/>
			<point x="441.7633055826" y="454" type="qcurve"/>
			<point x="454.4498727467" y="454"/>
			<point x="466.70815579" y="465.776119403"/>
			<point x="468.0144898491" y="471" type="qcurve" smooth="yes"/>
			<point x="472.3067303289" y="488.1641791045"/>
			<point x="468.2714485525" y="517.328358209"/>
			<point x="456.5188089387" y="533" type="qcurve" smooth="yes"/>
			<point x="443.646870314" y="550.1641791045"/>
			<point x="409.3830481075" y="566"/>
			<point x="381.771107809" y="566" type="qcurve" smooth="yes"/>
			<point x="316.0994660179" y="566"/>
			<point x="211.0688036888" y="447.223880597"/>
			<point x="184.7555033561" y="342" type="qcurve" smooth="yes"/>
			<point x="182.004737066" y="331" type="line" smooth="yes"/>
			<point x="174.1667327116" y="299.6567164179"/>
			<point x="180.5423303535" y="174.328358209"/>
			<point x="227.7449146203" y="190" type="qcurve"/>
			<point x="218.7921861213" y="225.8208955224"/>
			<point x="217.2026632872" y="279.8059701493"/>
			<point x="232.5054336934" y="341" type="qcurve" smooth="yes"/>
			<point x="235.2561999835" y="352" type="line" smooth="yes"/>
			<point x="256.7174023825" y="437.8208955224"/>
			<point x="327.7381919023" y="522"/>
		</contour>
		<contour>
			<point x="275.7410135071" y="134" type="qcurve" smooth="yes"/>
			<point x="310.8156403727" y="134"/>
			<point x="364.0037276402" y="155.8208955224"/>
			<point x="378.7435213656" y="170" type="qcurve" smooth="yes"/>
			<point x="388.4456377483" y="178.9552238806"/>
			<point x="397.1968116174" y="195.8059701493"/>
			<point x="399.9960988868" y="207" type="qcurve" smooth="yes"/>
			<point x="402.048909551" y="215.2089552239"/>
			<point x="404.1208728888" y="230.5373134328"/>
			<point x="403.7482584316" y="238" type="qcurve"/>
			<point x="399.7482584316" y="238" type="line"/>
			<point x="374.932694124" y="207.4029850746"/>
			<point x="317.8263075452" y="180"/>
			<point x="284.2442179929" y="180" type="qcurve" smooth="yes"/>
			<point x="242.4531732168" y="180"/>
			<point x="197.7161351005" y="258.9402985075"/>
			<point x="216.0058516698" y="347" type="qcurve"/>
			<point x="200.3342098788" y="347"/>
			<point x="184.9906434868" y="342.9402985075"/>
			<point x="182.004737066" y="331" type="qcurve" smooth="yes"/>
			<point x="155.3181984308" y="224.2835820896"/>
			<point x="209.3231030593" y="134"/>
		</contour>
		<contour>
			<point x="453.0103100849" y="411" type="qcurve"/>
			<point x="468.0144898491" y="471" type="line" smooth="yes"/>
			<point x="471.0003962698" y="482.9402985075"/>
			<point x="446.1088456974" y="539.9552238806"/>
			<point x="414.0186696132" y="531" type="qcurve"/>
			<point x="423.3456761572" y="511.5970149254"/>
			<point x="423.9337706772" y="490.671641791"/>
			<point x="420.0147685" y="475" type="qcurve" smooth="yes"/>
			<point x="412.7627482807" y="446" type="line" smooth="yes"/>
			<point x="407.910650347" y="426.5970149254"/>
			<point x="420.5921209862" y="407"/>
			<point x="437.010031434" y="407" type="qcurve" smooth="yes"/>
			<point x="442.9801806877" y="407"/>
			<point x="449.4653780042" y="408.7611940299"/>
		</contour>
	</outline>
</glyph>
<glyph name="uni00AD" format="2">
	<unicode hex="00AD"/>
	<advance width="600"/>
	<outline>
		<contour>
			<point x="125.5043190896" y="325" type="line"/>
			<point x="124.9444616357" y="322.7611940299"/>
			<point x="123.5634799162" y="317.2388059701"/>
			<point x="123.0036224623" y="315" type="qcurve" smooth="yes"/>
			<point x="120.0177160415" y="303.0597014925"/>
			<point x="120.7739882231" y="285.9701492537"/>
			<point x="125.2511842665" y="280" type="qcurve" smooth="yes"/>
			<point x="126.9301327828" y="277.7611940299"/>
			<point x="132.2694926692" y="275"/>
			<point x="136.0008359528" y="275" type="qcurve" smooth="yes"/>
			<point x="493.0008359528" y="275" type="line"/>
			<point x="493.5606934067" y="277.2388059701"/>
			<point x="494.9416751263" y="282.7611940299"/>
			<point x="495.5015325802" y="285" type="qcurve" smooth="yes"/>
			<point x="499.6071539087" y="301.4179104478"/>
			<point x="495.9371549105" y="325"/>
			<point x="482.5043190896" y="325" type="qcurve" smooth="yes"/>
		</contour>
	</outline>
</glyph>
<glyph name="macron" format="2">
	<unicode hex="00AF"/>
	<advance width="600"/>
	<outline>
		<contour>
			<point x="229.0331594623" y="739" type="line"/>
			<point x="228.4733020084" y="736.7611940299"/>
			<point x="227.0923202888" y="731.2388059701"/>
			<point x="226.5324628349" y="729" type="qcurve" smooth="yes"/>
			<point x="222.4268415064" y="712.5820895522"/>
			<point x="225.8480842857" y="689"/>
			<point x="239.5296763255" y="689" type="qcurve" smooth="yes"/>
			<point x="596.5296763255" y="689" type="line"/>
			<point x="597.0895337794" y="691.2388059701"/>
			<point x="598.470515499" y="696.7611940299"/>
			<point x="599.0303729529" y="699" type="qcurve" smooth="yes"/>
			<point x="603.1359942814" y="715.4179104478"/>
			<point x="599.4659952832" y="739"/>
			<point x="586.0331594623" y="739" type="qcurve" smooth="yes"/>
		</contour>
	</outline>
</glyph>
<glyph name="plusminus" format="2">
	<unicode hex="00B1"/>
	<advance width="600"/>
	<outline>
		<contour>
			<point x="94.2595437948" y="400" type="line"/>
			<point x="93.6996863409" y="397.7611940299"/>
			<point x="92.3187046213" y="392.2388059701"/>
			<point x="91.7588471675" y="390" type="qcurve" smooth="yes"/>
			<point x="88.7729407467" y="378.0597014925"/>
			<point x="89.5292129283" y="360.9701492537"/>
			<point x="94.0064089717" y="355" type="qcurve" smooth="yes"/>
			<point x="95.685357488" y="352.7611940299"/>
			<point x="101.0247173744" y="350"/>
			<point x="104.756060658" y="350" type="qcurve" smooth="yes"/>
			<point x="561.756060658" y="350" type="line"/>
			<point x="562.3159181119" y="352.2388059701"/>
			<point x="563.6968998315" y="357.7611940299"/>
			<point x="564.2567572854" y="360" type="qcurve" smooth="yes"/>
			<point x="568.3623786139" y="376.4179104478"/>
			<point x="564.6923796157" y="400"/>
			<point x="551.2595437948" y="400" type="qcurve" smooth="yes"/>
		</contour>
		<contour>
			<point x="312.9966561887" y="215" type="qcurve"/>
			<point x="374.7638628844" y="462" type="line" smooth="yes"/>
			<point x="379.8025799694" y="482.1492537313"/>
			<point x="382.7339063764" y="514.0447761194"/>
			<point x="376.0181123113" y="523" type="qcurve" smooth="yes"/>
			<point x="370.4216172571" y="530.4626865672"/>
			<point x="355.4816348313" y="535"/>
			<point x="348.0189482642" y="535" type="qcurve" smooth="yes"/>
			<point x="344.2876049806" y="535"/>
			<point x="335.3733208621" y="533.4925373134"/>
			<point x="331.268739276" y="532" type="qcurve"/>
			<point x="332.9464401014" y="511.8507462687"/>
			<point x="329.2837787288" y="480.0746268657"/>
			<point x="320.5126786179" y="445" type="qcurve" smooth="yes"/>
			<point x="268.7482584316" y="238" type="line" smooth="yes"/>
			<point x="265.3891137083" y="224.5671641791"/>
			<point x="286.5787457409" y="215"/>
			<point x="302.9966561887" y="215" type="qcurve" smooth="yes"/>
			<point x="305.2354621588" y="215"/>
			<point x="310.7578502185" y="215"/>
		</contour>
		<contour>
			<point x="31.7421281108" y="150" type="line"/>
			<point x="31.182270657" y="147.7611940299"/>
			<point x="29.8012889374" y="142.2388059701"/>
			<point x="29.2414314835" y="140" type="qcurve" smooth="yes"/>
			<point x="26.2555250628" y="128.0597014925"/>
			<point x="27.0117972444" y="110.9701492537"/>
			<point x="31.4889932877" y="105" type="qcurve" smooth="yes"/>
			<point x="33.167941804" y="102.7611940299"/>
			<point x="38.5073016905" y="100"/>
			<point x="42.238644974" y="100" type="qcurve" smooth="yes"/>
			<point x="499.238644974" y="100" type="line"/>
			<point x="499.7985024279" y="102.2388059701"/>
			<point x="501.1794841475" y="107.7611940299"/>
			<point x="501.7393416014" y="110" type="qcurve" smooth="yes"/>
			<point x="505.8449629299" y="126.4179104478"/>
			<point x="502.1749639317" y="150"/>
			<point x="488.7421281108" y="150" type="qcurve" smooth="yes"/>
		</contour>
	</outline>
</glyph>
<glyph name="twosuperior" format="2">
	<unicode hex="00B2"/>
	<advance width="600"/>
	<outline>
		<contour>
			<point x="404.2776561062" y="660" type="qcurve" smooth="yes"/>
			<point x="455.0239247629" y="660"/>
			<point x="479.8016929053" y="630.1044776119"/>
			<point x="472.5235460047" y="601" type="qcurve"/>
			<point x="497.7104770787" y="606.223880597"/>
			<point x="517.9725465716" y="618.7910447761"/>
			<point x="520.0253572359" y="627" type="qcurve" smooth="yes"/>
			<point x="526.9302658338" y="654.6119402985"/>
			<point x="488.676661631" y="710"/>
			<point x="417.7811392429" y="710" type="qcurve" smooth="yes"/>
			<point x="375.2438258101" y="710"/>
			<point x="311.0707512541" y="689.4328358209"/>
			<point x="294.2787707099" y="676" type="qcurve" smooth="yes"/>
			<point x="286.8156682458" y="670.0298507463"/>
			<point x="277.2621692722" y="651.9402985075"/>
			<point x="274.2762628514" y="640" type="qcurve" smooth="yes"/>
			<point x="272.9699287924" y="634.776119403"/>
			<point x="271.8385966796" y="624.223880597"/>
			<point x="272.024799934" y="619" type="qcurve"/>
			<point x="274.024799934" y="619" type="line"/>
			<point x="307.7949642768" y="640.6417910448"/>
			<point x="371.4418352106" y="660"/>
		</contour>
		<contour>
			<point x="524.3175977157" y="644.1641791045"/>
			<point x="499.3562233033" y="663"/>
			<point x="465.0278650944" y="663" type="qcurve"/>
			<point x="469.8778835434" y="652.552238806"/>
			<point x="471.197325506" y="631.6865671642"/>
			<point x="468.024799934" y="619" type="qcurve" smooth="yes"/>
			<point x="463.3593211516" y="600.3432835821"/>
			<point x="429.0999110276" y="572.3880597015"/>
			<point x="369.7699932052" y="550" type="qcurve" smooth="yes"/>
			<point x="277.6034226934" y="515.671641791"/>
			<point x="215.7745027316" y="454.0447761194"/>
			<point x="205.5104494104" y="413" type="qcurve" smooth="yes"/>
			<point x="201.7780663845" y="398.0746268657"/>
			<point x="217.4121805558" y="395"/>
			<point x="248.0091954811" y="395" type="qcurve"/>
			<point x="259.3929637102" y="440.5223880597"/>
			<point x="299.5298789473" y="477.6567164179"/>
			<point x="377.517137033" y="509" type="qcurve" smooth="yes"/>
			<point x="449.3474187653" y="536.6119402985"/>
			<point x="509.2611645891" y="583.9552238806"/>
			<point x="519.5252179104" y="625" type="qcurve" smooth="yes"/>
			<point x="520.0253572359" y="627" type="line" smooth="yes"/>
		</contour>
		<contour>
			<point x="456.2573145873" y="368" type="line"/>
			<point x="458.8695668085" y="372.4776119403"/>
			<point x="462.388783946" y="380.5223880597"/>
			<point x="463.5084988538" y="385" type="qcurve" smooth="yes"/>
			<point x="468.1739776362" y="403.6567164179"/>
			<point x="444.8354245897" y="418"/>
			<point x="409.7607977241" y="418" type="qcurve" smooth="yes"/>
			<point x="373.7607977241" y="418" type="line" smooth="yes"/>
			<point x="335.7010962315" y="418"/>
			<point x="248.6076202971" y="415.2388059701"/>
			<point x="205.5104494104" y="413" type="qcurve"/>
			<point x="205.3238302591" y="412.2537313433"/>
			<point x="204.9468595735" y="410.7462686567"/>
			<point x="204.7602404222" y="410" type="qcurve" smooth="yes"/>
			<point x="200.6546190937" y="393.5820895522"/>
			<point x="215.5856727962" y="368"/>
			<point x="231.2573145873" y="368" type="qcurve" smooth="yes"/>
		</contour>
	</outline>
</glyph>
<glyph name="uni00B5" format="2">
	<unicode hex="00B5"/>
	<advance width="600"/>
	<outline>
		<contour>
			<point x="154.7683212995" y="526" type="qcurve"/>
			<point x="153.4601157043" y="493.9104477612"/>
			<point x="143.5307832312" y="437.0746268657"/>
			<point x="134.7596831203" y="402" type="qcurve" smooth="yes"/>
			<point x="66.4906651934" y="129" type="line"/>
			<point x="60.1456140493" y="103.6268656716"/>
			<point x="74.5802566505" y="76"/>
			<point x="93.2369730684" y="76" type="qcurve"/>
			<point x="129.8124551861" y="195.4029850746"/>
			<point x="164.6005250955" y="313.3880597015"/>
			<point x="184.0089168302" y="391" type="qcurve" smooth="yes"/>
			<point x="185.2592651439" y="396" type="line" smooth="yes"/>
			<point x="204.8542760299" y="474.3582089552"/>
			<point x="186.6714456996" y="528"/>
			<point x="167.268460625" y="528" type="qcurve" smooth="yes"/>
			<point x="163.5371173414" y="528"/>
			<point x="157.193746421" y="526.7462686567"/>
		</contour>
		<contour>
			<point x="52.4942288462" y="73.0298507463"/>
			<point x="107.8241959925" y="-11"/>
			<point x="176.4809124104" y="-11" type="qcurve" smooth="yes"/>
			<point x="235.436136291" y="-11"/>
			<point x="375.0895783963" y="102.6865671642"/>
			<point x="432.7449146203" y="190" type="qcurve" smooth="yes"/>
			<point x="448.2316008478" y="213.1343283582"/>
			<point x="465.727552675" y="262.1492537313"/>
			<point x="461.2520202193" y="292" type="qcurve"/>
			<point x="377.1007155323" y="155.4328358209"/>
			<point x="237.4620074875" y="39"/>
			<point x="182.9843955472" y="39" type="qcurve" smooth="yes"/>
			<point x="141.193350771" y="39"/>
			<point x="105.0967520345" y="98.5373134328"/>
			<point x="114.2425460873" y="156" type="qcurve"/>
			<point x="85.5110988294" y="154.5074626866"/>
			<point x="68.7300950089" y="137.9552238806"/>
			<point x="66.4906651934" y="129" type="qcurve" smooth="yes"/>
		</contour>
		<contour>
			<point x="556.5185302877" y="529" type="line"/>
			<point x="553.7200748122" y="529.7462686567"/>
			<point x="547.4962815535" y="531"/>
			<point x="543.0186696132" y="531" type="qcurve" smooth="yes"/>
			<point x="529.5858337923" y="531"/>
			<point x="504.6262120936" y="521.4328358209"/>
			<point x="501.2670673703" y="508" type="qcurve" smooth="yes"/>
			<point x="393.7371123939" y="78" type="line" smooth="yes"/>
			<point x="385.7124888882" y="45.9104477612"/>
			<point x="421.0682523694" y="10.8059701493"/>
			<point x="450.7332112806" y="22" type="qcurve"/>
			<point x="441.2191696885" y="34.6865671642"/>
			<point x="438.7693105864" y="58.1343283582"/>
			<point x="445.487600033" y="85" type="qcurve" smooth="yes"/>
		</contour>
		<contour>
			<point x="505.2350225118" y="48" type="line"/>
			<point x="501.2350225118" y="48" type="line"/>
			<point x="492.4660018855" y="42.776119403"/>
			<point x="474.4358184217" y="38"/>
			<point x="464.7343258844" y="38" type="qcurve" smooth="yes"/>
			<point x="448.3164154367" y="38"/>
			<point x="430.157757072" y="63.6865671642"/>
			<point x="439.4887146368" y="101" type="qcurve"/>
			<point x="417.4738932379" y="102.4925373134"/>
			<point x="397.2828762685" y="92.1791044776"/>
			<point x="393.7371123939" y="78" type="qcurve" smooth="yes"/>
			<point x="384.0329165265" y="39.1940298507"/>
			<point x="412.4026238641" y="-10"/>
			<point x="446.7309820731" y="-10" type="qcurve" smooth="yes"/>
			<point x="449.7309820731" y="-10" type="line" smooth="yes"/>
			<point x="469.1339671477" y="-10"/>
			<point x="497.6993411825" y="17.8656716418"/>
			<point x="503.4845348726" y="41" type="qcurve"/>
		</contour>
		<contour>
			<point x="95.49261575" y="157" type="line"/>
			<point x="57.6132949548" y="68.1940298507"/>
			<point x="13.6975005466" y="-62.1194029851"/>
			<point x="-4.7777954316" y="-136" type="qcurve" smooth="yes"/>
			<point x="-13.7355146938" y="-171.8208955224"/>
			<point x="2.292094368" y="-204"/>
			<point x="17.2174675023" y="-204" type="qcurve" smooth="yes"/>
			<point x="22.4413480993" y="-204"/>
			<point x="30.1131645671" y="-201.4925373134"/>
			<point x="34.2177461533" y="-200" type="qcurve"/>
			<point x="37.9501291792" y="-185.0746268657"/>
			<point x="43.3098312044" y="-163.6417910448"/>
			<point x="48.721786592" y="-142" type="qcurve" smooth="yes"/>
			<point x="62.7182229391" y="-86.0298507463"/>
			<point x="107.4627650037" y="157"/>
			<point x="101.49261575" y="157" type="qcurve" smooth="yes"/>
		</contour>
	</outline>
</glyph>
<glyph name="paragraph" format="2">
	<unicode hex="00B6"/>
	<advance width="600"/>
	<outline>
		<contour>
			<point x="254.9707416509" y="-157" type="qcurve"/>
			<point x="445.2737549929" y="604" type="line" smooth="yes"/>
			<point x="454.4180934064" y="640.5671641791"/>
			<point x="437.4460541931" y="667"/>
			<point x="421.0281437453" y="667" type="qcurve" smooth="yes"/>
			<point x="418.7893377752" y="667"/>
			<point x="413.2669497155" y="667"/>
			<point x="411.0281437453" y="667" type="qcurve"/>
			<point x="219.2247124269" y="-100" type="line" smooth="yes"/>
			<point x="212.5064229802" y="-126.8656716418"/>
			<point x="222.8175475881" y="-160"/>
			<point x="242.2205326627" y="-160" type="qcurve" smooth="yes"/>
			<point x="245.2056072896" y="-160"/>
			<point x="251.6124287215" y="-158.4925373134"/>
		</contour>
		<contour>
			<point x="411.9707416509" y="-157" type="qcurve"/>
			<point x="414.024800006" y="-130.8805970149"/>
			<point x="424.8232869657" y="-77.6119402985"/>
			<point x="431.7281955637" y="-50" type="qcurve" smooth="yes"/>
			<point x="603.5260538632" y="637" type="line" smooth="yes"/>
			<point x="606.8851985865" y="650.4328358209"/>
			<point x="585.6955665539" y="660"/>
			<point x="569.2776561062" y="660" type="qcurve" smooth="yes"/>
			<point x="567.038850136" y="660"/>
			<point x="561.5164620763" y="660"/>
			<point x="559.2776561062" y="660" type="qcurve"/>
			<point x="369.2247124269" y="-100" type="line" smooth="yes"/>
			<point x="363.0662804341" y="-124.6268656716"/>
			<point x="373.3250102747" y="-160"/>
			<point x="394.2205326627" y="-160" type="qcurve" smooth="yes"/>
			<point x="398.698144603" y="-160"/>
			<point x="407.119891408" y="-158.4925373134"/>
		</contour>
		<contour>
			<point x="465.7811392429" y="710" type="line" smooth="yes"/>
			<point x="341.900542228" y="710"/>
			<point x="137.464216448" y="552.776119403"/>
			<point x="101.2601010967" y="408" type="qcurve" smooth="yes"/>
			<point x="97.5090561557" y="393" type="line" smooth="yes"/>
			<point x="71.195755823" y="287.776119403"/>
			<point x="166.3475810011" y="164"/>
			<point x="287.2431033891" y="164" type="qcurve" smooth="yes"/>
			<point x="302.2431033891" y="164" type="line" smooth="yes"/>
			<point x="315.67593921" y="164"/>
			<point x="331.3942785643" y="191.5820895522"/>
			<point x="336.2461685495" y="208" type="qcurve"/>
			<point x="318.2461685495" y="208" type="line" smooth="yes"/>
			<point x="207.7984073555" y="208"/>
			<point x="127.104118153" y="311.4029850746"/>
			<point x="147.2589864929" y="392" type="qcurve" smooth="yes"/>
			<point x="151.2601010967" y="408" type="line" smooth="yes"/>
			<point x="178.6931163371" y="517.7014925373"/>
			<point x="338.0985516285" y="660"/>
			<point x="452.2776561062" y="660" type="qcurve" smooth="yes"/>
			<point x="518.6955665539" y="660"/>
			<point x="601.1117052807" y="634.5671641791"/>
			<point x="630.7733370165" y="598" type="qcurve"/>
			<point x="634.7733370165" y="598" type="line"/>
			<point x="638.8783344996" y="605.4626865672"/>
			<point x="643.7821950373" y="618.0298507463"/>
			<point x="645.2751482477" y="624" type="qcurve" smooth="yes"/>
			<point x="648.0744355171" y="635.1940298507"/>
			<point x="648.5642926667" y="650.2835820896"/>
			<point x="643.5274471179" y="657" type="qcurve" smooth="yes"/>
			<point x="626.1783124499" y="680.1343283582"/>
			<point x="541.9303929743" y="710"/>
			<point x="471.7811392429" y="710" type="qcurve" smooth="yes"/>
		</contour>
	</outline>
</glyph>
<glyph name="onesuperior" format="2">
	<unicode hex="00B9"/>
	<advance width="600"/>
	<outline>
		<contour>
			<point x="382.0089168302" y="391" type="qcurve"/>
			<point x="400.4842128084" y="464.8805970149"/>
			<point x="437.7408601731" y="613.8656716418"/>
			<point x="456.029537" y="687" type="qcurve" smooth="yes"/>
			<point x="459.3886817233" y="700.4328358209"/>
			<point x="438.1990496907" y="710"/>
			<point x="421.7811392429" y="710" type="qcurve" smooth="yes"/>
			<point x="411.7811392429" y="710" type="line"/>
			<point x="396.664987988" y="649.552238806"/>
			<point x="365.5667726161" y="525.1940298507"/>
			<point x="350.2640022099" y="464" type="qcurve" smooth="yes"/>
			<point x="341.3062829477" y="428.1791044776"/>
			<point x="354.3969765317" y="391"/>
		</contour>
		<contour>
			<point x="227.2606583986" y="416" type="line"/>
			<point x="225.02164448" y="413.0149253731"/>
			<point x="221.5658778539" y="405.223880597"/>
			<point x="220.2595437948" y="400" type="qcurve" smooth="yes"/>
			<point x="216.7137799202" y="385.8208955224"/>
			<point x="225.0855334708" y="366"/>
			<point x="240.7571752618" y="366" type="qcurve" smooth="yes"/>
			<point x="469.7571752618" y="366" type="line"/>
			<point x="470.1304135644" y="367.4925373134"/>
			<point x="471.3844942611" y="372.5074626866"/>
			<point x="471.7577325637" y="374" type="qcurve" smooth="yes"/>
			<point x="476.0499730435" y="391.1641791045"/>
			<point x="423.0367778016" y="416"/>
			<point x="378.2606583986" y="416" type="qcurve" smooth="yes"/>
		</contour>
		<contour>
			<point x="271.2692965778" y="540" type="qcurve" smooth="yes"/>
			<point x="290.6722816525" y="540"/>
			<point x="412.381605529" y="652.4179104478"/>
			<point x="420.7794673373" y="686" type="qcurve" smooth="yes"/>
			<point x="423.3921354554" y="696.447761194"/>
			<point x="421.4975571534" y="710"/>
			<point x="414.7811392429" y="710" type="qcurve" smooth="yes"/>
			<point x="398.7811392429" y="710" type="line"/>
			<point x="368.3678321904" y="668.9552238806"/>
			<point x="301.5277400334" y="607.6417910448"/>
			<point x="264.7725010637" y="586" type="qcurve"/>
			<point x="263.52215275" y="581" type="line" smooth="yes"/>
			<point x="257.3637207573" y="556.3731343284"/>
			<point x="266.0454159808" y="540"/>
		</contour>
	</outline>
</glyph>
<glyph name="ordmasculine" format="2">
	<unicode hex="00BA"/>
	<advance width="600"/>
	<outline>
		<contour>
			<point x="424.034831368" y="763" type="qcurve" smooth="yes"/>
			<point x="342.8376427081" y="763"/>
			<point x="195.399925404" y="624.4989695872"/>
			<point x="165.2667887194" y="504" type="qcurve" smooth="yes"/>
			<point x="163.2662314175" y="496" type="line" smooth="yes"/>
			<point x="138.0173810937" y="395.0327333291"/>
			<point x="215.9101036709" y="283"/>
			<point x="304.0013932547" y="283" type="qcurve" smooth="yes"/>
			<point x="318.926766389" y="283"/>
			<point x="333.2640533212" y="304.0447761194"/>
			<point x="335.5034831368" y="313" type="qcurve"/>
			<point x="237.9963576796" y="325.2844700758"/>
			<point x="199.1144915229" y="439.4088096105"/>
			<point x="213.7663707429" y="498" type="qcurve" smooth="yes"/>
			<point x="215.2667887194" y="504" type="line" smooth="yes"/>
			<point x="236.1098768923" y="587.349127379"/>
			<point x="339.5944131881" y="713"/>
			<point x="414.5313482312" y="713" type="qcurve" smooth="yes"/>
			<point x="442.8895571864" y="713"/>
			<point x="490.2617474287" y="699.447761194"/>
			<point x="511.5296763255" y="689" type="qcurve"/>
			<point x="524.5901056377" y="699.447761194"/>
			<point x="483.7363239053" y="763"/>
		</contour>
		<contour>
			<point x="304.0013932547" y="283" type="qcurve" smooth="yes"/>
			<point x="392.7813739483" y="283"/>
			<point x="528.2250410893" y="395.8631419175"/>
			<point x="554.0164404057" y="499" type="qcurve" smooth="yes"/>
			<point x="556.0169977076" y="507" type="line" smooth="yes"/>
			<point x="584.3578044128" y="620.3316468505"/>
			<point x="508.4485835028" y="763"/>
			<point x="424.034831368" y="763" type="qcurve" smooth="yes"/>
			<point x="409.1094582336" y="763"/>
			<point x="393.3914682328" y="740.4328358209"/>
			<point x="390.0323235095" y="727" type="qcurve"/>
			<point x="475.1405830638" y="719.0153776236"/>
			<point x="527.2570656508" y="591.9366041082"/>
			<point x="505.5168583821" y="505" type="qcurve" smooth="yes"/>
			<point x="504.0164404057" y="499" type="line" smooth="yes"/>
			<point x="486.3618673616" y="428.4013801958"/>
			<point x="390.0410268083" y="333"/>
			<point x="313.5048763915" y="333" type="qcurve" smooth="yes"/>
			<point x="289.6242793766" y="333"/>
			<point x="251.2260913811" y="348.2985074627"/>
			<point x="232.7566179599" y="358" type="qcurve"/>
			<point x="218.7633008397" y="346.8059701493"/>
			<point x="253.255124598" y="283"/>
		</contour>
	</outline>
	<guideline x="-65.7683212995" y="0" angle="179.1517819709" identifier="MLS7uD2D7y"/>
	<guideline x="-15.7683212995" y="0" angle="179.1517819709" identifier="ytpzmlsJW8"/>
	<guideline x="34.2316787005" y="0" angle="179.1517819709" identifier="gPwbVuqhQx"/>
	<guideline x="84.2316787005" y="0" angle="179.1517819709" identifier="0x3cglH3fb"/>
	<guideline x="134.2316787005" y="0" angle="179.1517819709" identifier="7sQmWQ1siw"/>
	<guideline x="184.2316787005" y="0" angle="179.1517819709" identifier="5WhwDqW0HG"/>
	<guideline x="234.2316787005" y="0" angle="179.1517819709" identifier="68xHgrg5OE"/>
	<guideline x="284.2316787005" y="0" angle="179.1517819709" identifier="kQPxfNh0sl"/>
	<guideline x="334.2316787005" y="0" angle="179.1517819709" identifier="EoqTUW5kfA"/>
	<guideline x="384.2316787005" y="0" angle="179.1517819709" identifier="OWUZssPl1X"/>
	<guideline x="434.2316787005" y="0" angle="179.1517819709" identifier="bMRbpEkQGT"/>
	<guideline x="484.2316787005" y="0" angle="179.1517819709" identifier="bKObKiBPfn"/>
	<guideline x="534.2316787005" y="0" angle="179.1517819709" identifier="qxb4Uk4GmY"/>
	<guideline x="-128.2857369835" y="-250" angle="180" identifier="aX7yW0EQR3"/>
	<guideline x="-115.7822538467" y="-200" angle="180" identifier="2VvmTBjz1v"/>
	<guideline x="-103.2787707099" y="-150" angle="180" identifier="gBJp0xhUSN"/>
	<guideline x="-90.7752875731" y="-100" angle="180" identifier="8fp9vOvvSx"/>
	<guideline x="-78.2718044363" y="-50" angle="180" identifier="nU2TUkWrGF"/>
	<guideline x="-65.7683212995" y="0" angle="180" identifier="PFs3LW0ZqI"/>
	<guideline x="-53.2648381627" y="50" angle="180" identifier="P3jy5bhwno"/>
	<guideline x="-40.761355026" y="100" angle="180" identifier="1RxY9IKnDC"/>
	<guideline x="-28.2578718892" y="150" angle="180" identifier="7h88J2CN6W"/>
	<guideline x="-15.7543887524" y="200" angle="180" identifier="fycH2LgAUW"/>
	<guideline x="-3.2509056156" y="250" angle="180" identifier="xWkgl5M9oO"/>
	<guideline x="9.2525775212" y="300" angle="180" identifier="iSSOBGhk6x"/>
	<guideline x="21.756060658" y="350" angle="180" identifier="gMoV90XHT7"/>
	<guideline x="34.2595437948" y="400" angle="180" identifier="LOmnyna6x6"/>
	<guideline x="46.7630269316" y="450" angle="180" identifier="81RSVUwnsa"/>
	<guideline x="59.2665100684" y="500" angle="180" identifier="681AxmoRRL"/>
	<guideline x="71.7699932052" y="550" angle="180" identifier="gKO68IYjRF"/>
	<guideline x="84.273476342" y="600" angle="180" identifier="94vbD0nuhd"/>
	<guideline x="96.7769594788" y="650" angle="180" identifier="3me6syLoVU"/>
	<guideline x="109.2804426156" y="700" angle="180" identifier="byDY7A0y09"/>
</glyph>
<glyph name="onequarter" format="2">
	<unicode hex="00BC"/>
	<advance width="600"/>
	<outline>
		<contour>
			<point x="232.0089168302" y="391" type="qcurve"/>
			<point x="250.4842128084" y="464.8805970149"/>
			<point x="287.7408601731" y="613.8656716418"/>
			<point x="306.029537" y="687" type="qcurve" smooth="yes"/>
			<point x="309.3886817233" y="700.4328358209"/>
			<point x="288.1990496907" y="710"/>
			<point x="271.7811392429" y="710" type="qcurve" smooth="yes"/>
			<point x="261.7811392429" y="710" type="line"/>
			<point x="246.664987988" y="649.552238806"/>
			<point x="215.5667726161" y="525.1940298507"/>
			<point x="200.2640022099" y="464" type="qcurve" smooth="yes"/>
			<point x="191.3062829477" y="428.1791044776"/>
			<point x="204.3969765317" y="391"/>
		</contour>
		<contour>
			<point x="77.2606583986" y="416" type="line"/>
			<point x="75.02164448" y="413.0149253731"/>
			<point x="71.5658778539" y="405.223880597"/>
			<point x="70.2595437948" y="400" type="qcurve" smooth="yes"/>
			<point x="66.7137799202" y="385.8208955224"/>
			<point x="75.0855334708" y="366"/>
			<point x="90.7571752618" y="366" type="qcurve" smooth="yes"/>
			<point x="319.7571752618" y="366" type="line"/>
			<point x="320.1304135644" y="367.4925373134"/>
			<point x="321.3844942611" y="372.5074626866"/>
			<point x="321.7577325637" y="374" type="qcurve" smooth="yes"/>
			<point x="326.0499730435" y="391.1641791045"/>
			<point x="273.0367778016" y="416"/>
			<point x="228.2606583986" y="416" type="qcurve" smooth="yes"/>
		</contour>
		<contour>
			<point x="121.2692965778" y="540" type="qcurve" smooth="yes"/>
			<point x="140.6722816525" y="540"/>
			<point x="262.381605529" y="652.4179104478"/>
			<point x="270.7794673373" y="686" type="qcurve" smooth="yes"/>
			<point x="273.3921354554" y="696.447761194"/>
			<point x="271.4975571534" y="710"/>
			<point x="264.7811392429" y="710" type="qcurve" smooth="yes"/>
			<point x="248.7811392429" y="710" type="line"/>
			<point x="218.3678321904" y="668.9552238806"/>
			<point x="151.5277400334" y="607.6417910448"/>
			<point x="114.7725010637" y="586" type="qcurve"/>
			<point x="113.52215275" y="581" type="line" smooth="yes"/>
			<point x="107.3637207573" y="556.3731343284"/>
			<point x="116.0454159808" y="540"/>
		</contour>
		<contour>
			<point x="264.9896899151" y="115" type="qcurve"/>
			<point x="298.9495926362" y="182.1641791045"/>
			<point x="386.2888449733" y="284.9850746269"/>
			<point x="456.2548067288" y="332" type="qcurve"/>
			<point x="457.005015717" y="335" type="line"/>
			<point x="448.2366189361" y="338.7313432836"/>
			<point x="435.9346078337" y="342"/>
			<point x="421.7555033561" y="342" type="qcurve" smooth="yes"/>
			<point x="406.0838615651" y="342"/>
			<point x="386.1988334603" y="331.9552238806"/>
			<point x="375.0041797642" y="323" type="qcurve" smooth="yes"/>
			<point x="333.0242284036" y="289.4179104478"/>
			<point x="240.8144366431" y="170.2835820896"/>
			<point x="229.9905258679" y="127" type="qcurve" smooth="yes"/>
			<point x="228.8708109601" y="122.5223880597"/>
			<point x="246.3329734972" y="115"/>
		</contour>
		<contour>
			<point x="513.2378090212" y="88" type="line"/>
			<point x="515.8500612424" y="92.4776119403"/>
			<point x="519.8694177054" y="102.5223880597"/>
			<point x="520.9891326132" y="107" type="qcurve" smooth="yes"/>
			<point x="523.7884198826" y="118.1940298507"/>
			<point x="514.3940682444" y="135"/>
			<point x="494.9910831698" y="135" type="qcurve" smooth="yes"/>
			<point x="402.9910831698" y="135" type="line" smooth="yes"/>
			<point x="350.7522771997" y="135"/>
			<point x="272.1550168951" y="131.4776119403"/>
			<point x="229.9905258679" y="127" type="qcurve"/>
			<point x="228.990247217" y="123" type="line" smooth="yes"/>
			<point x="226.5641982501" y="113.2985074627"/>
			<point x="238.551241857" y="88"/>
			<point x="251.2378090212" y="88" type="qcurve" smooth="yes"/>
		</contour>
		<contour>
			<point x="433.4814697123" y="-3" type="qcurve"/>
			<point x="433.2958903033" y="11.1791044776"/>
			<point x="436.5029181368" y="37.0746268657"/>
			<point x="440.2353011627" y="52" type="qcurve" smooth="yes"/>
			<point x="478.7460292241" y="206" type="line" smooth="yes"/>
			<point x="482.1051739474" y="219.4328358209"/>
			<point x="465.6922186196" y="237"/>
			<point x="454.4981887689" y="237" type="qcurve"/>
			<point x="452.4981887689" y="237" type="line"/>
			<point x="434.5852456261" y="201.1791044776"/>
			<point x="415.4027599064" y="152.6417910448"/>
			<point x="409.9908045189" y="131" type="qcurve" smooth="yes"/>
			<point x="384.9838382453" y="31" type="line" smooth="yes"/>
			<point x="379.9451211603" y="10.8507462687"/>
			<point x="399.8208129628" y="-6"/>
			<point x="417.731260724" y="-6" type="qcurve" smooth="yes"/>
			<point x="421.4626040076" y="-6"/>
			<point x="429.3768881261" y="-4.4925373134"/>
		</contour>
		<contour>
			<point x="407.5107280613" y="417" type="qcurve"/>
			<point x="416.465536045" y="411.0298507463"/>
			<point x="431.5659319205" y="406"/>
			<point x="442.7599617712" y="406" type="qcurve" smooth="yes"/>
			<point x="450.9689169951" y="406"/>
			<point x="462.4132618878" y="410.5223880597"/>
			<point x="468.0105887359" y="415" type="qcurve" smooth="yes"/>
			<point x="529.3466319867" y="464.0661001376"/>
			<point x="635.7252635631" y="605.8055311677"/>
			<point x="653.0287010472" y="675" type="qcurve" smooth="yes"/>
			<point x="656.3878457705" y="688.4328358209"/>
			<point x="638.4375770099" y="706"/>
			<point x="619.780860592" y="706" type="qcurve" smooth="yes"/>
			<point x="610.8256367114" y="706"/>
			<point x="594.9186925899" y="702.7313432836"/>
			<point x="585.0303729529" y="699" type="qcurve"/>
			<point x="558.5434859397" y="613.1159867096"/>
			<point x="481.6367344046" y="487.5915130908"/>
		</contour>
		<contour>
			<point x="235.751323592" y="282" type="qcurve"/>
			<point x="226.7965156083" y="287.9701492537"/>
			<point x="211.6961197328" y="293"/>
			<point x="200.5020898821" y="293" type="qcurve" smooth="yes"/>
			<point x="192.2931346582" y="293"/>
			<point x="180.8487897655" y="288.4776119403"/>
			<point x="175.2514629175" y="284" type="qcurve" smooth="yes"/>
			<point x="114.6137553967" y="235.4925373134"/>
			<point x="7.5889316766" y="93.4029850746"/>
			<point x="-9.7666493939" y="24" type="qcurve" smooth="yes"/>
			<point x="-13.1257941172" y="10.5671641791"/>
			<point x="4.8244746434" y="-7"/>
			<point x="23.4811910613" y="-7" type="qcurve" smooth="yes"/>
			<point x="32.4364149419" y="-7"/>
			<point x="48.3433590634" y="-3.7313432836"/>
			<point x="58.2316787005" y="0" type="qcurve"/>
			<point x="84.9167616964" y="85.8208955224"/>
			<point x="162.0523549652" y="211.1044776119"/>
		</contour>
	</outline>
	<guideline x="-65.7683212995" y="0" angle="179.1517819709" identifier="SjbpKCS1E0"/>
	<guideline x="-15.7683212995" y="0" angle="179.1517819709" identifier="kv7Lwtaqdg"/>
	<guideline x="34.2316787005" y="0" angle="179.1517819709" identifier="Mqq57v4xQD"/>
	<guideline x="84.2316787005" y="0" angle="179.1517819709" identifier="o35j39dUP0"/>
	<guideline x="134.2316787005" y="0" angle="179.1517819709" identifier="DPgATeZief"/>
	<guideline x="184.2316787005" y="0" angle="179.1517819709" identifier="To2toiabQ2"/>
	<guideline x="234.2316787005" y="0" angle="179.1517819709" identifier="4nRdZjP9fE"/>
	<guideline x="284.2316787005" y="0" angle="179.1517819709" identifier="Q8ddAMjxiJ"/>
	<guideline x="334.2316787005" y="0" angle="179.1517819709" identifier="JoshIJDUYr"/>
	<guideline x="384.2316787005" y="0" angle="179.1517819709" identifier="ZwKSebjUSO"/>
	<guideline x="434.2316787005" y="0" angle="179.1517819709" identifier="7pNe2k5nKa"/>
	<guideline x="484.2316787005" y="0" angle="179.1517819709" identifier="SyldAZKhZU"/>
	<guideline x="534.2316787005" y="0" angle="179.1517819709" identifier="V5xcHQbD1p"/>
	<guideline x="-128.2857369835" y="-250" angle="180" identifier="H4kEvRSRFH"/>
	<guideline x="-115.7822538467" y="-200" angle="180" identifier="p12pototKC"/>
	<guideline x="-103.2787707099" y="-150" angle="180" identifier="TUa8QEqrwI"/>
	<guideline x="-90.7752875731" y="-100" angle="180" identifier="AlRBfIynG1"/>
	<guideline x="-78.2718044363" y="-50" angle="180" identifier="TqUAVGBex4"/>
	<guideline x="-65.7683212995" y="0" angle="180" identifier="nHm3oi2ePY"/>
	<guideline x="-53.2648381627" y="50" angle="180" identifier="DRi28DVmU6"/>
	<guideline x="-40.761355026" y="100" angle="180" identifier="Jz6OkAxuf9"/>
	<guideline x="-28.2578718892" y="150" angle="180" identifier="4D36SmSLIr"/>
	<guideline x="-15.7543887524" y="200" angle="180" identifier="kP6l8aXwnP"/>
	<guideline x="-3.2509056156" y="250" angle="180" identifier="HrvwTzgKZN"/>
	<guideline x="9.2525775212" y="300" angle="180" identifier="rKw4sJTcP2"/>
	<guideline x="21.756060658" y="350" angle="180" identifier="NZfmLT3V55"/>
	<guideline x="34.2595437948" y="400" angle="180" identifier="NESNhh10sY"/>
	<guideline x="46.7630269316" y="450" angle="180" identifier="W8Ya1tLj1L"/>
	<guideline x="59.2665100684" y="500" angle="180" identifier="ObUeiWlaAY"/>
	<guideline x="71.7699932052" y="550" angle="180" identifier="Vd6pA8hkJ7"/>
	<guideline x="84.273476342" y="600" angle="180" identifier="F4o1lNUP64"/>
	<guideline x="96.7769594788" y="650" angle="180" identifier="cNzdJJ8kbb"/>
	<guideline x="109.2804426156" y="700" angle="180" identifier="e7aACwbdUm"/>
</glyph>
<glyph name="onehalf" format="2">
	<unicode hex="00BD"/>
	<advance width="600"/>
	<outline>
		<contour>
			<point x="232.0089168302" y="391" type="qcurve"/>
			<point x="250.4842128084" y="464.8805970149"/>
			<point x="287.7408601731" y="613.8656716418"/>
			<point x="306.029537" y="687" type="qcurve" smooth="yes"/>
			<point x="309.3886817233" y="700.4328358209"/>
			<point x="288.1990496907" y="710"/>
			<point x="271.7811392429" y="710" type="qcurve" smooth="yes"/>
			<point x="261.7811392429" y="710" type="line"/>
			<point x="246.664987988" y="649.552238806"/>
			<point x="215.5667726161" y="525.1940298507"/>
			<point x="200.2640022099" y="464" type="qcurve" smooth="yes"/>
			<point x="191.3062829477" y="428.1791044776"/>
			<point x="204.3969765317" y="391"/>
		</contour>
		<contour>
			<point x="77.2606583986" y="416" type="line"/>
			<point x="75.02164448" y="413.0149253731"/>
			<point x="71.5658778539" y="405.223880597"/>
			<point x="70.2595437948" y="400" type="qcurve" smooth="yes"/>
			<point x="66.740439799" y="385.9275053305"/>
			<point x="74.339264814" y="366"/>
			<point x="90.7571752618" y="366" type="qcurve" smooth="yes"/>
			<point x="319.7571752618" y="366" type="line"/>
			<point x="320.1304135644" y="367.4925373134"/>
			<point x="321.3844942611" y="372.5074626866"/>
			<point x="321.7577325637" y="374" type="qcurve" smooth="yes"/>
			<point x="326.0499730435" y="391.1641791045"/>
			<point x="273.0367778016" y="416"/>
			<point x="228.2606583986" y="416" type="qcurve" smooth="yes"/>
		</contour>
		<contour>
			<point x="121.2692965778" y="540" type="qcurve" smooth="yes"/>
			<point x="140.6722816525" y="540"/>
			<point x="262.381605529" y="652.4179104478"/>
			<point x="270.7794673373" y="686" type="qcurve" smooth="yes"/>
			<point x="273.3921354554" y="696.447761194"/>
			<point x="271.4975571534" y="710"/>
			<point x="264.7811392429" y="710" type="qcurve" smooth="yes"/>
			<point x="248.7811392429" y="710" type="line"/>
			<point x="218.3678321904" y="668.9552238806"/>
			<point x="151.5277400334" y="607.6417910448"/>
			<point x="114.7725010637" y="586" type="qcurve"/>
			<point x="113.52215275" y="581" type="line" smooth="yes"/>
			<point x="107.3637207573" y="556.3731343284"/>
			<point x="116.0454159808" y="540"/>
		</contour>
		<contour>
			<point x="439.2520202193" y="292" type="qcurve" smooth="yes"/>
			<point x="489.9982888761" y="292"/>
			<point x="514.7760570184" y="262.1044776119"/>
			<point x="507.4979101179" y="233" type="qcurve"/>
			<point x="532.6848411919" y="238.223880597"/>
			<point x="552.9469106848" y="250.7910447761"/>
			<point x="554.9997213491" y="259" type="qcurve" smooth="yes"/>
			<point x="561.904629947" y="286.6119402985"/>
			<point x="523.6510257442" y="342"/>
			<point x="452.7555033561" y="342" type="qcurve" smooth="yes"/>
			<point x="410.2181899233" y="342"/>
			<point x="346.0451153673" y="321.4328358209"/>
			<point x="329.2531348231" y="308" type="qcurve" smooth="yes"/>
			<point x="321.790032359" y="302.0298507463"/>
			<point x="312.2365333854" y="283.9402985075"/>
			<point x="309.2506269646" y="272" type="qcurve" smooth="yes"/>
			<point x="307.9442929056" y="266.776119403"/>
			<point x="306.8129607928" y="256.223880597"/>
			<point x="306.9991640472" y="251" type="qcurve"/>
			<point x="308.9991640472" y="251" type="line"/>
			<point x="342.76932839" y="272.6417910448"/>
			<point x="406.4161993238" y="292"/>
		</contour>
		<contour>
			<point x="559.2919618289" y="276.1641791045"/>
			<point x="534.3305874165" y="295"/>
			<point x="500.0022292075" y="295" type="qcurve"/>
			<point x="504.8522476566" y="284.552238806"/>
			<point x="506.1716896192" y="263.6865671642"/>
			<point x="502.9991640472" y="251" type="qcurve" smooth="yes"/>
			<point x="498.3336852648" y="232.3432835821"/>
			<point x="464.0742751408" y="204.3880597015"/>
			<point x="404.7443573184" y="182" type="qcurve" smooth="yes"/>
			<point x="312.5777868066" y="147.671641791"/>
			<point x="250.7488668448" y="86.0447761194"/>
			<point x="240.4848135236" y="45" type="qcurve" smooth="yes"/>
			<point x="236.7524304977" y="30.0746268657"/>
			<point x="252.386544669" y="27"/>
			<point x="282.9835595943" y="27" type="qcurve"/>
			<point x="294.3673278233" y="72.5223880597"/>
			<point x="334.5042430605" y="109.6567164179"/>
			<point x="412.4915011462" y="141" type="qcurve" smooth="yes"/>
			<point x="484.3217828785" y="168.6119402985"/>
			<point x="544.2355287023" y="215.9552238806"/>
			<point x="554.4995820236" y="257" type="qcurve" smooth="yes"/>
			<point x="554.9997213491" y="259" type="line" smooth="yes"/>
		</contour>
		<contour>
			<point x="491.2316787005" y="0" type="line"/>
			<point x="493.8439309217" y="4.4776119403"/>
			<point x="497.3631480592" y="12.5223880597"/>
			<point x="498.482862967" y="17" type="qcurve" smooth="yes"/>
			<point x="503.1483417494" y="35.6567164179"/>
			<point x="479.8097887029" y="50"/>
			<point x="444.7351618373" y="50" type="qcurve" smooth="yes"/>
			<point x="408.7351618373" y="50" type="line" smooth="yes"/>
			<point x="370.6754603447" y="50"/>
			<point x="283.5819844103" y="47.2388059701"/>
			<point x="240.4848135236" y="45" type="qcurve"/>
			<point x="240.2981943723" y="44.2537313433"/>
			<point x="239.9212236867" y="42.7462686567"/>
			<point x="239.7346045354" y="42" type="qcurve" smooth="yes"/>
			<point x="235.6289832069" y="25.5820895522"/>
			<point x="250.5600369094" y="0"/>
			<point x="266.2316787005" y="0" type="qcurve" smooth="yes"/>
		</contour>
		<contour>
			<point x="407.5107280613" y="417" type="qcurve"/>
			<point x="416.465536045" y="411.0298507463"/>
			<point x="431.5659319205" y="406"/>
			<point x="442.7599617712" y="406" type="qcurve" smooth="yes"/>
			<point x="450.9689169951" y="406"/>
			<point x="462.4132618878" y="410.5223880597"/>
			<point x="468.0105887359" y="415" type="qcurve" smooth="yes"/>
			<point x="529.3466319867" y="464.0661001376"/>
			<point x="635.7252635631" y="605.8055311677"/>
			<point x="653.0287010472" y="675" type="qcurve" smooth="yes"/>
			<point x="656.3878457705" y="688.4328358209"/>
			<point x="638.4375770099" y="706"/>
			<point x="619.780860592" y="706" type="qcurve" smooth="yes"/>
			<point x="610.8256367114" y="706"/>
			<point x="594.9186925899" y="702.7313432836"/>
			<point x="585.0303729529" y="699" type="qcurve"/>
			<point x="558.5434859397" y="613.1159867096"/>
			<point x="481.6367344046" y="487.5915130908"/>
		</contour>
		<contour>
			<point x="235.751323592" y="282" type="qcurve"/>
			<point x="226.7965156083" y="287.9701492537"/>
			<point x="211.6961197328" y="293"/>
			<point x="200.5020898821" y="293" type="qcurve" smooth="yes"/>
			<point x="192.2931346582" y="293"/>
			<point x="180.8487897655" y="288.4776119403"/>
			<point x="175.2514629175" y="284" type="qcurve" smooth="yes"/>
			<point x="114.6137553967" y="235.4925373134"/>
			<point x="7.5889316766" y="93.4029850746"/>
			<point x="-9.7666493939" y="24" type="qcurve" smooth="yes"/>
			<point x="-13.1257941172" y="10.5671641791"/>
			<point x="4.8244746434" y="-7"/>
			<point x="23.4811910613" y="-7" type="qcurve" smooth="yes"/>
			<point x="32.4364149419" y="-7"/>
			<point x="48.3433590634" y="-3.7313432836"/>
			<point x="58.2316787005" y="0" type="qcurve"/>
			<point x="84.9167616964" y="85.8208955224"/>
			<point x="162.0523549652" y="211.1044776119"/>
		</contour>
	</outline>
	<guideline x="-65.7683212995" y="0" angle="179.1517819709" identifier="Qx8vuMQoyq"/>
	<guideline x="-15.7683212995" y="0" angle="179.1517819709" identifier="cWMRjEZxV2"/>
	<guideline x="34.2316787005" y="0" angle="179.1517819709" identifier="KIERIWYDjN"/>
	<guideline x="84.2316787005" y="0" angle="179.1517819709" identifier="6UFOjUYQDQ"/>
	<guideline x="134.2316787005" y="0" angle="179.1517819709" identifier="3uQ5YRaTTv"/>
	<guideline x="184.2316787005" y="0" angle="179.1517819709" identifier="otKZkOj1Zp"/>
	<guideline x="234.2316787005" y="0" angle="179.1517819709" identifier="xWJlmyFxxJ"/>
	<guideline x="284.2316787005" y="0" angle="179.1517819709" identifier="noexdg5Tpv"/>
	<guideline x="334.2316787005" y="0" angle="179.1517819709" identifier="D0QRNkQ4zY"/>
	<guideline x="384.2316787005" y="0" angle="179.1517819709" identifier="nfwwy5coxt"/>
	<guideline x="434.2316787005" y="0" angle="179.1517819709" identifier="GSmP1fEInV"/>
	<guideline x="484.2316787005" y="0" angle="179.1517819709" identifier="aLl01u9iAY"/>
	<guideline x="534.2316787005" y="0" angle="179.1517819709" identifier="bX6ZXG3S9i"/>
	<guideline x="-128.2857369835" y="-250" angle="180" identifier="OSlWURlqzl"/>
	<guideline x="-115.7822538467" y="-200" angle="180" identifier="rM5vVdENq8"/>
	<guideline x="-103.2787707099" y="-150" angle="180" identifier="6erClf5DkP"/>
	<guideline x="-90.7752875731" y="-100" angle="180" identifier="M3lSsSiyE6"/>
	<guideline x="-78.2718044363" y="-50" angle="180" identifier="U670ZjTf5i"/>
	<guideline x="594.7318180259" y="2" angle="180" identifier="MGalCFaEU2"/>
	<guideline x="-53.2648381627" y="50" angle="180" identifier="hSBs0mrBfH"/>
	<guideline x="-40.761355026" y="100" angle="180" identifier="aCto9LBmD6"/>
	<guideline x="-28.2578718892" y="150" angle="180" identifier="wZtQZDpF0X"/>
	<guideline x="-15.7543887524" y="200" angle="180" identifier="jI92AG4Pao"/>
	<guideline x="-3.2509056156" y="250" angle="180" identifier="ywmQ9FNKkT"/>
	<guideline x="9.2525775212" y="300" angle="180" identifier="J5LXYmmGms"/>
	<guideline x="21.756060658" y="350" angle="180" identifier="RP4DqQ2a31"/>
	<guideline x="34.2595437948" y="400" angle="180" identifier="FDEniKLvM5"/>
	<guideline x="46.7630269316" y="450" angle="180" identifier="iox5QH0iq1"/>
	<guideline x="59.2665100684" y="500" angle="180" identifier="14KNX1g8nL"/>
	<guideline x="71.7699932052" y="550" angle="180" identifier="uboQ3pGHPs"/>
	<guideline x="84.273476342" y="600" angle="180" identifier="A1WJFcOpZd"/>
	<guideline x="96.7769594788" y="650" angle="180" identifier="QLOc2SY7UD"/>
	<guideline x="109.2804426156" y="700" angle="180" identifier="Wt00YMhVP9"/>
</glyph>
<glyph name="questiondown" format="2">
	<unicode hex="00BF"/>
	<advance width="600"/>
	<outline>
		<contour>
			<point x="212.9687910943" y="-184" type="qcurve" smooth="yes"/>
			<point x="262.9687910943" y="-184"/>
			<point x="352.6427411133" y="-151.8656716418"/>
			<point x="386.9729708585" y="-124" type="qcurve" smooth="yes"/>
			<point x="416.6387615636" y="-101.8656716418"/>
			<point x="458.6983364995" y="-50.1194029851"/>
			<point x="465.2300067948" y="-23" type="qcurve" smooth="yes"/>
			<point x="468.2159132155" y="-12.0597014925"/>
			<point x="457.6947853235" y="6.0298507463"/>
			<point x="450.2325146533" y="12" type="qcurve"/>
			<point x="445.2325146533" y="12" type="line"/>
			<point x="411.2728198807" y="-52.1791044776"/>
			<point x="302.3379458729" y="-134"/>
			<point x="225.4722742311" y="-134" type="qcurve" smooth="yes"/>
			<point x="149.7928677951" y="-134"/>
			<point x="69.9134214602" y="-69.2537313433"/>
			<point x="82.2302854457" y="-19" type="qcurve" smooth="yes"/>
			<point x="85.9626684716" y="-5.0746268657"/>
			<point x="90.7548361695" y="11.0447761194"/>
			<point x="95.2330719552" y="20" type="qcurve"/>
			<point x="75.9933331492" y="20"/>
			<point x="53.5291547388" y="-14.8059701493"/>
			<point x="50.7298674693" y="-25" type="qcurve" smooth="yes"/>
			<point x="36.7334311222" y="-81.9701492537"/>
			<point x="101.7747612436" y="-184"/>
		</contour>
		<contour>
			<point x="40.4658141481" y="-67.0447761194"/>
			<point x="80.2622251983" y="-150.7014925373"/>
			<point x="125.9718562547" y="-140" type="qcurve"/>
			<point x="110.675116354" y="-115.6268656716"/>
			<point x="92.4026422876" y="-63.2985074627"/>
			<point x="102.4800764575" y="-22" type="qcurve" smooth="yes"/>
			<point x="112.7441297788" y="18.0447761194"/>
			<point x="167.8907015588" y="86.671641791"/>
			<point x="223.4901078915" y="121" type="qcurve" smooth="yes"/>
			<point x="249.4912224953" y="137" type="line" smooth="yes"/>
			<point x="298.0007646665" y="166.8507462687"/>
			<point x="370.1660066796" y="235.671641791"/>
			<point x="378.7504876392" y="270" type="qcurve" smooth="yes"/>
			<point x="380.0008359528" y="275" type="line" smooth="yes"/>
			<point x="382.2402657684" y="283.9552238806"/>
			<point x="365.6330352107" y="298"/>
			<point x="341.7524381958" y="298" type="qcurve" smooth="yes"/>
			<point x="335.7524381958" y="298" type="line"/>
			<point x="333.2517415684" y="288" type="line" smooth="yes"/>
			<point x="325.413737214" y="256.6567164179"/>
			<point x="281.8731423544" y="209.552238806"/>
			<point x="219.7435213656" y="170" type="qcurve" smooth="yes"/>
			<point x="194.7424067618" y="154" type="line" smooth="yes"/>
			<point x="133.3590544297" y="114.447761194"/>
			<point x="65.9169340017" y="34.7313432836"/>
			<point x="52.4803551085" y="-18" type="qcurve" smooth="yes"/>
			<point x="50.7298674693" y="-25" type="line" smooth="yes"/>
		</contour>
		<contour>
			<point x="350.7683212995" y="526" type="qcurve"/>
			<point x="335.5140718727" y="465" type="line" smooth="yes"/>
			<point x="329.1690207286" y="439.6268656716"/>
			<point x="357.4468075864" y="410"/>
			<point x="394.7602404222" y="410" type="qcurve" smooth="yes"/>
			<point x="411.1781508699" y="410"/>
			<point x="437.8801508015" y="417.2835820896"/>
			<point x="449.2612157005" y="424" type="qcurve"/>
			<point x="464.5154651274" y="485" type="line" smooth="yes"/>
			<point x="470.8605162714" y="510.3731343284"/>
			<point x="442.5827294137" y="540"/>
			<point x="405.2692965778" y="540" type="qcurve" smooth="yes"/>
			<point x="388.8513861301" y="540"/>
			<point x="362.1493861985" y="532.7164179104"/>
		</contour>
	</outline>
</glyph>
<glyph name="Agrave" format="2">
	<unicode hex="00C0"/>
	<advance width="600"/>
	<outline>
		<contour>
			<point x="52.4811910613" y="-7" type="qcurve"/>
			<point x="104.734553424" y="201.9552238806"/>
			<point x="286.4187499397" y="542.8656716418"/>
			<point x="403.7780740826" y="666" type="qcurve" smooth="yes"/>
			<point x="416.0924426865" y="679.4328358209"/>
			<point x="408.9900944668" y="710"/>
			<point x="400.7811392429" y="710" type="qcurve" smooth="yes"/>
			<point x="381.7811392429" y="710" type="line"/>
			<point x="245.203785589" y="563.7313432836"/>
			<point x="59.92256583" y="222.7014925373"/>
			<point x="7.482584316" y="13" type="qcurve" smooth="yes"/>
			<point x="4.1234395927" y="-0.4328358209"/>
			<point x="22.7757581925" y="-10"/>
			<point x="31.7309820731" y="-10" type="qcurve"/>
			<point x="39.1936686403" y="-10"/>
			<point x="47.6303408184" y="-8.4925373134"/>
		</contour>
		<contour>
			<point x="462.4811910613" y="-7" type="qcurve"/>
			<point x="512.4951236085" y="192"/>
			<point x="499.3516294298" y="543.4925373134"/>
			<point x="465.7764021769" y="642" type="qcurve" smooth="yes"/>
			<point x="456.2634003271" y="669.6119402985"/>
			<point x="441.0077083217" y="695.0298507463"/>
			<point x="436.5305122783" y="701" type="qcurve" smooth="yes"/>
			<point x="433.1726152458" y="705.4776119403"/>
			<point x="414.9602437206" y="710"/>
			<point x="400.7811392429" y="710" type="qcurve" smooth="yes"/>
			<point x="392.5721840191" y="710"/>
			<point x="375.7685488392" y="689.9552238806"/>
			<point x="373.5291190236" y="681" type="qcurve"/>
			<point x="377.2604623072" y="681"/>
			<point x="383.2903130535" y="681"/>
			<point x="385.5291190236" y="681" type="qcurve" smooth="yes"/>
			<point x="389.2604623072" y="681"/>
			<point x="395.3383224796" y="673.8507462687"/>
			<point x="407.2765415024" y="644" type="qcurve" smooth="yes"/>
			<point x="453.1638499261" y="526.0895522388"/>
			<point x="454.4369086555" y="160.776119403"/>
			<point x="418.2327933042" y="16" type="qcurve" smooth="yes"/>
			<point x="416.7398400939" y="10.0298507463"/>
			<point x="417.9930806788" y="2.9850746269"/>
			<point x="420.2316787005" y="0" type="qcurve" smooth="yes"/>
			<point x="424.1492252384" y="-5.223880597"/>
			<point x="438.2682955059" y="-10"/>
			<point x="445.7309820731" y="-10" type="qcurve" smooth="yes"/>
			<point x="450.2085940134" y="-10"/>
			<point x="458.3766094751" y="-8.4925373134"/>
		</contour>
		<contour>
			<point x="51.7504876392" y="270" type="line"/>
			<point x="49.2497910118" y="260" type="line" smooth="yes"/>
			<point x="46.2638845911" y="248.0597014925"/>
			<point x="47.0201567727" y="230.9701492537"/>
			<point x="51.497352816" y="225" type="qcurve" smooth="yes"/>
			<point x="53.1763013323" y="222.7611940299"/>
			<point x="58.5156612188" y="220"/>
			<point x="62.2470045024" y="220" type="qcurve"/>
			<point x="460.2470045024" y="220" type="line"/>
			<point x="467.1519131003" y="247.6119402985"/>
			<point x="435.5713831615" y="270"/>
			<point x="399.7504876392" y="270" type="qcurve" smooth="yes"/>
		</contour>
		<contour>
			<point x="440.5031301723" y="790"/>
			<point x="457.1414882798" y="794.2835820896"/>
			<point x="465.5374785519" y="801" type="qcurve"/>
			<point x="425.4276697252" y="831.5970149254"/>
			<point x="377.9098856445" y="897.6865671642"/>
			<point x="376.0468133585" y="935" type="qcurve"/>
			<point x="365.5990521645" y="935"/>
			<point x="350.4347150192" y="932.7313432836"/>
			<point x="340.5463953821" y="929" type="qcurve" smooth="yes"/>
			<point x="329.9118070883" y="925.2686567164"/>
			<point x="321.9891515485" y="910.7164179104"/>
			<point x="323.2946538137" y="904" type="qcurve" smooth="yes"/>
			<point x="327.3971559152" y="875.6417910448"/>
			<point x="368.1283304686" y="819.6567164179"/>
			<point x="398.5374785519" y="801" type="qcurve"/>
			<point x="407.4922865356" y="795.0298507463"/>
			<point x="426.3240256947" y="790"/>
			<point x="433.7867122618" y="790" type="qcurve" smooth="yes"/>
		</contour>
	</outline>
</glyph>
<glyph name="Aacute" format="2">
	<unicode hex="00C1"/>
	<advance width="600"/>
	<outline>
		<contour>
			<point x="52.4811910613" y="-7" type="qcurve"/>
			<point x="104.734553424" y="201.9552238806"/>
			<point x="286.4187499397" y="542.8656716418"/>
			<point x="403.7780740826" y="666" type="qcurve" smooth="yes"/>
			<point x="416.0924426865" y="679.4328358209"/>
			<point x="408.9900944668" y="710"/>
			<point x="400.7811392429" y="710" type="qcurve" smooth="yes"/>
			<point x="381.7811392429" y="710" type="line"/>
			<point x="245.203785589" y="563.7313432836"/>
			<point x="59.92256583" y="222.7014925373"/>
			<point x="7.482584316" y="13" type="qcurve" smooth="yes"/>
			<point x="4.1234395927" y="-0.4328358209"/>
			<point x="22.7757581925" y="-10"/>
			<point x="31.7309820731" y="-10" type="qcurve"/>
			<point x="39.1936686403" y="-10"/>
			<point x="47.6303408184" y="-8.4925373134"/>
		</contour>
		<contour>
			<point x="462.4811910613" y="-7" type="qcurve"/>
			<point x="512.4951236085" y="192"/>
			<point x="499.3516294298" y="543.4925373134"/>
			<point x="465.7764021769" y="642" type="qcurve" smooth="yes"/>
			<point x="456.2634003271" y="669.6119402985"/>
			<point x="441.0077083217" y="695.0298507463"/>
			<point x="436.5305122783" y="701" type="qcurve" smooth="yes"/>
			<point x="433.1726152458" y="705.4776119403"/>
			<point x="414.9602437206" y="710"/>
			<point x="400.7811392429" y="710" type="qcurve" smooth="yes"/>
			<point x="392.5721840191" y="710"/>
			<point x="375.7685488392" y="689.9552238806"/>
			<point x="373.5291190236" y="681" type="qcurve"/>
			<point x="377.2604623072" y="681"/>
			<point x="383.2903130535" y="681"/>
			<point x="385.5291190236" y="681" type="qcurve" smooth="yes"/>
			<point x="389.2604623072" y="681"/>
			<point x="395.3383224796" y="673.8507462687"/>
			<point x="407.2765415024" y="644" type="qcurve" smooth="yes"/>
			<point x="453.1638499261" y="526.0895522388"/>
			<point x="454.4369086555" y="160.776119403"/>
			<point x="418.2327933042" y="16" type="qcurve" smooth="yes"/>
			<point x="416.7398400939" y="10.0298507463"/>
			<point x="417.9930806788" y="2.9850746269"/>
			<point x="420.2316787005" y="0" type="qcurve" smooth="yes"/>
			<point x="424.1492252384" y="-5.223880597"/>
			<point x="438.2682955059" y="-10"/>
			<point x="445.7309820731" y="-10" type="qcurve" smooth="yes"/>
			<point x="450.2085940134" y="-10"/>
			<point x="458.3766094751" y="-8.4925373134"/>
		</contour>
		<contour>
			<point x="51.7504876392" y="270" type="line"/>
			<point x="49.2497910118" y="260" type="line" smooth="yes"/>
			<point x="46.2638845911" y="248.0597014925"/>
			<point x="47.0201567727" y="230.9701492537"/>
			<point x="51.497352816" y="225" type="qcurve" smooth="yes"/>
			<point x="53.1763013323" y="222.7611940299"/>
			<point x="58.5156612188" y="220"/>
			<point x="62.2470045024" y="220" type="qcurve"/>
			<point x="460.2470045024" y="220" type="line"/>
			<point x="467.1519131003" y="247.6119402985"/>
			<point x="435.5713831615" y="270"/>
			<point x="399.7504876392" y="270" type="qcurve" smooth="yes"/>
		</contour>
		<contour>
			<point x="406.0736274733" y="784.2835820896"/>
			<point x="420.569597724" y="780"/>
			<point x="427.2860156345" y="780" type="qcurve" smooth="yes"/>
			<point x="434.7487022016" y="780"/>
			<point x="456.0960675202" y="785.0298507463"/>
			<point x="468.0367819246" y="791" type="qcurve"/>
			<point x="507.5902684213" y="808.9104477612"/>
			<point x="576.5083995864" y="865.6417910448"/>
			<point x="594.7939571864" y="894" type="qcurve" smooth="yes"/>
			<point x="599.4586041749" y="900.7164179104"/>
			<point x="598.8140955356" y="915.2686567164"/>
			<point x="590.0456987548" y="919" type="qcurve" smooth="yes"/>
			<point x="582.0235706306" y="922.7313432836"/>
			<point x="567.9938779252" y="925"/>
			<point x="557.5461167312" y="925" type="qcurve"/>
			<point x="537.0211293156" y="887.6865671642"/>
			<point x="456.4493611575" y="821.5970149254"/>
			<point x="401.0367819246" y="791" type="qcurve"/>
		</contour>
	</outline>
</glyph>
<glyph name="Atilde" format="2">
	<unicode hex="00C3"/>
	<advance width="600"/>
	<outline>
		<contour>
			<point x="52.4811910613" y="-7" type="qcurve"/>
			<point x="104.734553424" y="201.9552238806"/>
			<point x="286.4187499397" y="542.8656716418"/>
			<point x="403.7780740826" y="666" type="qcurve" smooth="yes"/>
			<point x="416.0924426865" y="679.4328358209"/>
			<point x="408.9900944668" y="710"/>
			<point x="400.7811392429" y="710" type="qcurve" smooth="yes"/>
			<point x="381.7811392429" y="710" type="line"/>
			<point x="245.203785589" y="563.7313432836"/>
			<point x="59.92256583" y="222.7014925373"/>
			<point x="7.482584316" y="13" type="qcurve" smooth="yes"/>
			<point x="4.1234395927" y="-0.4328358209"/>
			<point x="22.7757581925" y="-10"/>
			<point x="31.7309820731" y="-10" type="qcurve"/>
			<point x="39.1936686403" y="-10"/>
			<point x="47.6303408184" y="-8.4925373134"/>
		</contour>
		<contour>
			<point x="462.4811910613" y="-7" type="qcurve"/>
			<point x="512.4951236085" y="192"/>
			<point x="499.3516294298" y="543.4925373134"/>
			<point x="465.7764021769" y="642" type="qcurve" smooth="yes"/>
			<point x="456.2634003271" y="669.6119402985"/>
			<point x="441.0077083217" y="695.0298507463"/>
			<point x="436.5305122783" y="701" type="qcurve" smooth="yes"/>
			<point x="433.1726152458" y="705.4776119403"/>
			<point x="414.9602437206" y="710"/>
			<point x="400.7811392429" y="710" type="qcurve" smooth="yes"/>
			<point x="392.5721840191" y="710"/>
			<point x="375.7685488392" y="689.9552238806"/>
			<point x="373.5291190236" y="681" type="qcurve"/>
			<point x="377.2604623072" y="681"/>
			<point x="383.2903130535" y="681"/>
			<point x="385.5291190236" y="681" type="qcurve" smooth="yes"/>
			<point x="389.2604623072" y="681"/>
			<point x="395.3383224796" y="673.8507462687"/>
			<point x="407.2765415024" y="644" type="qcurve" smooth="yes"/>
			<point x="453.1638499261" y="526.0895522388"/>
			<point x="454.4369086555" y="160.776119403"/>
			<point x="418.2327933042" y="16" type="qcurve" smooth="yes"/>
			<point x="416.7398400939" y="10.0298507463"/>
			<point x="417.9930806788" y="2.9850746269"/>
			<point x="420.2316787005" y="0" type="qcurve" smooth="yes"/>
			<point x="424.1492252384" y="-5.223880597"/>
			<point x="438.2682955059" y="-10"/>
			<point x="445.7309820731" y="-10" type="qcurve" smooth="yes"/>
			<point x="450.2085940134" y="-10"/>
			<point x="458.3766094751" y="-8.4925373134"/>
		</contour>
		<contour>
			<point x="51.7504876392" y="270" type="line"/>
			<point x="49.2497910118" y="260" type="line" smooth="yes"/>
			<point x="46.2638845911" y="248.0597014925"/>
			<point x="47.0201567727" y="230.9701492537"/>
			<point x="51.497352816" y="225" type="qcurve" smooth="yes"/>
			<point x="53.1763013323" y="222.7611940299"/>
			<point x="58.5156612188" y="220"/>
			<point x="62.2470045024" y="220" type="qcurve"/>
			<point x="460.2470045024" y="220" type="line"/>
			<point x="467.1519131003" y="247.6119402985"/>
			<point x="435.5713831615" y="270"/>
			<point x="399.7504876392" y="270" type="qcurve" smooth="yes"/>
		</contour>
		<contour>
			<point x="550.0406830378" y="847" type="qcurve" smooth="yes"/>
			<point x="496.3093397542" y="847"/>
			<point x="415.01978834" y="922"/>
			<point x="359.795907743" y="922" type="qcurve" smooth="yes"/>
			<point x="328.4526241609" y="922"/>
			<point x="279.8503047621" y="899.4179104478"/>
			<point x="266.0431908963" y="883" type="qcurve"/>
			<point x="260.632275251" y="876.2835820896"/>
			<point x="253.2806701552" y="863.9552238806"/>
			<point x="251.0412403397" y="855" type="qcurve" smooth="yes"/>
			<point x="248.9884296754" y="846.7910447761"/>
			<point x="248.9241390522" y="834.4776119403"/>
			<point x="250.7894987713" y="830" type="qcurve"/>
			<point x="253.7894987713" y="830" type="line"/>
			<point x="278.6044392335" y="851.6417910448"/>
			<point x="325.1620365794" y="875"/>
			<point x="349.0426335944" y="875" type="qcurve" smooth="yes"/>
			<point x="404.2665141914" y="875"/>
			<point x="485.0598666116" y="801"/>
			<point x="539.5374785519" y="801" type="qcurve" smooth="yes"/>
			<point x="570.880762134" y="801"/>
			<point x="619.2330118701" y="822.5820895522"/>
			<point x="633.0401257359" y="839" type="qcurve"/>
			<point x="638.6376605324" y="846.4626865672"/>
			<point x="646.0527161397" y="859.0447761194"/>
			<point x="648.2921459552" y="868" type="qcurve" smooth="yes"/>
			<point x="650.1583374682" y="875.4626865672"/>
			<point x="650.4092472427" y="888.5223880597"/>
			<point x="648.5438875236" y="893" type="qcurve"/>
			<point x="645.5438875236" y="893" type="line"/>
			<point x="620.5423279101" y="870.6119402985"/>
			<point x="573.9212800527" y="847"/>
		</contour>
	</outline>
</glyph>
<glyph name="Adieresis" format="2">
	<unicode hex="00C4"/>
	<advance width="600"/>
	<outline>
		<contour>
			<point x="52.4811910613" y="-7" type="qcurve"/>
			<point x="104.734553424" y="201.9552238806"/>
			<point x="286.4187499397" y="542.8656716418"/>
			<point x="403.7780740826" y="666" type="qcurve" smooth="yes"/>
			<point x="416.0924426865" y="679.4328358209"/>
			<point x="408.9900944668" y="710"/>
			<point x="400.7811392429" y="710" type="qcurve" smooth="yes"/>
			<point x="381.7811392429" y="710" type="line"/>
			<point x="245.203785589" y="563.7313432836"/>
			<point x="59.92256583" y="222.7014925373"/>
			<point x="7.482584316" y="13" type="qcurve" smooth="yes"/>
			<point x="4.1234395927" y="-0.4328358209"/>
			<point x="22.7757581925" y="-10"/>
			<point x="31.7309820731" y="-10" type="qcurve"/>
			<point x="39.1936686403" y="-10"/>
			<point x="47.6303408184" y="-8.4925373134"/>
		</contour>
		<contour>
			<point x="462.4811910613" y="-7" type="qcurve"/>
			<point x="512.4951236085" y="192"/>
			<point x="499.3516294298" y="543.4925373134"/>
			<point x="465.7764021769" y="642" type="qcurve" smooth="yes"/>
			<point x="456.2634003271" y="669.6119402985"/>
			<point x="441.0077083217" y="695.0298507463"/>
			<point x="436.5305122783" y="701" type="qcurve" smooth="yes"/>
			<point x="433.1726152458" y="705.4776119403"/>
			<point x="414.9602437206" y="710"/>
			<point x="400.7811392429" y="710" type="qcurve" smooth="yes"/>
			<point x="392.5721840191" y="710"/>
			<point x="375.7685488392" y="689.9552238806"/>
			<point x="373.5291190236" y="681" type="qcurve"/>
			<point x="377.2604623072" y="681"/>
			<point x="383.2903130535" y="681"/>
			<point x="385.5291190236" y="681" type="qcurve" smooth="yes"/>
			<point x="389.2604623072" y="681"/>
			<point x="395.3383224796" y="673.8507462687"/>
			<point x="407.2765415024" y="644" type="qcurve" smooth="yes"/>
			<point x="453.1638499261" y="526.0895522388"/>
			<point x="454.4369086555" y="160.776119403"/>
			<point x="418.2327933042" y="16" type="qcurve" smooth="yes"/>
			<point x="416.7398400939" y="10.0298507463"/>
			<point x="417.9930806788" y="2.9850746269"/>
			<point x="420.2316787005" y="0" type="qcurve" smooth="yes"/>
			<point x="424.1492252384" y="-5.223880597"/>
			<point x="438.2682955059" y="-10"/>
			<point x="445.7309820731" y="-10" type="qcurve" smooth="yes"/>
			<point x="450.2085940134" y="-10"/>
			<point x="458.3766094751" y="-8.4925373134"/>
		</contour>
		<contour>
			<point x="51.7504876392" y="270" type="line"/>
			<point x="49.2497910118" y="260" type="line" smooth="yes"/>
			<point x="46.2638845911" y="248.0597014925"/>
			<point x="47.0201567727" y="230.9701492537"/>
			<point x="51.497352816" y="225" type="qcurve" smooth="yes"/>
			<point x="53.1763013323" y="222.7611940299"/>
			<point x="58.5156612188" y="220"/>
			<point x="62.2470045024" y="220" type="qcurve"/>
			<point x="460.2470045024" y="220" type="line"/>
			<point x="467.1519131003" y="247.6119402985"/>
			<point x="435.5713831615" y="270"/>
			<point x="399.7504876392" y="270" type="qcurve" smooth="yes"/>
		</contour>
		<contour>
			<point x="375.5377572029" y="805" type="qcurve"/>
			<point x="388.5413796651" y="857" type="line" smooth="yes"/>
			<point x="392.6470009936" y="873.4179104478"/>
			<point x="371.1744148758" y="892"/>
			<point x="347.2938178609" y="892" type="qcurve" smooth="yes"/>
			<point x="338.3385939803" y="892"/>
			<point x="322.886996429" y="890.4925373134"/>
			<point x="316.5436088727" y="889" type="qcurve"/>
			<point x="303.5399864104" y="837" type="line" smooth="yes"/>
			<point x="299.4343650819" y="820.5820895522"/>
			<point x="321.6532198564" y="802"/>
			<point x="344.7875482147" y="802" type="qcurve" smooth="yes"/>
			<point x="353.7427720952" y="802"/>
			<point x="369.1943696465" y="803.5074626866"/>
		</contour>
		<contour>
			<point x="575.5377572029" y="805" type="qcurve"/>
			<point x="588.5413796651" y="857" type="line" smooth="yes"/>
			<point x="592.6470009936" y="873.4179104478"/>
			<point x="571.1744148758" y="892"/>
			<point x="547.2938178609" y="892" type="qcurve" smooth="yes"/>
			<point x="538.3385939803" y="892"/>
			<point x="522.886996429" y="890.4925373134"/>
			<point x="516.5436088727" y="889" type="qcurve"/>
			<point x="503.5399864104" y="837" type="line" smooth="yes"/>
			<point x="499.4343650819" y="820.5820895522"/>
			<point x="521.6532198564" y="802"/>
			<point x="544.7875482147" y="802" type="qcurve" smooth="yes"/>
			<point x="553.7427720952" y="802"/>
			<point x="569.1943696465" y="803.5074626866"/>
		</contour>
	</outline>
</glyph>
<glyph name="Ccedilla" format="2">
	<unicode hex="00C7"/>
	<advance width="600"/>
	<outline>
		<contour>
			<point x="481.7783527335" y="670" type="qcurve" smooth="yes"/>
			<point x="534.7634273604" y="670"/>
			<point x="585.3974809347" y="612.4925373134"/>
			<point x="572.5207594953" y="561" type="qcurve"/>
			<point x="580.7297147192" y="561"/>
			<point x="592.4058915743" y="572.5373134328"/>
			<point x="594.2720830873" y="580" type="qcurve" smooth="yes"/>
			<point x="602.4833257443" y="612.8358208955"/>
			<point x="596.4608464792" y="665.0895522388"/>
			<point x="583.0292583491" y="683" type="qcurve" smooth="yes"/>
			<point x="570.7169692298" y="699.4179104478"/>
			<point x="526.3713881091" y="720"/>
			<point x="494.2818358703" y="720" type="qcurve" smooth="yes"/>
			<point x="364.4310896016" y="720"/>
			<point x="136.715899207" y="469.8059701493"/>
			<point x="89.5012539292" y="281" type="qcurve" smooth="yes"/>
			<point x="82.7493730354" y="254" type="line" smooth="yes"/>
			<point x="74.911368681" y="222.6567164179"/>
			<point x="97.0104895404" y="145.7611940299"/>
			<point x="113.2419887854" y="148" type="qcurve"/>
			<point x="116.7885844538" y="174.1194029851"/>
			<point x="130.3974144272" y="236.5970149254"/>
			<point x="135.2495123608" y="256" type="qcurve" smooth="yes"/>
			<point x="138.0002786509" y="267" type="line" smooth="yes"/>
			<point x="181.8557792054" y="442.3731343284"/>
			<point x="381.7783527335" y="670"/>
		</contour>
		<contour>
			<point x="256.2302854457" y="-20" type="qcurve" smooth="yes"/>
			<point x="315.9317779831" y="-20"/>
			<point x="412.4190922149" y="12.1492537313"/>
			<point x="449.7346045354" y="42" type="qcurve" smooth="yes"/>
			<point x="467.4594728876" y="56.1791044776"/>
			<point x="484.8232358544" y="82.3432835821"/>
			<point x="489.4887146368" y="101" type="qcurve" smooth="yes"/>
			<point x="491.3549061497" y="108.4626865672"/>
			<point x="493.1136279643" y="126.5373134328"/>
			<point x="492.7410135071" y="134" type="qcurve"/>
			<point x="488.7410135071" y="134" type="line"/>
			<point x="443.5881206776" y="81.7611940299"/>
			<point x="340.3755596273" y="30"/>
			<point x="268.7337685825" y="30" type="qcurve" smooth="yes"/>
			<point x="156.0472014184" y="30"/>
			<point x="114.9918092019" y="198.9850746269"/>
			<point x="139.2522988703" y="296" type="qcurve"/>
			<point x="118.3567764822" y="296"/>
			<point x="88.3479475742" y="276.3880597015"/>
			<point x="82.7493730354" y="254" type="qcurve" smooth="yes"/>
			<point x="55.5029769462" y="145.0447761194"/>
			<point x="138.3198376845" y="-20"/>
		</contour>
		<contour>
			<point x="556.7616336769" y="430" type="qcurve"/>
			<point x="594.2720830873" y="580" type="line" smooth="yes"/>
			<point x="608.4551385857" y="636.7164179104"/>
			<point x="557.0228000536" y="697.4179104478"/>
			<point x="530.5291190236" y="681" type="qcurve"/>
			<point x="548.2510760973" y="653.3880597015"/>
			<point x="550.8672038941" y="606.3731343284"/>
			<point x="544.52215275" y="581" type="qcurve" smooth="yes"/>
			<point x="512.5132359198" y="453" type="line" smooth="yes"/>
			<point x="511.0202827095" y="447.0298507463"/>
			<point x="512.654084958" y="439.4776119403"/>
			<point x="516.0119819906" y="435" type="qcurve" smooth="yes"/>
			<point x="518.8102295177" y="431.2686567164"/>
			<point x="532.8024694648" y="427"/>
			<point x="541.0114246887" y="427" type="qcurve" smooth="yes"/>
			<point x="546.9815739424" y="427"/>
			<point x="554.1495894042" y="428.5074626866"/>
		</contour>
		<contour>
			<point x="326.9724135566" y="-133" type="qcurve" smooth="yes"/>
			<point x="336.1167519701" y="-96.4328358209"/>
			<point x="299.7166365843" y="-55.2388059701"/>
			<point x="259.9779865755" y="-53" type="qcurve"/>
			<point x="264.2702270553" y="-35.8358208955"/>
			<point x="277.720055257" y="-6.1641791045"/>
			<point x="287.9824449906" y="11" type="qcurve"/>
			<point x="270.0722051778" y="13.9850746269"/>
			<point x="246.7097065377" y="5.9701492537"/>
			<point x="242.2316787005" y="0" type="qcurve" smooth="yes"/>
			<point x="232.1561160667" y="-13.4328358209"/>
			<point x="214.202208208" y="-48.1044776119"/>
			<point x="208.9768719717" y="-69" type="qcurve" smooth="yes"/>
			<point x="206.7374421561" y="-77.9552238806"/>
			<point x="218.535040884" y="-91"/>
			<point x="230.4753393915" y="-91" type="qcurve" smooth="yes"/>
			<point x="259.5798170034" y="-91"/>
			<point x="283.0111306416" y="-112.8507462687"/>
			<point x="277.9724135566" y="-133" type="qcurve" smooth="yes"/>
			<point x="271.8139815638" y="-157.6268656716"/>
			<point x="227.0507413211" y="-187"/>
			<point x="193.4686517688" y="-187" type="qcurve" smooth="yes"/>
			<point x="164.3641741569" y="-187"/>
			<point x="135.4792934918" y="-172.0851467335"/>
			<point x="124.2208113137" y="-156" type="qcurve"/>
			<point x="120.2208113137" y="-156" type="line"/>
			<point x="115.1829260225" y="-164.2089552239"/>
			<point x="110.08505227" y="-176.5373134328"/>
			<point x="108.2188607571" y="-184" type="qcurve" smooth="yes"/>
			<point x="103.4541164687" y="-203.0536678311"/>
			<point x="136.9392582173" y="-234"/>
			<point x="181.7153776203" y="-234" type="qcurve" smooth="yes"/>
			<point x="237.685526874" y="-234"/>
			<point x="315.9618836302" y="-177.0298507463"/>
		</contour>
	</outline>
</glyph>
<glyph name="Igrave" format="2">
	<unicode hex="00CC"/>
	<advance width="600"/>
	<outline>
		<contour>
			<point x="265.4834202689" y="25" type="qcurve"/>
			<point x="409.7736156675" y="602" type="line" smooth="yes"/>
			<point x="418.9179540809" y="638.5671641791"/>
			<point x="405.6406413457" y="675"/>
			<point x="378.0287010472" y="675" type="qcurve"/>
			<point x="233.7385056486" y="98" type="line" smooth="yes"/>
			<point x="224.7807863864" y="62.1791044776"/>
			<point x="237.8714799703" y="25"/>
		</contour>
		<contour>
			<point x="182.2804426156" y="700" type="line"/>
			<point x="180.041428697" y="697.0149253731"/>
			<point x="176.3990429196" y="688.4776119403"/>
			<point x="175.2793280118" y="684" type="qcurve" smooth="yes"/>
			<point x="173.0398981963" y="675.0447761194"/>
			<point x="174.3598309173" y="661.223880597"/>
			<point x="178.2773774552" y="656" type="qcurve" smooth="yes"/>
			<point x="180.5159754769" y="653.0149253731"/>
			<point x="187.2993475385" y="650"/>
			<point x="191.7769594788" y="650" type="qcurve" smooth="yes"/>
			<point x="624.7769594788" y="650" type="line"/>
			<point x="626.2697047407" y="652.9850746269"/>
			<point x="629.5314581519" y="661.0149253731"/>
			<point x="630.2779347571" y="664" type="qcurve" smooth="yes"/>
			<point x="634.7567943882" y="681.9104477612"/>
			<point x="627.4744724663" y="700"/>
			<point x="616.2804426156" y="700" type="qcurve" smooth="yes"/>
		</contour>
		<contour>
			<point x="19.7351618373" y="50" type="line"/>
			<point x="17.4961479186" y="47.0149253731"/>
			<point x="13.8537621413" y="38.4776119403"/>
			<point x="12.7340472335" y="34" type="qcurve" smooth="yes"/>
			<point x="10.4946174179" y="25.0447761194"/>
			<point x="11.8145501389" y="11.223880597"/>
			<point x="15.7320966769" y="6" type="qcurve" smooth="yes"/>
			<point x="17.9706946986" y="3.0149253731"/>
			<point x="24.7540667602" y="0"/>
			<point x="29.2316787005" y="0" type="qcurve" smooth="yes"/>
			<point x="464.2316787005" y="0" type="line"/>
			<point x="464.7915361543" y="2.2388059701"/>
			<point x="466.1725178739" y="7.7611940299"/>
			<point x="466.7323753278" y="10" type="qcurve" smooth="yes"/>
			<point x="471.7710924128" y="30.1492537313"/>
			<point x="464.929191688" y="50"/>
			<point x="453.7351618373" y="50" type="qcurve" smooth="yes"/>
		</contour>
		<contour>
			<point x="440.753199835" y="791"/>
			<point x="457.3915579425" y="795.2835820896"/>
			<point x="465.7875482147" y="802" type="qcurve"/>
			<point x="425.6777393879" y="832.5970149254"/>
			<point x="378.1599553072" y="898.6865671642"/>
			<point x="376.2968830213" y="936" type="qcurve"/>
			<point x="365.8491218272" y="936"/>
			<point x="350.6847846819" y="933.7313432836"/>
			<point x="340.7964650448" y="930" type="qcurve" smooth="yes"/>
			<point x="330.1618767511" y="926.2686567164"/>
			<point x="322.2392212112" y="911.7164179104"/>
			<point x="323.5447234764" y="905" type="qcurve" smooth="yes"/>
			<point x="327.647225578" y="876.6417910448"/>
			<point x="368.3784001314" y="820.6567164179"/>
			<point x="398.7875482147" y="802" type="qcurve"/>
			<point x="407.7423561983" y="796.0298507463"/>
			<point x="426.5740953574" y="791"/>
			<point x="434.0367819246" y="791" type="qcurve" smooth="yes"/>
		</contour>
	</outline>
</glyph>
<glyph name="Iacute" format="2">
	<unicode hex="00CD"/>
	<advance width="600"/>
	<outline>
		<contour>
			<point x="265.4834202689" y="25" type="qcurve"/>
			<point x="409.7736156675" y="602" type="line" smooth="yes"/>
			<point x="418.9179540809" y="638.5671641791"/>
			<point x="405.6406413457" y="675"/>
			<point x="378.0287010472" y="675" type="qcurve"/>
			<point x="233.7385056486" y="98" type="line" smooth="yes"/>
			<point x="224.7807863864" y="62.1791044776"/>
			<point x="237.8714799703" y="25"/>
		</contour>
		<contour>
			<point x="182.2804426156" y="700" type="line"/>
			<point x="180.041428697" y="697.0149253731"/>
			<point x="176.3990429196" y="688.4776119403"/>
			<point x="175.2793280118" y="684" type="qcurve" smooth="yes"/>
			<point x="173.0398981963" y="675.0447761194"/>
			<point x="174.3598309173" y="661.223880597"/>
			<point x="178.2773774552" y="656" type="qcurve" smooth="yes"/>
			<point x="180.5159754769" y="653.0149253731"/>
			<point x="187.2993475385" y="650"/>
			<point x="191.7769594788" y="650" type="qcurve" smooth="yes"/>
			<point x="624.7769594788" y="650" type="line"/>
			<point x="626.2697047407" y="652.9850746269"/>
			<point x="629.5314581519" y="661.0149253731"/>
			<point x="630.2779347571" y="664" type="qcurve" smooth="yes"/>
			<point x="634.7567943882" y="681.9104477612"/>
			<point x="627.4744724663" y="700"/>
			<point x="616.2804426156" y="700" type="qcurve" smooth="yes"/>
		</contour>
		<contour>
			<point x="19.7351618373" y="50" type="line"/>
			<point x="17.4961479186" y="47.0149253731"/>
			<point x="13.8537621413" y="38.4776119403"/>
			<point x="12.7340472335" y="34" type="qcurve" smooth="yes"/>
			<point x="10.4946174179" y="25.0447761194"/>
			<point x="11.8145501389" y="11.223880597"/>
			<point x="15.7320966769" y="6" type="qcurve" smooth="yes"/>
			<point x="17.9706946986" y="3.0149253731"/>
			<point x="24.7540667602" y="0"/>
			<point x="29.2316787005" y="0" type="qcurve" smooth="yes"/>
			<point x="464.2316787005" y="0" type="line"/>
			<point x="464.7915361543" y="2.2388059701"/>
			<point x="466.1725178739" y="7.7611940299"/>
			<point x="466.7323753278" y="10" type="qcurve" smooth="yes"/>
			<point x="471.7710924128" y="30.1492537313"/>
			<point x="464.929191688" y="50"/>
			<point x="453.7351618373" y="50" type="qcurve" smooth="yes"/>
		</contour>
		<contour>
			<point x="406.3236971361" y="785.2835820896"/>
			<point x="420.8196673867" y="781"/>
			<point x="427.5360852972" y="781" type="qcurve" smooth="yes"/>
			<point x="434.9987718644" y="781"/>
			<point x="456.3461371829" y="786.0298507463"/>
			<point x="468.2868515873" y="792" type="qcurve"/>
			<point x="507.8403380841" y="809.9104477612"/>
			<point x="576.7584692491" y="866.6417910448"/>
			<point x="595.0440268491" y="895" type="qcurve" smooth="yes"/>
			<point x="599.7086738376" y="901.7164179104"/>
			<point x="599.0641651983" y="916.2686567164"/>
			<point x="590.2957684175" y="920" type="qcurve" smooth="yes"/>
			<point x="582.2736402934" y="923.7313432836"/>
			<point x="568.2439475879" y="926"/>
			<point x="557.7961863939" y="926" type="qcurve"/>
			<point x="537.2711989784" y="888.6865671642"/>
			<point x="456.6994308203" y="822.5970149254"/>
			<point x="401.2868515873" y="792" type="qcurve"/>
		</contour>
	</outline>
</glyph>
<glyph name="Icircumflex" format="2">
	<unicode hex="00CE"/>
	<advance width="600"/>
	<outline>
		<contour>
			<point x="265.4834202689" y="25" type="qcurve"/>
			<point x="409.7736156675" y="602" type="line" smooth="yes"/>
			<point x="418.9179540809" y="638.5671641791"/>
			<point x="405.6406413457" y="675"/>
			<point x="378.0287010472" y="675" type="qcurve"/>
			<point x="233.7385056486" y="98" type="line" smooth="yes"/>
			<point x="224.7807863864" y="62.1791044776"/>
			<point x="237.8714799703" y="25"/>
		</contour>
		<contour>
			<point x="182.2804426156" y="700" type="line"/>
			<point x="180.041428697" y="697.0149253731"/>
			<point x="176.3990429196" y="688.4776119403"/>
			<point x="175.2793280118" y="684" type="qcurve" smooth="yes"/>
			<point x="173.0398981963" y="675.0447761194"/>
			<point x="174.3598309173" y="661.223880597"/>
			<point x="178.2773774552" y="656" type="qcurve" smooth="yes"/>
			<point x="180.5159754769" y="653.0149253731"/>
			<point x="187.2993475385" y="650"/>
			<point x="191.7769594788" y="650" type="qcurve" smooth="yes"/>
			<point x="624.7769594788" y="650" type="line"/>
			<point x="626.2697047407" y="652.9850746269"/>
			<point x="629.5314581519" y="661.0149253731"/>
			<point x="630.2779347571" y="664" type="qcurve" smooth="yes"/>
			<point x="634.7567943882" y="681.9104477612"/>
			<point x="627.4744724663" y="700"/>
			<point x="616.2804426156" y="700" type="qcurve" smooth="yes"/>
		</contour>
		<contour>
			<point x="19.7351618373" y="50" type="line"/>
			<point x="17.4961479186" y="47.0149253731"/>
			<point x="13.8537621413" y="38.4776119403"/>
			<point x="12.7340472335" y="34" type="qcurve" smooth="yes"/>
			<point x="10.4946174179" y="25.0447761194"/>
			<point x="11.8145501389" y="11.223880597"/>
			<point x="15.7320966769" y="6" type="qcurve" smooth="yes"/>
			<point x="17.9706946986" y="3.0149253731"/>
			<point x="24.7540667602" y="0"/>
			<point x="29.2316787005" y="0" type="qcurve" smooth="yes"/>
			<point x="464.2316787005" y="0" type="line"/>
			<point x="464.7915361543" y="2.2388059701"/>
			<point x="466.1725178739" y="7.7611940299"/>
			<point x="466.7323753278" y="10" type="qcurve" smooth="yes"/>
			<point x="471.7710924128" y="30.1492537313"/>
			<point x="464.929191688" y="50"/>
			<point x="453.7351618373" y="50" type="qcurve" smooth="yes"/>
		</contour>
		<contour>
			<point x="276.0353886698" y="771" type="line"/>
			<point x="311.1127188656" y="809.8059701493"/>
			<point x="417.494322643" y="877.8208955224"/>
			<point x="470.2938178609" y="892" type="qcurve"/>
			<point x="475.5191540972" y="912.8955223881"/>
			<point x="473.0206242928" y="934"/>
			<point x="467.7967436958" y="934" type="qcurve"/>
			<point x="460.7967436958" y="934" type="line"/>
			<point x="413.7807785803" y="919.0746268657"/>
			<point x="325.7322593885" y="865.3432835821"/>
			<point x="288.7897774222" y="834" type="qcurve" smooth="yes"/>
			<point x="268.0796264946" y="816.8358208955"/>
			<point x="249.3428373327" y="792.223880597"/>
			<point x="248.0365032736" y="787" type="qcurve" smooth="yes"/>
			<point x="246.1703117607" y="779.5373134328"/>
			<point x="255.1100155355" y="771"/>
			<point x="270.0353886698" y="771" type="qcurve"/>
		</contour>
		<contour>
			<point x="625.7861549599" y="782" type="qcurve"/>
			<point x="609.1847445879" y="826.0298507463"/>
			<point x="544.4804786019" y="893.3432835821"/>
			<point x="519.2952111156" y="912" type="qcurve" smooth="yes"/>
			<point x="497.0948103077" y="927.671641791"/>
			<point x="476.5131616062" y="934"/>
			<point x="469.7967436958" y="934" type="qcurve"/>
			<point x="465.7967436958" y="934" type="line"/>
			<point x="461.3191317555" y="934"/>
			<point x="450.1424620625" y="915.3880597015"/>
			<point x="444.5438875236" y="893" type="qcurve"/>
			<point x="483.7220562331" y="879.5671641791"/>
			<point x="543.8976962893" y="829.8358208955"/>
			<point x="565.537199901" y="797" type="qcurve"/>
			<point x="574.6780031905" y="782.8208955224"/>
			<point x="585.8303737774" y="774"/>
			<point x="594.785597658" y="774" type="qcurve" smooth="yes"/>
			<point x="603.7408215386" y="774"/>
			<point x="617.9500221417" y="777.5223880597"/>
		</contour>
	</outline>
</glyph>
